<svg xmlns="http://www.w3.org/2000/svg" viewBox="0 0 71.11 15.01"><defs><style>.cls-1{fill:#636363;}.cls-2{fill:#0092d3;}.cls-3,.cls-5{fill:#fff;}.cls-3{opacity:0.8;}.cls-4{fill:#1086af;}.cls-5{opacity:0.3;}.cls-6{opacity:0.2;}</style></defs><g id="Layer_2" data-name="Layer 2"><g id="Layer_1-2" data-name="Layer 1"><ellipse class="cls-1" cx="36.68" cy="0.86" rx="6.08" ry="0.26"/><path class="cls-2" d="M16.8.37v2c8.14.36,29,.36,37.17,0v-2L50.68.19H19.89Z"/><path class="cls-3" d="M54,.38a60.84,60.84,0,0,1-6.6.26H47c-2.25,0-4.93.06-7.85.07H33.7C24.5.71,17.25.57,16.8.39h0s0,0,0,0A23.54,23.54,0,0,1,19.89.19c1.19,0,2.67-.06,4.37-.08L32.54,0h6.58c3.32,0,6.31,0,8.73.09h0l2.79.06Z"/><ellipse class="cls-1" cx="36.08" cy="0.34" rx="3.78" ry="0.34"/><path class="cls-4" d="M36.1,1.63H0V13.55c15.59,1.94,55.52,1.94,71.11,0V1.63Z"/><polygon class="cls-5" points="6.62 1.63 6.62 14.09 9.18 14.28 9.18 1.63 6.62 1.63"/><path class="cls-6" d="M71.11,1.62V13.55c-1.33.2-2.88.38-4.59.52V1.62Z"/></g></g></svg>