<svg xmlns="http://www.w3.org/2000/svg" viewBox="0 0 62.15 15.01"><defs><style>.cls-1{fill:#679f38;}.cls-2{fill:#636363;}.cls-3,.cls-4{fill:#fff;}.cls-3{opacity:0.8;}.cls-4{opacity:0.3;}.cls-5{opacity:0.2;}</style></defs><g id="Layer_2" data-name="Layer 2"><g id="Layer_1-2" data-name="Layer 1"><path class="cls-1" d="M31.55,1.63H0V13.55c13.63,1.94,48.52,1.94,62.15,0V1.63Z"/><ellipse class="cls-2" cx="32.19" cy="0.86" rx="6.08" ry="0.26"/><path class="cls-1" d="M12.32.37v2c8.14.36,29,.36,37.16,0v-2L46.2.19H15.41Z"/><path class="cls-3" d="M49.48.38a60.63,60.63,0,0,1-6.6.26h-.39c-2.25,0-4.93.06-7.85.07H29.21C20,.71,12.76.57,12.32.39h0s0,0,0,0A23.2,23.2,0,0,1,15.41.19c1.19,0,2.66-.06,4.37-.08L28.06,0h6.58c3.31,0,6.31,0,8.73.09h0L46.2.19Z"/><ellipse class="cls-2" cx="31.59" cy="0.34" rx="3.78" ry="0.34"/><polygon class="cls-4" points="5.78 1.63 5.78 14.09 8.02 14.28 8.02 1.63 5.78 1.63"/><path class="cls-5" d="M62.15,1.62V13.55c-1.34.2-2.88.38-4.6.52V1.62Z"/></g></g></svg>