<svg xmlns="http://www.w3.org/2000/svg" viewBox="0 0 59.9 15.01"><defs><style>.cls-1{fill:#636363;}.cls-2{fill:#a6162c;}.cls-3,.cls-5{fill:#fff;}.cls-3{opacity:0.8;}.cls-4{opacity:0.2;}.cls-5{opacity:0.3;}</style></defs><g id="Layer_2" data-name="Layer 2"><g id="Layer_1-2" data-name="Layer 1"><ellipse class="cls-1" cx="31.07" cy="0.86" rx="6.08" ry="0.26"/><path class="cls-2" d="M59.9,1.62V13.55c-1.33.2-2.88.38-4.59.52C40.15,15.47,11.8,15.3,0,13.55V1.62Z"/><path class="cls-2" d="M11.19.37v2c8.15.36,29,.36,37.17,0v-2L45.08.19H14.29Z"/><path class="cls-3" d="M48.36.38a60.63,60.63,0,0,1-6.6.26h-.39c-2.25,0-4.93.06-7.85.07H28.09c-9.2,0-16.45-.15-16.9-.33h0s0,0,0,0a23.61,23.61,0,0,1,3.1-.18C15.47.16,17,.13,18.66.11L26.94,0h6.58c3.31,0,6.3,0,8.72.09h0l2.79.06Z"/><ellipse class="cls-1" cx="30.47" cy="0.34" rx="3.78" ry="0.34"/><path class="cls-4" d="M59.9,1.62V13.55c-1.33.2-2.88.38-4.59.52V1.62Z"/><polygon class="cls-5" points="4.66 1.63 4.66 14.09 6.9 14.28 6.9 1.63 4.66 1.63"/></g></g></svg>