<svg xmlns="http://www.w3.org/2000/svg" viewBox="0 0 68.87 15.01"><defs><style>.cls-1{fill:#636363;}.cls-2{fill:#8f4fa0;}.cls-3,.cls-4{fill:#fff;}.cls-3{opacity:0.8;}.cls-4{opacity:0.3;}.cls-5{opacity:0.2;}</style></defs><g id="Layer_2" data-name="Layer 2"><g id="Layer_1-2" data-name="Layer 1"><ellipse class="cls-1" cx="35.56" cy="0.86" rx="6.08" ry="0.26"/><path class="cls-2" d="M15.68.37v2c8.14.36,29,.36,37.17,0v-2L49.56.19H18.77Z"/><path class="cls-3" d="M52.85.38a60.84,60.84,0,0,1-6.6.26h-.4C43.6.67,40.92.71,38,.72H32.57C23.38.71,16.13.57,15.68.39h0s0,0,0,0A23.37,23.37,0,0,1,18.77.19C20,.16,21.44.13,23.14.11L31.42,0H38c3.32,0,6.31,0,8.73.09h0l2.79.06Z"/><ellipse class="cls-1" cx="34.96" cy="0.34" rx="3.78" ry="0.34"/><path class="cls-2" d="M35,1.63H0V13.55c15.1,1.94,53.77,1.94,68.87,0V1.63Z"/><polygon class="cls-4" points="6.41 1.63 6.41 14.09 8.89 14.28 8.89 1.63 6.41 1.63"/><path class="cls-5" d="M68.87,1.62V13.55c-1.33.2-2.88.38-4.59.52V1.62Z"/></g></g></svg>