<svg xmlns="http://www.w3.org/2000/svg" viewBox="0 0 64.39 15.01"><defs><style>.cls-1{fill:#636363;}.cls-2{fill:#00579b;}.cls-3,.cls-4{fill:#fff;}.cls-3{opacity:0.8;}.cls-4{opacity:0.3;}.cls-5{opacity:0.2;}</style></defs><g id="Layer_2" data-name="Layer 2"><g id="Layer_1-2" data-name="Layer 1"><ellipse class="cls-1" cx="33.31" cy="0.86" rx="6.08" ry="0.26"/><path class="cls-2" d="M13.44.37v2c8.14.36,29,.36,37.16,0v-2L47.32.19H16.53Z"/><path class="cls-3" d="M50.6.38A60.63,60.63,0,0,1,44,.64h-.39c-2.25,0-4.93.06-7.85.07H30.33C21.13.71,13.88.57,13.44.39h0s0,0,0,0A23.2,23.2,0,0,1,16.53.19C17.72.16,19.2.13,20.9.11L29.18,0h6.58c3.31,0,6.31,0,8.73.09h0l2.79.06Z"/><ellipse class="cls-1" cx="32.71" cy="0.34" rx="3.78" ry="0.34"/><path class="cls-2" d="M32.68,1.63H0V13.55c14.12,1.94,50.27,1.94,64.39,0V1.63Z"/><polygon class="cls-4" points="5.99 1.63 5.99 14.09 8.31 14.28 8.31 1.63 5.99 1.63"/><path class="cls-5" d="M64.39,1.62V13.55c-1.34.2-2.88.38-4.6.52V1.62Z"/></g></g></svg>