<svg xmlns="http://www.w3.org/2000/svg" viewBox="0 0 66.63 15.01"><defs><style>.cls-1{fill:#636363;}.cls-2{fill:#d8901d;}.cls-3,.cls-4{fill:#fff;}.cls-3{opacity:0.8;}.cls-4{opacity:0.3;}.cls-5{opacity:0.2;}</style></defs><g id="Layer_2" data-name="Layer 2"><g id="Layer_1-2" data-name="Layer 1"><ellipse class="cls-1" cx="34.43" cy="0.86" rx="6.08" ry="0.26"/><path class="cls-2" d="M14.56.37v2c8.14.36,29,.36,37.17,0v-2L48.44.19H17.65Z"/><path class="cls-3" d="M51.73.38a60.84,60.84,0,0,1-6.6.26h-.4c-2.25,0-4.93.06-7.85.07H31.45C22.25.71,15,.57,14.56.39h0s0,0,0,0A23.2,23.2,0,0,1,17.65.19C18.84.16,20.32.13,22,.11L30.3,0h6.58c3.31,0,6.31,0,8.73.09h0l2.79.06Z"/><ellipse class="cls-1" cx="33.84" cy="0.34" rx="3.78" ry="0.34"/><path class="cls-2" d="M33.82,1.63H0V13.55c14.61,1.94,52,1.94,66.63,0V1.63Z"/><polygon class="cls-4" points="6.2 1.63 6.2 14.09 8.6 14.28 8.6 1.63 6.2 1.63"/><path class="cls-5" d="M66.63,1.62V13.55c-1.34.2-2.88.38-4.6.52V1.62Z"/></g></g></svg>