<svg xmlns="http://www.w3.org/2000/svg" viewBox="0 0 42.35 44.84"><defs><style>.cls-1{opacity:0.4;}.cls-2{fill:#0bacdd;}.cls-3{fill:#b7e036;}.cls-4{opacity:0.2;}.cls-5{fill:#222;}</style></defs><g id="Layer_2" data-name="Layer 2"><g id="landscape"><g id="Graphics"><ellipse class="cls-1" cx="21.17" cy="42.35" rx="19.93" ry="2.49"/><circle class="cls-2" cx="21.17" cy="21.17" r="21.17"/><path class="cls-3" d="M2.6,21a1.48,1.48,0,0,0,.24.57C2.71,21.29,2.61,21.05,2.6,21Z"/><path class="cls-3" d="M24.09,14.34a.21.21,0,0,0,.12,0s0-.05,0-.07h0l0,0-.08-.1,0,0s0,0,0,.08,0,0-.06,0H24l.1.13Z"/><path class="cls-3" d="M22.9,13.8v0H23a1.25,1.25,0,0,0,.12-.08.5.5,0,0,0,.12,0h0a0,0,0,0,0,0,0v-.12l-.05-.05c-.05,0-.13-.08-.18-.14a.18.18,0,0,1-.07-.09l0,0s0,0,0,0-.12.13-.12.17a.81.81,0,0,0,.1.21A.2.2,0,0,1,22.9,13.8Z"/><path class="cls-3" d="M20.27,24.65a.06.06,0,0,0-.06,0h0s0,0,0-.05a.12.12,0,0,0-.06-.09s-.06,0-.17,0a.24.24,0,0,0,0,.09s0,.07.07.11a.53.53,0,0,0,0,.12.06.06,0,0,0,.05,0h0c.06,0,.24,0,.25-.1s0,0-.06-.09Z"/><path class="cls-3" d="M4.64,14.83s0,.05,0,.05l0,0a.63.63,0,0,0,0-.14l.07-.12a.23.23,0,0,0,0-.09s0,0-.08,0a.89.89,0,0,0-.1.19v.11Z"/><path class="cls-3" d="M38.1,31.28c0-.34-.18-.67-.08-1a1.46,1.46,0,0,0,0-.27c0-.06,0-.06,0-.09H38s0-.06,0-.26,0-.35,0-.35a2,2,0,0,0-.21.61,2.56,2.56,0,0,1-.21.57c-.23.2-.32-.29-.49-.43,0,0,.07-.15.13-.17l0,.05a.22.22,0,0,0,.1-.12s0,0-.14,0,.25-.11.17-.22l0,0-.27,0c-.11,0-.07-.19-.18-.16s.07.12,0,.19,0,0-.1,0-.07,0-.2.14,0,.24-.14.34-.06.06-.09.06-.07-.33-.22-.27-.23.35-.35.52l0,0c-.06.06,0,.14-.08.21h0s0,0,0-.18c-.2.15-.22.43-.4.6s-.48.13-.67.29l-.17.13c-.08,0-.09,0-.18.17l-.12.5c0,.22,0,.44,0,.66S34,33,34,33.2s-.47.66-.14.69c.17,0,.21,0,.31-.09a1.19,1.19,0,0,1,.25-.18c.12-.06.26,0,.37,0l.33-.26c.07,0,.07,0,.28-.07s.27-.12.31-.09l.23.17s0,.06,0,.33,0,.15,0,.2.21-.27.34-.37a.18.18,0,0,1-.06.24l0,0c-.06.28-.06.28,0,.32s-.17.4,0,.46a.13.13,0,0,0,0,.09h0c.1-.12.1-.12.14-.11s0,.11.08.14l0,0c.09-.05.1-.19.22-.21l.22-.05a7.14,7.14,0,0,1,.47-.81,2.76,2.76,0,0,0,.59-1,4.11,4.11,0,0,0,.18-.6.4.4,0,0,0,0-.14.4.4,0,0,1,0-.35C38.19,31.43,38.1,31.36,38.1,31.28Z"/><path class="cls-3" d="M35.93,33.94h0c0-.07.09-.14.14-.2A.46.46,0,0,0,35.93,33.94Z"/><path class="cls-3" d="M36.1,33.74v0h0Z"/><path class="cls-3" d="M36.44,34.94l0,0a.25.25,0,0,1-.16.09,0,0,0,0,1-.06,0s0,0,0-.08h0a.35.35,0,0,0-.08.13.53.53,0,0,0,0,.12,2.09,2.09,0,0,1-.08.23s0,.18,0,.18a.65.65,0,0,0,.19-.14l.11-.16.12-.15a.56.56,0,0,0,.07-.23Z"/><path class="cls-3" d="M38.63,28.73c-.12-.24,0-.17,0-.17l0,0c.06-.06,0-.28-.1-.28h0c0-.06,0-.14,0-.19a4.55,4.55,0,0,0-.4-.35c-.06-.06-.08-.15-.14-.21h0a.18.18,0,0,0-.15.08,3.49,3.49,0,0,1-.26.35,1.12,1.12,0,0,1-.1-.18.42.42,0,0,1,0-.14c.05-.15.08-.33,0-.33s-.41.08-.31.16.13,0,.16.09-.05.1-.07.16h0c.07,0,.14,0,.21,0h0c0,.06-.13,0-.19.09s.1.05.08.11a1.38,1.38,0,0,0,0,.14c.06,0,.09,0,.13-.05s.08,0,.12.05.12,0,.22.2a.19.19,0,0,1,0,.24c-.14.2-.18.3-.12.32a.06.06,0,0,0,.07,0c.09-.1.14-.1.15,0v0c0,.05,0,.09,0,.14s.12,0,.18,0l.11,0c.08,0,.13-.15.14-.22s.14-.12.18-.13,0,0,0,.07c.06.34.06.34.09.38s.28.24.27.05A1.6,1.6,0,0,0,38.63,28.73Z"/><path class="cls-3" d="M34.79,27.07c-.11.06-.09-.15-.14-.22s-.22.47-.13.6.1.05.12.11,0,.05,0,.14,0,.17.11.17h.06L35,28c.07,0,.13,0,.19,0s0,0,0,.05l0,0c.23.08,0-.55.23-.45h0a.58.58,0,0,0,.06-.28c0-.06,0-.09,0-.12a.14.14,0,0,1,.16,0s.05,0,.06,0,0-.12-.1-.24,0,0,0-.21a.31.31,0,0,1,0-.11s.08,0,.1-.09,0-.06,0-.08h0c.05-.06.11,0,.14,0s0,0,0-.14h0c0-.06-.08-.09-.11-.14s0-.07,0-.12,0-.07,0-.07-.12.11-.12.11,0,.21-.12.29-.17,0-.23.12,0,.11-.07.16a.15.15,0,0,1,0,.06c-.08.1-.22.1-.29.21a.18.18,0,0,0,0,.13C34.82,27,34.81,27.06,34.79,27.07Z"/><path class="cls-3" d="M34,28.72c.07,0,.14,0,.22,0s.14.1.23.13h0c.06,0,.11,0,.17,0a6.21,6.21,0,0,0,.62.14c.09,0,.17-.05.26,0l.23,0a1,1,0,0,0,.6-.18,1,1,0,0,0-.49.05c-.16.07-.28-.05-.42-.06s-.24.09-.38.05-.06-.07-.11-.08-.09,0-.12,0l.11-.14-.34-.11s0,0,0,.05-.17,0-.17,0c-.17-.14-.17-.14-.24-.14h0C33.9,28.48,33.87,28.68,34,28.72Z"/><path class="cls-3" d="M1.63,14.05l.15,0c.12.17.05.4.19.57l-.07.31L2,14.81c0,.16-.07.31-.09.47A1.74,1.74,0,0,1,2,16.64c.47.88-.21,1.69-.13,2.55s.62,1.57.7,2.43c0,.09,0,.21,0,.31.25.21.25.55.39.82a.62.62,0,0,0,.18-.46c.19.47.36.91.36.94,0,.22,0,.22.84,1.08a.57.57,0,0,0,.33-.18,3,3,0,0,0,.23.38c.23,0,.23,0,1.34,1.34l.14-.05,0-.14.15,0c.29.34.29.34,0,2.05a7.81,7.81,0,0,1,.89,1.92c.22.53.87.68,1.08,1.22l1.29,4.9-.14-.05a2.44,2.44,0,0,1,.13.44l.24.17c-.16.38.07.52.14.55h0a.83.83,0,0,0,.12.27h.15c0,.39.38.72,1,1l.07-.13.14,0c-.56-.55-.63-1.4-1.18-2,.07-.12.07-.12.14-.72h-.15c0-.08-.08-.2-.11-.28l.27.13.08-.12c0-.09-.09-.19-.12-.27.42-.31.42-.31.43-.58-.12-.09-.16-.25-.26-.34.39,0,.39,0,.53-.78l.14-.06c0-.34,0-.69,0-1,.83-.81.83-.81,1-1.35a12.91,12.91,0,0,0,.13-2.33,12.93,12.93,0,0,1-2.14-1,1.51,1.51,0,0,1,0-.3c-.36-.23-.48-.87-1.06-.72,0,0-.85-.88-1-.94l-.13.07c-.15-.1-.15-.1-.43,0l-.2-.24-.11.11-.13-.07V25C7,25,7,25.1,6.81,25.6H6.65a.47.47,0,0,0-.25-.16,2,2,0,0,0-.19.22c-.3-.43-.1-1-.43-1.42a1.07,1.07,0,0,0-.43,0c-.18-.4.23-.81,0-1.21-.34.1-.64.86-.94.47a3.41,3.41,0,0,1-.08-1.83l.28-.35a1,1,0,0,0,.29,0l.11.1.18-.23c.17,0,.22-.05.41.13l.14,0c.33.25.19.67.36,1l.12-.12c0-.22,0-.22-.08-.6-.12-.8.78-1.29.63-2.09l.11.11c0-.09,0-.21,0-.3s.09-.08.21-.4l1.24-1.2c0,.12,0,.12-.21.4l.14,0a6.54,6.54,0,0,0,.57-.4h0A.55.55,0,0,0,9,17.47c-.45.12-.45.12-.62-.08l0-.15-.12-.09A1.41,1.41,0,0,1,8.53,17l0-.13c-.2,0-.29-.06-.72.37.12-.21.27-.39.39-.61.53-.08,2.14-.33,1.6-1,0,0-.09-.05-.12-.08l.07-.12c-.16-.17-.38-.28-.5-.49.12-.19.12-.19-.14-1.06l-.13,0c-.14.39-.2.41-.35.47-.34-.17-.07-.53-.11-.79-.21-.09-.23-.15-.25-.32a1.06,1.06,0,0,0-.56-.08c-.15.37-.24.76-.37,1.13a.56.56,0,0,1,.1.6l-.66,1.3-.13-.09a1.73,1.73,0,0,1,.06-.81c-.28-.21-1-.67-1-.67A8.64,8.64,0,0,1,6.87,12.4l-.13-.06c.34-.11.35-.23.36-.4l.08.12a.79.79,0,0,0,.58-.74c.13-.12.18-.17.1-.38H7.57a3.32,3.32,0,0,1-.36.67l-.09-.12c0-.09,0-.22.06-.31l-.15,0A.58.58,0,0,0,6.89,11a.58.58,0,0,1,.18-.23c0-.52,1.27-1.4.56-1.39-.5.13-.88,1.09-1.13,1.83l0,.05,0,0c0,.16-.1.3-.13.43-.29-.17-.65-.09-.92-.29a.77.77,0,0,1-.71.19.42.42,0,0,1,0-.27C4.64,11,4.62,11,4.36,11l-.1-.11A1.77,1.77,0,0,0,4,11a1.1,1.1,0,0,1,0-.31,6.65,6.65,0,0,1-.77.48l-.14-.05a2.93,2.93,0,0,0,0-.29l-.14,0a.73.73,0,0,0-.2-.18,15.16,15.16,0,0,0-1.09,2.22c-.15.36-.34.84-.49,1.27,0,0,0-.07.05-.07a1.33,1.33,0,0,0,.24-.33A1.32,1.32,0,0,0,1.63,14.05Zm1.21,7.56A1.48,1.48,0,0,1,2.6,21S2.71,21.29,2.84,21.61Z"/><path class="cls-3" d="M25.76,29.54c-.06,0-.06,0-.08.16s0,.08-.11.06a.28.28,0,0,0-.05.2c0,.08,0,.08-.06.12s-.17.1-.26.15-.18,0-.26.09l0,0,0,.05a.39.39,0,0,0,0,.33c.06.1.13.22.08.29s0,0,0,0,0,.13-.05.19l0,0c-.05,0-.08.08-.1.13v.08c0,.1.11.15.11.26s-.11.09-.08.18a.28.28,0,0,0,.22.14.26.26,0,0,0,.29-.13,14.9,14.9,0,0,0,.49-1.41c0-.11-.05-.22,0-.34s.08.08.12.11c.21-.09-.05-.73-.06-.74Z"/><path class="cls-3" d="M8,23.66c-.11-.08-.22,0-.32,0s-.16-.2-.27-.27a1.27,1.27,0,0,0-.32,0c-.09,0-.16,0-.51-.34-.06-.06-.07-.16-.15-.21h0a.77.77,0,0,0-.15,0s-.09-.07-.14-.08H6.08c-.3,0-.42.22-.37.28s.17-.25.32-.17.09.15.18.18.14,0,.2,0,.09.26.2.36.12.1.15.1l.18.06,0,0c0,.05,0,.12,0,.17s.11-.07.18,0a0,0,0,0,1,0,0,.32.32,0,0,0,.16.14v0c0-.07,0-.12.12-.17s0,0,.08,0h.09s0,0,.2.11a.1.1,0,0,0,.06,0s.06-.05.1-.07S8,23.66,8,23.66Z"/><path class="cls-3" d="M10,17.17c0-.09-.1-.12-.12-.2a1.11,1.11,0,0,1,0-.23c0-.07,0-.08,0-.1s-.07,0-.13,0-.1.05-.13,0-.07-.19.08-.43,0-.13,0-.13-.28.3-.33.39c-.17.33-.3.59-.21.66a.33.33,0,0,0,.22,0s.17,0,.2,0,0,0,0,.06,0,.19,0,.19h0s0-.05.06-.07.1-.13.12-.13.05.05.06.1,0,.06.06.05.13,0,.14-.07a.23.23,0,0,0,0-.12Z"/><path class="cls-3" d="M7.38,12.59s0-.06,0-.09l0,0a.55.55,0,0,0-.15-.09s0,0,0,0,0,0,.06-.17l0-.08h0l-.13.07a4.14,4.14,0,0,0-.21.59s0,0,0,0a.19.19,0,0,0-.12.07s0,0,0,0,.07,0,.1,0l0,0s0,0,0,.05,0,.1,0,.1a.5.5,0,0,0,.26-.24c0-.09.12-.16.13-.11s-.08.09,0,.14a.25.25,0,0,0,.21.07s0,0,0,0a.61.61,0,0,0,0-.11C7.44,12.68,7.4,12.64,7.38,12.59Z"/><path class="cls-3" d="M9.78,11.77a.16.16,0,0,1-.12-.11c0-.1-.16-.13-.2-.23s-.15-.15-.17-.26.22,0,.24-.12-.09-.05,0-.16-.18,0-.19-.12.12-.13.17-.2-.21-.09-.3,0,.08-.18,0-.25,0,0-.09,0-.24,0-.24,0,.15-.09.12-.19,0-.2-.22-.18-.24.27-.44.17c.06-.17.25-.3.17-.51A1,1,0,0,0,8,9.78.44.44,0,0,0,8,10a.8.8,0,0,0,0,.15c0,.07,0,.13,0,.19-.2,0-.1-.38.07-.56a.66.66,0,0,0,.2-.31h0c-.29.07-.9.77-.78.89s.17,0,.24.1v0c-.08,0-.23,0-.25.08a.26.26,0,0,0,.19.26,1.87,1.87,0,0,0,.34,0c.07,0,.1.11.18.11a.2.2,0,0,0,.2-.11c.05-.08.07-.11.12-.1l.14.3a1.18,1.18,0,0,0,0,.2s.07,0,.09.08l.06.34c0,.24-.31.28-.35.5s-.09.19-.2.17c-.34-.05-.39.15-.39.24s.13.07.19.07c.29,0,.32,0,.36.2,0,0,0,0,.14.41h0c0-.09.06-.15.12-.15.29.39.44.13.44.13,0-.15-.24-.16-.18-.32s.07,0,.12,0a.33.33,0,0,0,.14.09c.21.07.25-.37,0-.54s-.09-.13-.09-.14c.07-.16.24,0,.28.06s.15-.05.15-.05,0-.05,0-.07.09,0,.12,0,0-.14.07-.19C10,11.83,10,11.79,9.78,11.77Z"/><path class="cls-3" d="M9,9.56s0,0-.09,0a1.16,1.16,0,0,0-.18,0,.06.06,0,0,1-.06,0h0a.14.14,0,0,0-.08.11,1.66,1.66,0,0,0,0,.26s0,0,0,0,0,0,.06,0a.31.31,0,0,1,.18-.09.12.12,0,0,1,.11,0l0,0s0,0,0,0A.17.17,0,0,0,9,9.76v0s0-.06,0-.09A.16.16,0,0,0,9,9.56Z"/><path class="cls-3" d="M8.34,11.34l-.14.18c0,.05,0,.13,0,.16h.15s.06,0,.07,0a.85.85,0,0,0,.11-.26s-.1-.09-.12-.09h0Z"/><path class="cls-3" d="M6.4,9.5h0l-.06,0c-.09,0-.12,0-.13,0s0,.12,0,.17-.1,0-.13-.05A.42.42,0,0,0,6,9.94c0,.05,0,.14-.1.37,0,0,0,0-.11,0h0s0,0,0-.16.11-.3,0-.38,0,0,0,.1,0,0-.2.17c0-.07.09-.11.09-.18s0-.15-.08-.11l-.09.11c-.06.09-.08,0-.08,0s.13-.12.15-.21-.3.09-.38.17a.31.31,0,0,0-.08.11s0,.08,0,.11-.1,0-.13,0a1,1,0,0,0,0,.17c0,.1.15,0,.22,0s0,0-.13.08-.17.08-.18.12h0c0,.12.08.09.16.07s.2,0,.14.15-.08.06-.2,0a.16.16,0,0,0-.21.17s0,0,.16.19c-.15.26-.05.23.21.17s.14,0,.33-.23.11-.06.12.07.36,0,.36,0,0-.15,0-.17h0A.36.36,0,0,1,6,10.88s0,0,0,.08.17-.13.1-.17a.45.45,0,0,1-.21-.26s.06-.09.08-.11a.17.17,0,0,0,.08-.16.58.58,0,0,1,.14-.42c.19-.29.19-.29.16-.33Z"/><path class="cls-3" d="M5.07,9.93a1.05,1.05,0,0,1,.27-.19.44.44,0,0,0,.16-.11,1.26,1.26,0,0,0,0-.27s0,0-.12,0l-.07,0,0,0c0-.08,0-.13,0-.21H5.16L5,9.32c-.06.06,0,.11,0,.17s-.14.11-.19.18-.08.17-.14.23a1.12,1.12,0,0,0-.18.2.06.06,0,0,0,0,.08c.08.07,0,.16,0,.23s.07.05.1,0h0a.19.19,0,0,1,.1,0s0,0,0,0a.25.25,0,0,0,0-.1C4.79,10.26,4.79,10.26,5.07,9.93Z"/><path class="cls-3" d="M6.52,11.23l0-.05,0,0s0,0,0,0,.08-.06.08-.11v0s-.09-.11-.12-.11l-.08,0,0,0s-.06.09-.1.13,0,0-.06,0-.06.14,0,.17h0c.06,0,0,.12,0,.12s0,.06,0,.09a.17.17,0,0,1,0,.07s0,.06,0,.06.14,0,.13-.11,0-.07-.08-.07h0a.91.91,0,0,1,.13-.1l.09-.07Z"/><path class="cls-3" d="M7,9.43c-.07,0-.05.09-.11.11s-.1,0-.15,0,0,0,0,0,0,.1,0,.1.08.18,0,.24-.13,0-.14,0,0-.08,0-.09a.31.31,0,0,0,0,.23.1.1,0,0,1,0,.05s0,.07,0,.09a.14.14,0,0,0,0,.11c0,.05,0,.05,0,.08l.07,0s0-.05.08-.06a.38.38,0,0,1,.1,0l.07,0h0l0-.14,0-.07h0l0-.12c0-.07-.11,0-.12-.1S7,9.64,7,9.63s.06,0,.06-.07,0-.07,0-.09A.13.13,0,0,0,7,9.43Z"/><path class="cls-3" d="M6.31,8.9c-.08-.05-.08-.05-.07-.18a.15.15,0,0,0,0-.06s0,0,0-.07,0-.05,0-.07h0l-.37.32s0,.05,0,.07L5.69,9s0,0,0,0a.41.41,0,0,0,.23,0h0a.14.14,0,0,1-.06.14s-.11.06-.11.09.12.11.13.11S6,9.33,6,9.3s.18-.17.26-.18h0s0,0,0,0a1.33,1.33,0,0,0,.29-.07l.19-.26a.74.74,0,0,0,0-.19h0c-.1,0-.11.14-.19.19s-.05-.09.08-.31c0-.07,0-.07,0-.09h0s-.17,0-.19.23S6.35,8.93,6.31,8.9Z"/><path class="cls-3" d="M5.67,8.72l0,0,.09,0,.07-.09.09-.11c0-.07.07-.09.08-.09s0,0,0,.09,0,.08.06,0l.07-.06s0,0,0,0h0a.24.24,0,0,0,0-.17s0,0,0,0,0,0,.1-.08.09-.07.07-.08h0s0,0,0,0h0s-.06.07-.11.08-.08,0-.12,0a2.29,2.29,0,0,1-.23.21.57.57,0,0,1-.16.09s-.05,0-.06,0-.06.14,0,.17S5.63,8.7,5.67,8.72Z"/><path class="cls-3" d="M6.48,8.2a.06.06,0,0,0,0,0s0,0,.06,0,.22,0,.22-.09S6.72,8,6.76,8A.34.34,0,0,0,7,7.86a.23.23,0,0,0,0-.09V7.68s0,0,0,0,0,0,0,0a.65.65,0,0,0-.17.09h0l-.13.12a.53.53,0,0,0-.1.06s-.13.27-.13.27A0,0,0,0,0,6.48,8.2Z"/><path class="cls-3" d="M6.46,8.1h0l0,0a.41.41,0,0,0,0-.09s0,0,0,0H6.5l-.08.12h0Z"/><path class="cls-3" d="M7.52,8.61s0,0,0-.06h-.1s0,0-.06,0,0-.05,0-.06,0,0-.06,0-.09.06-.06.11a.16.16,0,0,1,0,.12l-.07.08h0s0-.11,0-.16-.07-.06-.09,0,0,.21,0,.15a.25.25,0,0,1,0-.12c0-.05,0-.07,0-.1s-.06,0-.07,0l0,.17s0,.07,0,.11,0,0,0,.09.12,0,.15,0,0,0,.07,0,0,0,0,0a.19.19,0,0,1-.08.06S7.05,9,7,9s0,.18,0,.17H7s.06,0,.09-.05.1,0,.13,0h0l.08-.18C7.4,8.79,7.47,8.71,7.52,8.61Z"/><path class="cls-3" d="M6.79,9h0L6.68,9c-.08.06-.08.08-.06.09l0,.07h0A.55.55,0,0,0,6.81,9V9Z"/><path class="cls-3" d="M7.16,8.2a.13.13,0,0,0,0-.09h0l-.05,0a.08.08,0,0,0,0,.06.15.15,0,0,0,0,.13S7.17,8.3,7.16,8.2Z"/><path class="cls-3" d="M7.32,7.89H7.4l0,0,.05,0,0,0L7.6,8v.09s.1,0,.13,0,0-.08,0-.13.07-.12.09-.18,0-.05,0-.05,0,0-.05,0l0,0s0,0-.06,0,0,0,0,0,0-.14,0-.14h0l-.06.06s-.08,0-.1.06,0,.12,0,.12,0,0,0,0,0,0,0,0,0,.1,0,.11-.08,0-.11,0S7.28,7.86,7.32,7.89Z"/><path class="cls-3" d="M7.66,8.85h0l0,0-.09,0H7.39s0,0,0,0l0,0s0,0-.05.1,0,.05,0,.06h0s0,0,.05,0l0,0,0,0h.1l0-.05,0-.08a.31.31,0,0,0,0-.1V9s0-.06,0-.09S7.66,8.87,7.66,8.85Z"/><path class="cls-3" d="M7.89,9.26h0s0,0,.16-.08l0,0C8,9.29,8,9.29,8,9.31c.27.07.27.07.31,0a.21.21,0,0,1,.15,0s0-.08.06-.07,0,0,.08.06.14,0,.15,0A1.35,1.35,0,0,0,9,9.07H9S9,9,9,9s0,0,0-.09H9a.93.93,0,0,0-.22-.1.52.52,0,0,0-.27.07.27.27,0,0,1-.12.06s-.07,0-.11,0-.08-.06-.12-.09,0,.07-.08.07h0s0-.1,0-.15-.07-.05-.07-.09a0,0,0,0,1,0,0s.07,0,.11,0,.05,0,0,0-.05-.09-.1-.12a.16.16,0,0,0-.11,0c-.1,0-.1,0-.12,0s.06-.09,0-.15v0H7.85s0-.05,0-.05h0c-.11,0-.21.22-.09.32s.12,0,.15.1a.38.38,0,0,1,0,.18c0,.06-.14.08-.15.16s0,.16.12.15S7.87,9.27,7.89,9.26Z"/><path class="cls-3" d="M7.85,8.11s0,0,0,0h0s0,0,0,.06a.27.27,0,0,0,.08,0,.25.25,0,0,0,.2-.06s0-.07-.06-.11L8,8s0,0,.06,0,.07-.07.07-.08,0,0,0,0-.06,0-.08,0,0-.06,0-.09H8l0,0h0s0,.07,0,.1-.05.09,0,.09.07,0,.06,0,0,0,0,0h0S7.82,8,7.85,8.11Z"/><path class="cls-3" d="M9.88,7.69c-.05-.13,0-.13.11-.15s.22,0,.33,0,0-.1,0-.1-.06,0-.05-.08.11.16.21.11.11-.11.17-.16.14-.05.2-.09l0,0L11,7.12c.15-.16.45,0,.53-.29-.13,0-.23.12-.36.09v0l.42-.14c.36,0,.41-.08.39-.18s-.16-.06-.18-.12-.15,0-.23,0,0,0,0-.06v0a2.55,2.55,0,0,1-.39,0s-.06-.11-.23,0-.15-.08-.23-.08a.08.08,0,0,0-.07,0v0s.07.05.09.09a.13.13,0,0,1-.12.06s0-.08,0-.11a.15.15,0,0,0-.13-.06.57.57,0,0,0-.23.07c-.09,0-.14.15-.25.18s0-.11-.08-.15-.13.12-.2.15-.05,0-.06,0-.58,0-.49.17,0,0,.13,0l-.1.07c.08,0,.14-.08.23,0-.06.08-.19,0-.24.13a.76.76,0,0,0,.07.19c.08,0,.15-.08.23-.06l-.1.08.19,0A.2.2,0,0,1,9.66,7s0,.06,0,.09.24,0,.41-.14.21-.11.23-.1,0,0-.23.16v0h.17a6.45,6.45,0,0,1-.63.16c0,.09.13.15.13.26s-.21,0-.2-.13,0-.24-.26-.13a.23.23,0,0,0,0,.23c0,.08,0,.08,0,.22v0a.79.79,0,0,1,.23,0,.89.89,0,0,1-.19.17c-.08,0-.12-.18-.25-.14A.4.4,0,0,0,8.74,8s.06,0,.09,0,0,0,.18-.12l0,0c0,.1-.18.15-.18.28s.17,0,.21-.08L9.22,8c-.07.09-.09.21-.2.27s-.25.06-.27,0,0-.12,0-.18-.05,0-.14.12,0,.18-.08.24-.18,0-.23.09,0,.07,0,.12h0c.05,0,.11,0,.16,0s0,.08.1.07.08-.1.12-.14.11.1.16.08.15,0,.2,0,0,0,0,.07a.89.89,0,0,0,.43-.25c0-.08-.12,0-.18,0a.71.71,0,0,0,.07-.09h0c-.07,0-.14,0-.21,0l0-.12c.23.09.23.09.27.08s.15-.12.15-.14,0-.1,0-.1.08,0,.13,0S9.86,8,9.87,8h0c-.11,0-.11,0-.12,0s.14,0,.2,0a.38.38,0,0,0,.15-.18C10,7.66,9.92,7.78,9.88,7.69Z"/><path class="cls-3" d="M8.33,8.33s.1-.1.09-.15,0-.07-.06-.07-.09.1-.1.15l0,.06C8.31,8.35,8.32,8.34,8.33,8.33Z"/><path class="cls-3" d="M8.45,7.53c.18,0,.22,0,.22,0s0,0-.09,0-.08-.05-.22.14,0,.13,0,.14,0,0,0,.08.08,0,.12,0l.12,0c.06,0,.08,0,.09,0s0,0,0,.07h0c.06-.05.09-.12.15-.16l.1-.08c.06,0,.07,0,.08,0a.68.68,0,0,0,.2-.06s0-.14,0-.14-.09.07-.16,0,0,0,.13-.15,0,0,0-.06-.11,0-.14,0h0c.06,0,.15-.12.15-.16s-.05,0-.12.09A.12.12,0,0,1,9,7.28s0-.08.08-.11.07,0,0-.06-.11,0-.17,0a.81.81,0,0,1,0-.23s0,0,0,0-.06-.08-.08-.08h0s-.06.09-.06.09,0,.06,0,.06H8.69s0,0,0,.07.06.11,0,.12a0,0,0,0,1-.06,0s0-.06-.13.06v0s0,0,0,0H8.6a.11.11,0,0,1-.17,0s0,0,0,0,0,.13.06.17,0,.08,0,.09-.12,0-.17,0h.19Z"/><path class="cls-3" d="M8.18,7.35l0-.07a.65.65,0,0,0,0-.14h0s-.15.14-.13.16h0v0a.23.23,0,0,1,0,.09s0,0,0,0A.27.27,0,0,0,8.18,7.35Z"/><path class="cls-3" d="M15.14,12.83l0,0c.05,0,.1,0,.14,0s.06.06.1.05.08-.06.14-.16.06-.1.16-.09h.1a2.36,2.36,0,0,0,.23-.13s.13-.19.12-.22a.42.42,0,0,0,0-.1s-.06-.07-.09-.12,0-.11-.06-.16l0,0-.13,0a.08.08,0,0,0-.06.07c0,.06,0,.07-.09.07a.2.2,0,0,1-.13,0s0,0,0,0-.08.09-.11.14-.07-.09-.13-.06l0,.06a.17.17,0,0,1-.08.13c-.15.06-.15.06-.06-.11s-.14-.24-.16-.23-.06,0,0,.08,0,0,0,.06-.1,0-.15,0h0s-.09.15-.09.17.2-.08.3,0,0,.14-.07.16l-.15,0c-.07,0-.07,0-.07.06s0,0,.15,0,.1,0,.12,0,0,.06-.05.11,0,.2,0,.19h0s.07-.06.12-.06,0,0,.06.05S15.08,12.81,15.14,12.83Z"/><path class="cls-3" d="M15.16,10.7a2.57,2.57,0,0,0-.48,0c-.1,0-.15.13-.24.16v0c.11-.13.3-.15.38-.32s-.14-.13-.13-.24.07,0,.36.43a1.52,1.52,0,0,0,.28,0s.09-.33-.09-.35c-.12-.29-.12-.29-.35-.43v0c.19-.14.27.2.46.2a.27.27,0,0,0,0-.22c-.1-.12-.27-.1-.38-.19,0-.17.26-.06.28,0s0,.11.09.15.38,0,.35-.28a2.09,2.09,0,0,0-.25,0v0s0,0,.22,0v0h0c.09.1.12.06.22-.07s0,0-.2,0v0l.07-.05v0c-.16,0-.16,0-.17-.21.11,0,.16.14.28.11,0-.23,0-.48-.17-.38s-.22,0-.07-.18a.77.77,0,0,0,.53,0,.38.38,0,0,0,0-.19c-.07-.06-.16,0-.23-.06v0a1.6,1.6,0,0,0,.21-.05c-.1-.11-.1-.11-.42.06,0-.18.07-.24.39-.45,0-.07.1-.08.13-.14l-.07,0c.08-.13.3,0,.34-.15s0,0-.18,0l0,0c.23,0,.25,0,.31-.1l0,0h-.08c.21-.2.59.07.76-.27a1.87,1.87,0,0,0-.56-.09c-.1,0-.16.12-.26.13s0,0-.14-.07c-.21.08-.39.26-.63.29.07-.24.64-.24.44-.46-.14,0-.24.15-.4.12l0-.08c-.25-.08-.5.07-.76,0v0c.32-.17.71.1,1-.14,0-.16-.81-.28-1.45-.28a2.67,2.67,0,0,0-.57.16c-.08-.07-.13-.12-.59-.08a.17.17,0,0,1,.06.06c-.07.1-.18,0-.27.06v0l.21.14v0c-.25.08-.37-.24-.61-.2,0,0,0,0,.07.17-.13.11-.21-.18-.36-.1,0,.15,0,.15,0,.16h0l0-.15c-.34-.11-.79.08-.73.25s0,.12-.08.13L11.56,7s-.52.22-.55.35,0,0,0,0a1.69,1.69,0,0,0,.24,0v0s-.3.21-.33.21a3.8,3.8,0,0,0-.74.25c-.23.22.24.3.24.31s.22-.1.31,0c-.2.14-.46.06-.65.21v0a.7.7,0,0,0,.26.07s-.08,0-.17.18l0,0a4.29,4.29,0,0,0,.55-.08c.15,0,.29-.09.38,0s.12.22.22,1.21c-.42,0-.24.43-.24.43l0,0c.07,0,.07,0,.17-.12l0,0a1.69,1.69,0,0,1,0,.23l0,0c.24-.07.17.12.16.13l0,0c-.13,0-.19-.29-.34-.18s-.18.54-.18.55l0,0a1.07,1.07,0,0,0,.46-.22l0,0c-.07.26-.12.41-.25.34s-.31.25-.32.37-.11.22-.11.35.13.3.15.46a4.51,4.51,0,0,0,0,.52,2.73,2.73,0,0,0,.3.8l.32,0v0c-.08.15.1.13.1.13s.13,0,.21-.34l.22-.32v0a.12.12,0,0,1-.07-.11l0,0c.27,0,.38-.57.38-.58l-.07-.05v0l.16,0a.46.46,0,0,1,0-.18c.16-.06.32.08.48,0,.64-.4.72-.71.72-.72l.08,0c.11,0,.25.12.35,0a.39.39,0,0,1,.32-.19.3.3,0,0,0,.2,0S15.18,10.84,15.16,10.7Z"/><path class="cls-3" d="M40.27,12.41c0-.12,0-.12-.1-.39a.82.82,0,0,1,.17.2h0c-.14-.29-.27-.58-.44-.89a2.71,2.71,0,0,0-1-.6c.16.35.16.35.16.39a.41.41,0,0,1-.23-.09l0-.13-.08-.12a.39.39,0,0,1-.17.19c-.22-.08-.22-.08-.39,0s-.12-.09-.28-.44c-.34-.13-.34-.13-.61,0-.31-.28-.31-.28-.44-.34v-.14s-.63-.18-.8-.2l-.1.09a.55.55,0,0,0,.1.25c-.26.06-.26.06-.34.17a.72.72,0,0,1-.36-.22l0,.3h-.14c-.25-.23-.25-.61-.51-.83a3.41,3.41,0,0,0-.53-.08,1.84,1.84,0,0,0,.09.25c-.12,0-.12,0-.52-.07l0-.12a1,1,0,0,0-.42-.08l-.08.11c-.12-.12-.13-.13-.49-.2l0,.13a.54.54,0,0,1-.34.22l0-.13c.16-.23.57-.28.51-.67a.63.63,0,0,0-.7-.49l-.11.08c-.14-.19-.14-.19-.31-.19V8.25c-.09,0-.16-.13-.26-.13s-.13.14-.18.21,0,.18.06.26a6,6,0,0,1-.85.14l0,.13a3.66,3.66,0,0,0-.59.32,1.7,1.7,0,0,0,.15.22c-.19.25-.51.06-.72.23.19.26.51.42.59.77l-.12,0a2.46,2.46,0,0,0,0-.26l-.12.05c-.37-.25-.4-.28-.61-.33a.37.37,0,0,0,.12.22,1.22,1.22,0,0,1-.26-.06c.07.18.26.23.37.36a2.18,2.18,0,0,1-.48-.19c.06-.25.06-.25-.15-.48a.66.66,0,0,0,.11.24.47.47,0,0,1-.19.18c.18.54.67.85.93,1.33l-.11.07c-.29-.54-.29-.54-.47-.42.17.28.17.28-.15.73l-.28,0c.34-.69-.13-1.36,0-2-.23-.25-.32-.21-.47-.15-.19.5-.19.5-.28.52,0,.3.45.84.45.85v.13l-.14,0c-.39-.23-.84-.36-1.22-.63v.15c.28.23.28.23.31.27a.65.65,0,0,0-.16.21l-.18-.19a.6.6,0,0,0-.21.14l-.26,0v.14a.75.75,0,0,1-.26,0l.1-.09V11.1h-.13c-.16.14-.44.11-.52.36l-.12.05c-.07.24-.07.24-.21.32L25,11.67v-.13l.12-.08,0-.13c-.12-.11-.12-.11-.35-.17a.42.42,0,0,0,.05.25c0,.06,0,.06,0,.5a.53.53,0,0,1-.25,0l-.34.25c0,.23,0,.23-.08.35-.13,0-.24-.14-.37-.18l-.1.09a1,1,0,0,0,.24.17l-.05.13c-.11,0-.23,0-.46-.22,0-.39,0-.39-.33-.69.42-.12.95.61,1.22.1s-.79-.9-.8-.9-.27,0-.4,0v-.13c-.22-.05-.44.05-.64-.05l.25-.07a.36.36,0,0,0-.11-.23l-.13,0-.1-.09a.58.58,0,0,0-.19.19l-.1-.25-.13,0c-.07.15-.08.17-.3.21l-.1-.08a.67.67,0,0,0-.1.23l-.14,0a.45.45,0,0,0-.23-.11c0,.18,0,.18-.28.25a.46.46,0,0,1-.12.24c-.2-.09-.2-.09-.49.13l.11.08.12-.06,0,.14s-2.16,1.94-1.59,2.75c1,.15,1,.15,1.14.53-.08.16-.26.26-.25.46.17,0,.31-.13.49-.11l.41-.35a4.72,4.72,0,0,0,.38-1c-.21-.16-.21-.16-.26-.32a6.35,6.35,0,0,0,.64-1.23c.17-.1.42-.24.64,0l0,.13c-.12.28-.48.33-.6.61s.09.55,0,.82c.41.28.81-.18,1.22,0l0,.12c-.25.17-.55.06-.82.12l-.07.11c.11.39.11.39,0,.52l-.13,0a.37.37,0,0,0-.22-.1c-.11.26-.06.55-.2.8-.17,0-.17,0-.36-.13l-1.24.3c-.15-.21-.15-.21-.12-.37h.13a2.48,2.48,0,0,0,0-.27l.12-.07a1.06,1.06,0,0,0-.09-.25l-.13,0c-.08.06-.08.06-.18,1l-.11.07-.12,0c-.32.2-.44.66-.88.7l-.1.12.05.14a1,1,0,0,1-.53.2l-.18.18-.28-.07v.16c1,.93.12,1.26.11,1.26-.29,0-.57-.05-.86,0,0,.29,0,1.15,0,1.15a.71.71,0,0,0-.06.25.58.58,0,0,0,.26,0c.86.91-.87,1.55-1.06,2.43l-.12.05c-.09.3-.32,1.28-.32,1.28a.58.58,0,0,1,0,.14c.11.43-.13.85-.08,1.28s.64.58.64,1.06a2.7,2.7,0,0,1,.73.72c.75,0,1.55-.8,2.27,0,.65,0,.65,0,.73.1a.57.57,0,0,1,0,.14c.05.26-.24.44-.19.7s.32.37.43.58a7.43,7.43,0,0,1,.5,1.45,1.51,1.51,0,0,0-.38,1.16,2.5,2.5,0,0,1,.46,1.19A7.19,7.19,0,0,0,21,33.76c.77,0,2.2.05,2-1.63.16-.11.39-.09.51-.27s-.24-.46-.1-.73c.22-.43.77-.53,1-1,.31-.69-.36-1.35-.09-2,.37-1,1.45-1.49,1.81-2.51.13-.38.12-.4.06-.56-.37-.11-.72.29-1.1,0s-.52-1.1-1-1.52c.14-.92-.73-1.48-.83-2.32.11.14.13.34.27.46l.13,0c.81.56.48,1.77,1.31,2.32a4.38,4.38,0,0,0,.15.88l.12,0c1.58-.89,1.58-.89,2-1a.63.63,0,0,0,.12-.28c0-.34.45-.42.39-.78s-.35-.31-.58-.37a2.45,2.45,0,0,1,0-.4c-.74.47-.74.47-.85.5a3.68,3.68,0,0,1,.08-.58,1.71,1.71,0,0,0-.18.2c-.12-.24-.28-.47-.39-.72a.5.5,0,0,1,.31-.25c.2.19.28.49.55.62.65.32,1.39.13,2.05.36.29.1.35.44.62.57l-.13,0c0,.18,0,.18.21.32a.59.59,0,0,0,.22-.12c.55.8-.46,2.24.78,2.66.39-.56.37-1.28.76-1.83s1-.63,1.3-1.1l.38,1.4.08.11c.17-.05.17-.06.25-.28l.11.08c.23,2.4.23,2.4.45,2.93H33.6a1.28,1.28,0,0,1-.46-.65.87.87,0,0,1-.24-.1l-.11.09a1.68,1.68,0,0,0,.42.66.77.77,0,0,1,0,.26c.31.33.11,1.09.74,1.11a3.49,3.49,0,0,0,.17-.68L34,27.57l-.11.08c-.22-.16-.07-.39-.11-.59.32-.32.15-.58-.21-1.17-.2-.33-.2-.33,0-1.21,0,0,.67.43.47.94.45-.16,1.15-1,.59-1.53s-.27-1,.25-1.06l0,.12a3.92,3.92,0,0,0-.26.34.49.49,0,0,0,.14.21.9.9,0,0,0,.1-.09c.16-.16,0-.42.19-.59s.54-.17.74-.39a2.44,2.44,0,0,0,.26-.33l.33-1.07-.08-.1c.19-.49-.55-1.27.12-1.51a1.7,1.7,0,0,0-.19-.19c-.07.05-.15.12-.22.16-.25-.21-.25-.34-.24-.46s.25-.27.38-.4l.11.08a1.17,1.17,0,0,1,0,.27l.12.05a.76.76,0,0,1,.23-.13c.22.4.13.88.34,1.28.51-.31.36-.57.13-1s.18-1.08.19-1.08a.32.32,0,0,1,.23.08c1.06-.53.14-1.68.56-2.44a1.36,1.36,0,0,0-.27-.49.53.53,0,0,0-.2.16.93.93,0,0,1-.36-.4c.28-.84.28-.84,1.07-1.22.18.13.37.27.54,0-.23-.81.12-.7.28-.61a.71.71,0,0,0,.06.25l.12-.07a1.9,1.9,0,0,0,0-.42l.14,0a.74.74,0,0,1,0,.26,4,4,0,0,0,.13,2.83c.22-.19.14-.7.13-.76l.12-.07c0-.17-.08-.34,0-.51-.07-.1-.07-.1-.11-.37l-.12-.05c0-.18,0-.36,0-.55s.24-.09.35-.16l.13.06a2.6,2.6,0,0,1,.26-.65h.13l0-.14c-.13-.17-.25-.36-.37-.54ZM23.51,21l-.12,0-.23-.06c-.21,0-.37.21-.6.11s-.35-.15-.49-.11c-.19-.38-.91-.33-.93-.27s.18.42,0,.47-.74-.14-.79-.31-.08-.21-.46-.24c-.15,0-.43,0-.32-.41v0c0-.08-.07-.13-.05-.21s0-.08.17-.21l0,0c-.12,0-.22-.06-.33-.05s-.23.08-.35.1c-.52,0-.54,0-.6,0-.22-.08-.48.1-.81.33a.65.65,0,0,1-.64-.06c0-.07-.06-.09-.09-.09.21-.11.46-.12.66-.25,0,0,.33-.3.33-.39-.39-.29.24-.58.25-.58.22-.05.22-.05.2-.31s0-.29.27-.3.29.09.44,0,.15-.31.34-.25a.49.49,0,0,1,.16.24,2.37,2.37,0,0,0,.33.39c.17.17.4.28.58.45l0,0c.11.16-.09.33,0,.49h0a1.51,1.51,0,0,0,.18-.31c-.25-.26,0-.28,0-.28s.1.08.16.11l0,0c-.05-.21-.34-.2-.39-.42a.66.66,0,0,0-.14,0S19.91,18,19.9,18c-.16-.26-.12-.29-.09-.31s.29-.22.29,0c0,0,0,.06,0,.08.25.35.75.38.95.77a.26.26,0,0,1,0,.17.23.23,0,0,0,0,.18l0,0c.09.17.29.26.34.46s-.05.16,0,.24a.31.31,0,0,0,.12.11c.13,0,.17-.2.3-.25s0-.05.05-.17a.23.23,0,0,0-.21-.08,1,1,0,0,1-.09-.36l0,0s.06.07.11.09.06-.16.17-.17a3.41,3.41,0,0,1,.86.05v0c-.16.09-.36.06-.53.15s-.05.12,0,.15.15.06.09.39l0,0c.1.08.24.07.34.14s.07.15.14.2.1-.17.18-.23.2.23.38.15.4-.11.42-.07C23.93,20,23.51,21,23.51,21Zm1.16-2.27a1.16,1.16,0,0,1-.44.09c-.34-.07-.36-.1-.41-.17s-.06-.1-.12-.11a.52.52,0,0,0-.56.08.31.31,0,0,1-.23.08c-.45,0-.57-.32-.48-.41s.14-.14.13-.23,0-.33.08-.22l0,0s.07-.09.06-.18a.16.16,0,0,1,0-.09s.09,0,.12-.06a.29.29,0,0,1,.07-.12v0a.14.14,0,0,1,.1,0c.11,0,.11.06.12.07s0,0,0,.06.09,0,.12,0,.06,0,.06,0,0,0,0,0a.19.19,0,0,1,0,.07s-.11,0-.16,0h0c.05.05.14,0,.19.08s-.06.11,0,.16.05,0,.1,0,.1-.09.17-.12.13,0,.2,0l0,0v0c-.09,0-.2,0-.28,0s-.17-.13,0-.18.31-.18.47-.23.28-.05.3,0a.16.16,0,0,1-.15.06h0c0,.09,0,.17,0,.26s-.11,0-.13.13a.19.19,0,0,0,0,.1c.2.23.51.35.67.62C24.8,18.41,24.69,18.66,24.67,18.68Z"/><path class="cls-3" d="M30.86,26.16c.25-.19,0-.54-.15-.71C30.69,25.6,30.59,26.35,30.86,26.16Z"/><path class="cls-3" d="M16.94,15.16a.41.41,0,0,0-.14,0,.16.16,0,0,0-.09,0h0c-.05,0-.06.08-.08.15s-.07.17-.08.17,0,0,0,0-.15-.07-.16,0-.07.23,0,.26.16,0,.18.06,0,0-.13.11a.2.2,0,0,0,0,.29s.05,0,.11,0l.18-.07a2,2,0,0,0,.24,0,.06.06,0,0,0,.05-.08c0-.11,0-.11,0-.13a.76.76,0,0,1,.06-.16.75.75,0,0,1,0-.15S17.23,15.28,16.94,15.16Z"/><path class="cls-3" d="M17.41,14.36s.1-.08.1-.16a.88.88,0,0,0-.21,0h0s-.08.06-.12.17a.85.85,0,0,1-.08.17v0c-.05,0-.1.08-.11.09s.08.09.07.13l-.08,0c0,.06.08.05.07.1S17,15,17,15s0,.06,0,.06.13-.1.16,0-.12.11-.1.21.17-.09.24,0a.42.42,0,0,1,.08.4s0,0,0,0a.17.17,0,0,0-.22,0c0,.06.06.07.09.1s0,0,0,.13l-.06,0c-.17.06-.1.12-.06.13l.25,0a.07.07,0,0,1,.06,0s0,0,0,.07-.07,0-.11,0a.37.37,0,0,0-.36.29.28.28,0,0,0,.12,0,.32.32,0,0,0,.16-.08c.05,0,.09,0,.24-.07a1.7,1.7,0,0,0,.39,0s.21-.11.19-.14-.09,0-.09-.11,0,0,.1-.1.05-.23,0-.25-.17,0-.2-.11-.05-.22-.08-.23a.23.23,0,0,1-.08-.07h0L17.66,15c0-.09-.26-.1-.17-.18s.26-.22.23-.32,0,0-.17,0-.18,0-.2,0S17.35,14.4,17.41,14.36Z"/><path class="cls-3" d="M20.23,19.34h-.16l-.16.07.07.07c.06.05.13.07.18.12s.05.06.07.06.11,0,.12-.08a.9.9,0,0,0,0-.23S20.32,19.34,20.23,19.34Z"/><path class="cls-3" d="M19.39,18.49s0-.08,0-.12v0c0-.07-.07-.16-.1-.16s-.16.24-.16.24,0,0,0,.06.11.14.06.19-.06.06-.08.32a.52.52,0,0,0,.06.27s.17-.33.17-.4,0-.05,0-.12a.12.12,0,0,0,0-.09C19.43,18.59,19.38,18.55,19.39,18.49Z"/><path class="cls-3" d="M26.74,8.69l0,0c-.11.06-.19.14-.3.21a.22.22,0,0,1-.18.06c-.05,0-.09,0-.09,0s.13.14.09.25-.24.14-.31.26.19.05.17.15v0l-.15,0-.14.09c-.05,0-.06,0,.05.12s.11.08.09.1-.11,0-.16,0,0,0,0,.08-.11.12,0,.13.13,0,.19,0,0,0,0,.09-.06.19.07.17.36.19.52,0c0,0,0,0,0,0s-.33-.28-.29-.41a3.88,3.88,0,0,1,.44-.82.47.47,0,0,1,.19-.16c.06,0,.07-.1.12-.15a.17.17,0,0,1,.17,0,.18.18,0,0,0,.14,0h0l.13-.1.21-.1h0s.23-.32-.17-.32c-.12,0-.14,0-.14.17s0,.07,0,.08l-.42.08A.11.11,0,0,0,26.74,8.69Z"/><path class="cls-3" d="M20.27,7.87c0,.06-.1,0-.08.11a.16.16,0,0,0,.11.08c.09,0,.09,0,.14.1a.43.43,0,0,1,.07.17s0,.05,0,.07l.05,0,.17.09h.12a.06.06,0,0,0,.05,0c0-.05,0-.12.05-.17s.05-.05.07-.09,0-.13.07-.18a.88.88,0,0,1,.12-.15s0-.06.07,0,0,.09,0,.14a.8.8,0,0,1,.08.16v0s0,0,0,0,0,0-.05,0a.29.29,0,0,0,.19,0s0,0,0,.06h.06c.12,0,.15-.1.16-.13s0,0,0,0-.11-.07-.15-.11S21.5,8,21.45,8s0,0,0-.06l-.11-.11c-.15-.11-.18-.09-.23-.06s0,0-.07,0,0-.11,0-.15a.76.76,0,0,0-.14-.11h0s-.17,0-.19.07.15.12.11.24-.13-.06-.24-.22l-.12.1c-.14,0-.17,0-.17,0h0a.29.29,0,0,0,.14-.14c-.07.07-.24,0-.26.15v0C20.15,7.72,20.24,7.77,20.27,7.87Z"/><path class="cls-3" d="M21.05,7.5s.06.07.11.08l.19,0c.07,0,.07,0,.07,0a.11.11,0,0,1-.09.06l-.11,0a5.9,5.9,0,0,0,.66.1l.06,0a1.42,1.42,0,0,0,.13-.12c.05,0,.1,0,.14-.07s0,0,0,0a.27.27,0,0,0-.13-.13c-.07,0-.12,0-.18,0s-.24,0-.24-.07,0,0,0,0a.53.53,0,0,0-.14.1s0,0,0,0h0s-.07,0-.11,0-.06,0-.07,0-.05-.11-.09-.12-.06.11,0,.14h0c-.05,0-.12,0-.17,0S21,7.46,21.05,7.5Z"/><path class="cls-3" d="M25.54,11.16a.13.13,0,0,0,.06-.05s.06-.09,0-.12,0,0-.08-.09l-.05,0h0a.28.28,0,0,0-.14.06s-.05.11,0,.16S25.52,11.17,25.54,11.16Z"/><path class="cls-3" d="M30.15,7.56s0,0,.06,0,.08,0,.1,0,0,0,0,0,0,.11.05.13a1.37,1.37,0,0,0,.21,0c.07,0,.12.06.19.08s.29.06.29,0,0,0,0-.07c-.15-.19-.15-.2-.14-.24s0-.06-.11-.16H30.7a.38.38,0,0,1-.27,0c0-.06,0-.06,0-.07s0,0,0,0a.08.08,0,0,0,0-.09h0s-.07,0-.09,0S30.34,7,30.31,7a.16.16,0,0,0-.1,0,.39.39,0,0,0-.26.12s.09.22.09.22v0s-.09-.08-.12,0,0,.14.06.16Z"/><path class="cls-3" d="M31.1,8.07a.08.08,0,0,0,.07,0l.07,0L31.45,8l0,0h0s.11-.11.1-.15-.07,0-.12-.07l-.11,0h-.07s-.11-.08-.15-.08-.08,0,0,.22a.16.16,0,0,1,0,.1C31.14,8,31.11,8,31.1,8.07Z"/><path class="cls-3" d="M35.85,9.51a0,0,0,0,0,0,0l0,0s0,.05,0,.07l0,0,.11,0,.05,0s0,0,0,0V9.61l0,0a.52.52,0,0,0-.2-.1C35.85,9.48,35.85,9.5,35.85,9.51Z"/><path class="cls-3" d="M35.27,9a.46.46,0,0,0,.11.12l.18.1s0-.06,0-.1l.11,0a.25.25,0,0,0,.22,0A.14.14,0,0,0,35.94,9s0-.13-.06-.15a1.3,1.3,0,0,0-.23-.07s0,0-.08,0l-.08-.06s-.05,0-.06,0,0,0,.07.16,0,0,0,0l-.22-.16s-.06,0-.08,0-.05.07-.05.09,0,0,0,0A2.21,2.21,0,0,0,35.27,9Z"/><path class="cls-3" d="M36.07,9l0,.06,0,0h0l.11,0a.31.31,0,0,1,.1,0h.07c.08,0,.12,0,.11,0a.45.45,0,0,1,0-.11s0,0,0,0H36.4s-.1,0-.11,0,0,0-.06-.07l-.09,0V9s0,.05,0,0-.1-.07-.1-.07,0,0,0,0S36.06,9,36.07,9Z"/><path class="cls-3" d="M39.23,10.39a.51.51,0,0,1,.07.15c.05,0,.05,0,.07,0h.08l-.15-.26-.06,0s0,0,0,0,0,0,0,0l0,0h0Z"/><path class="cls-3" d="M25.66,7.27a.09.09,0,0,0,.09,0l.09-.07h.05s0,0,0,.09,0,.07,0,.12a.18.18,0,0,0,.08,0s.06,0,.09,0h.09l.16-.07s-.09,0-.22,0h0a.21.21,0,0,1,.07-.08s0,0,0,0a.12.12,0,0,0-.06-.08s.06,0,.05-.06,0,0-.05-.06,0-.07,0-.11a.07.07,0,0,0-.06,0,.16.16,0,0,0-.08,0s0,.06,0,.1,0,0-.16,0a.1.1,0,0,0-.07,0s0,.07,0,.1-.11,0-.16,0Z"/><path class="cls-3" d="M25.59,7.35h0l0,0h0a.11.11,0,0,0-.08,0v.06S25.61,7.38,25.59,7.35Z"/><path class="cls-3" d="M24.62,7.29l.08,0,.11,0s-.08,0-.12,0a.2.2,0,0,0,.11.06s.06,0,.08,0l.09,0h0s.07,0,.1,0,.08.08.15.08.08,0,.08-.06h-.09l-.07,0h-.08s0-.08.13-.12.07,0,.05,0l-.05,0h-.09l-.07,0h0s0,0,0,.07,0,0,0,0-.07.06-.09,0,0-.06-.06-.07a.21.21,0,0,0-.13,0h0l-.08,0a.78.78,0,0,0-.14,0s-.05,0,0,.06S24.52,7.32,24.62,7.29Z"/><path class="cls-3" d="M26.26,7.23l.1.09h0a0,0,0,0,1,.05,0h0s.11-.05.11-.08-.06-.08-.06-.08l-.05,0-.07,0h-.06s0,0,0,0,0,0,0,0,0,0,0,0h0Z"/><path class="cls-3" d="M26.9,7.12a.15.15,0,0,0-.09,0h0a.08.08,0,0,0-.07,0h-.1a.32.32,0,0,0,0,.09C26.86,7.32,26.91,7.15,26.9,7.12Z"/><path class="cls-3" d="M38.15,15.71a.19.19,0,0,1,0,.19c0,.1,0,.1.06.21s.09.11.07.19v0a.56.56,0,0,0,0,.29c0,.09,0,.09,0,.13a1.41,1.41,0,0,1,0,.2,2.82,2.82,0,0,1,.07.31,1.09,1.09,0,0,0,0,.18,0,0,0,0,0,0,0s0-.07.07-.08,0,.06.07.08,0,0,0-.06-.13-.24-.14-.38,0-.32.09-.32,0,0,0-.06c0-.21-.17-.38-.22-.59s-.07-.33-.12-.5v0c0-.07-.05-.12-.06-.12h0A.42.42,0,0,0,38.15,15.71Z"/><path class="cls-3" d="M38.75,18.29h0l.1,0s0-.26-.06-.28-.07,0-.1,0l-.1-.09c0-.05,0-.05-.08-.16s0-.1-.06-.1,0,0,0,0a1.68,1.68,0,0,0,0,.33c0,.05,0,.05,0,.17s0,0-.05,0,0,0,0,0l-.09.19a1,1,0,0,0,.1.26s.07,0,.07-.06a0,0,0,0,0,0,0,.11.11,0,0,1,0-.09c0-.08,0-.13.06-.12s0,.06,0,.08,0,0,0,0,.05,0,.07,0,.07.12.09.09S38.66,18.32,38.75,18.29Z"/><path class="cls-3" d="M38,20.06s0-.11-.09-.11-.05.06-.09.08-.08,0-.12,0a.54.54,0,0,0-.18.28s.1,0,.11,0a.11.11,0,0,1,.09-.06.22.22,0,0,1,0,.25s0,0,0,.06.07,0,.08,0,0-.08,0-.13l0,0s.08,0,.09,0,0-.09,0-.13a0,0,0,0,1,0,0c.11,0,0,.16.1.22s0,0,0,0a.54.54,0,0,1,.09-.17c0-.06,0-.1,0-.16a.37.37,0,0,1,.11,0s.06.06.09,0,.1,0,.09-.08a.15.15,0,0,1,0-.09c.06,0,0,.07.09.09a.73.73,0,0,0,.06-.14l0-.26c0-.12,0-.24,0-.36a1.53,1.53,0,0,0,.07-.29s-.06-.38-.12-.4h0c-.15,0-.12.14-.09.4a.78.78,0,0,1-.06.45.8.8,0,0,1-.17.21c0-.06,0-.12,0-.17h0C38.08,20,38.08,20,38,20.06Z"/><path class="cls-3" d="M37.43,20.47s0,0,0,0,0,.11,0,.11v0c0,.05.06.1.06.15a1.34,1.34,0,0,0,0,.2.05.05,0,0,0,.07,0l0,0s0,0,0-.06,0-.06,0-.08,0-.06,0-.07,0,0,0,0,0-.24-.08-.29a.15.15,0,0,0-.06,0S37.47,20.45,37.43,20.47Z"/><path class="cls-3" d="M36,28.31v0Z"/><path class="cls-3" d="M36.05,27.06a.08.08,0,0,0-.14,0,1,1,0,0,0-.1.28.81.81,0,0,1-.07.23c0,.06,0,.12,0,.17s-.08.05-.1.1.07.14.07.22-.06.21-.08.31h0s0,0,0,0,0,0,.09,0h0a1,1,0,0,0,0-.2.77.77,0,0,1,.12-.33c.07.11,0,.23,0,.35s.08.1.1.16.09-.06.11-.12a.16.16,0,0,0-.05-.13C36,28,36,28,36,27.8s.1-.29.12-.29.09-.05.1-.07h0s0-.08-.09-.07-.05,0-.16.14,0,.06-.12,0,0-.26,0-.28.21-.06.36,0,.07,0,.11,0,.27-.27.18-.27a.43.43,0,0,0-.17.13s0,0-.16,0h-.13S36.06,27.08,36.05,27.06Z"/><path class="cls-3" d="M36.79,27.8s0,0,0,0,0,0,0,0a.15.15,0,0,1-.08,0l0,0a.34.34,0,0,0-.15.09s0,.12,0,.13h.12a.1.1,0,0,1,.07-.06s0,.06.07.05h0A.19.19,0,0,1,37,28s0,0,0,0,0,0,0,0,0-.15,0-.16l-.15,0S36.8,27.78,36.79,27.8Z"/><path class="cls-3" d="M36.33,28.82a.12.12,0,0,0-.06,0,.17.17,0,0,0-.07.08.08.08,0,0,1-.07.06h0s0,0,0,0h0s-.09.19-.1.19a.07.07,0,0,0,0,0h0l.08-.07.1-.05.1-.11.08-.06a.07.07,0,0,0,0,0c0-.05.07-.07,0-.09Z"/><path class="cls-3" d="M35.7,29.11h0s0,0,0,0l0,0h0s0,0,0,0h-.05l0,.07a0,0,0,0,0,0,.05l0,0,0,0s0,0,0,0a.06.06,0,0,0,.07-.05h0C35.7,29.12,35.7,29.12,35.7,29.11Z"/><path class="cls-3" d="M36.91,26.81c-.08,0-.1,0-.11.05s0,0,0,.15a.19.19,0,0,1,0,.16.47.47,0,0,0-.09.19s0,.13,0,.18a.07.07,0,0,0,.12,0,.23.23,0,0,0,0-.09s0,0,0-.05a.18.18,0,0,1,0-.08s0,0,.07-.08,0,0,0,0l0-.14a1.54,1.54,0,0,0,0-.16C37,26.81,37,26.81,36.91,26.81Z"/><path class="cls-3" d="M36.86,25.47s0,0,0,0h0s-.07,0-.07.09,0,0-.14.11-.07,0-.08,0,0-.06,0,0a1.32,1.32,0,0,0-.16.12.2.2,0,0,0-.06.09V26h0s0,0,.07-.07.11-.13.14-.13.1.12.06.18,0,.05,0,.06,0,.07,0,.12a.35.35,0,0,1,0,.11h0a.27.27,0,0,0,.07-.27s.06,0,.06,0,0,.05.06.06,0-.26,0-.26a1,1,0,0,0,0-.17A.33.33,0,0,0,36.86,25.47Z"/><path class="cls-3" d="M36.11,24c0,.09.07.14.09.21s0,.12,0,.17a2.61,2.61,0,0,1,.06.27c0,.07-.1.14,0,.19s.11,0,.12-.06.18,0,.25,0a.26.26,0,0,1-.09.34c0-.05,0-.15-.06-.15a.21.21,0,0,0-.11.15c0,.08.06.11.07.17a1.1,1.1,0,0,0,0,.18h0v0c.09-.06.05-.16.07-.24s.05,0,.05,0a.28.28,0,0,1,0,.12h0c.09-.08.25-.47.13-.62h0s0,0,0,0h0c-.07-.08-.11-.19-.18-.27s-.14,0-.17-.1,0-.25.06-.31.11-.07.06-.49c0,0-.1-.12-.14-.12h0c0,.12.05.23,0,.35a.13.13,0,0,1-.12.08S36.11,24,36.11,24Z"/><path class="cls-3" d="M36.05,25.1c0,.07-.08.14-.12.2a1,1,0,0,1-.16.19l-.05.05a.11.11,0,0,0,.05.15.77.77,0,0,0,.23-.26.6.6,0,0,0,0-.33Z"/><path class="cls-3" d="M36.37,22.94c0-.07,0-.15,0-.22s.06-.15.07-.22,0-.06,0-.09,0-.22,0-.23a.38.38,0,0,0-.09.08v0a.61.61,0,0,1,0,.12.17.17,0,0,0-.06.08s0,.38,0,.43Z"/><path class="cls-3" d="M39.24,28h0s0,0,0,.06-.12.24-.16.26a.24.24,0,0,1-.16,0h-.08s0,.08,0,.1a.32.32,0,0,0,.25,0,1,1,0,0,0,.15-.14A1,1,0,0,0,39.3,28S39.26,28,39.24,28Z"/><path class="cls-3" d="M39.46,31.06s0,.39.09.38a1.91,1.91,0,0,0,0-.3S39.49,31.06,39.46,31.06Z"/><path class="cls-3" d="M11.75,37.07s0,0,0,0,0,.11,0,.15,0,.08,0,.1,0,0,.07,0,0,0,.05,0a.14.14,0,0,0,.11-.05l0-.08,0,0A.69.69,0,0,0,11.75,37.07Z"/><g class="cls-4"><path class="cls-5" d="M21.07,0a20.09,20.09,0,0,0-2.33.13c10.6,1.16,17.43,10.14,17.43,21s-6.83,19.89-17.43,21a22.58,22.58,0,0,0,2.33.13A21.18,21.18,0,1,0,21.07,0Z"/></g></g></g></g></svg>