<svg xmlns="http://www.w3.org/2000/svg" viewBox="0 0 42.4 44.9"><defs><style>.cls-1,.cls-5{opacity:0.4;}.cls-2{fill:#ddd;}.cls-3{opacity:0.7;}.cls-4,.cls-5,.cls-6,.cls-7{fill:#5e5e5e;}.cls-6{opacity:0.6;}.cls-7{opacity:0.5;}.cls-8{opacity:0.2;}.cls-9{fill:#222;}</style></defs><g id="Layer_2" data-name="Layer 2"><g id="landscape"><g id="Text"><ellipse class="cls-1" cx="21.2" cy="42.4" rx="19.95" ry="2.49"/><circle class="cls-2" cx="21.2" cy="21.2" r="21.2"/><g class="cls-3"><path class="cls-4" d="M41.41,20.21a27.83,27.83,0,0,1-1.77-2.54c-.71-.85-1.69-1.13-2.12-2.12-.14-.43.14-1-.35-1.27s-1.2.14-1.63.07c-1.27-.14-1.41-.92-1.27-2.12s.71-1.7,0-2.76-1.77-.92-3-.78A7.49,7.49,0,0,1,30,9.05c-.64,0-.64-.22-1.2-.57C28,8.13,26.57,8.06,26,7.35c-1.06-1.27-1.34-.42-4-.35-2,.07-1.27,2.89-2.89,3.74-1.42.71-2,1.35-4,2.41-1.2.7-1.91-.78-3.39-2.55l-.07-2.68c-.43-3,3-2,4.24-3.47C17,3.25,15.33,3,14.34,3c-.49,0-.92.28-1.41.28S11.94,3,11.44,3C10.45,3,9.75,4.1,9,4.59S7.42,5.65,6.71,6.22A6,6,0,0,0,4.94,8.83c-.42,1-.42,2.12-.85,3S3,13,3,14.28a10.09,10.09,0,0,0,.57,2.89c.21.85.71,1.7.92,2.48.21,1.2-.36,2.12-.29,3.32.08,1.62,2.55,3.67,4.17,3.89.85.07,2-.92,2.48-.78,1.27.28-.21,1.76-.64,2.26-.7.78-1.48,1.55-1,2.54S11,32.23,12,32.37c2.75.35,2.26-1.56,2.12-3.68-.07-1.06.63-2.12,1.77-1.27A2.44,2.44,0,0,1,16.39,30c-.28.63-1.7,1.9-1.34,2.61.42.92,1.91.21,2.54.07.78-.21,1.56-.42,2.26-.56,1.06-.15,2,.14,2.19-1.06.15-.85-.49-2.12-.63-3.11a11.49,11.49,0,0,1-.21-1.63c.07-.64.35-.85.49-1.41.28-1-.42-2.33.21-3.18S23.46,21,24,20c.5-.78.92-2.12,1.91-2.33s1.77.78,2.76.78c1.48,0,1.69-.36,2.33-1.42s1.55-.7,1.27.85c-.21,1.06-1.34,1.77-.78,2.9.43.85,1.7,1.13,2,2.12.36,1.2-.77,1.55-.21,2.82.14.43.57.64.71,1.06s.07,1.21.28,1.7c.71,2.19,4.52,1.7,3.53-1.06-.35-1-1.69-1.34-2-2.26a7.22,7.22,0,0,1,.91-2.9c.71-1,1.77-.85,1.84.21,0,.5-.35.85-.28,1.42s.71,1,.78,1.48c.35,1.2-.29,2.19,1.48,1.7a2.58,2.58,0,0,0,1.25-.86A21.11,21.11,0,0,0,42.4,21,11.36,11.36,0,0,1,41.41,20.21Z"/></g><path class="cls-5" d="M32.72,34.63c-1.88,0-4,1.38-4,3.25A3.53,3.53,0,0,0,30,40.5a21.27,21.27,0,0,0,5.53-3.66A2.83,2.83,0,0,0,32.72,34.63Z"/><path class="cls-6" d="M26.06,27.28a1.31,1.31,0,0,0-1.4,1.4,1.62,1.62,0,0,0,3.22-.14C27.88,27.69,26.91,27.28,26.06,27.28Z"/><path class="cls-7" d="M20.26,2.54a1.31,1.31,0,0,0-1.4,1.4c0,.85,1.11.49,2,.49A1.49,1.49,0,0,0,22.38,3C22.38,2.12,21.11,2.54,20.26,2.54Z"/><path class="cls-7" d="M31.64,5.2c-.67-.51-2.36-1.37-2.88-.69s1.93,1.1,2.61,1.62,1.18,1.37,1.69.7S32.32,5.72,31.64,5.2Z"/><path class="cls-6" d="M20.09,36a2.35,2.35,0,0,0-2.17,2.3,2.23,2.23,0,0,0,2.31,2A3.5,3.5,0,0,0,23.1,37.6C23.1,36.48,21.29,36,20.09,36Z"/><g class="cls-8"><path class="cls-9" d="M21.1,0a19.85,19.85,0,0,0-2.33.13C29.38,1.29,36.22,10.28,36.22,21.2S29.38,41.11,18.77,42.28a22.29,22.29,0,0,0,2.33.12A21.2,21.2,0,1,0,21.1,0Z"/></g></g></g></g></svg>