<?xml version="1.0" encoding="UTF-8"?><svg id="Layer_2" xmlns="http://www.w3.org/2000/svg" viewBox="0 0 69.23 51.93"><defs><style>.cls-1{fill:#ffcd05;fill-rule:evenodd;stroke:#000;stroke-linejoin:round;stroke-width:.96px;}.cls-2{fill:#ed1c24;}.cls-3{fill:#231f20;}</style></defs><g id="landscape"><g id="Text"><g><path class="cls-1" d="M61.6,2.89c0-1.32-1.08-2.4-2.4-2.4H2.89C1.56,.48,.48,1.56,.48,2.89V49.05c0,1.32,1.08,2.4,2.4,2.4H59.19c1.32,0,2.4-1.08,2.4-2.4V28.91l6.5-2.06c.87-.32,.87-1.55,0-1.87l-6.5-2.06V2.89Z"/><g><path class="cls-2" d="M31.29,9.12c.62,1.09,2.02,3.58,3.46,6.14l1.68-.68-4.48-7.95c-.36-.65-.96-.65-1.33,0l-7.5,13.3,2.67-1.07c1.95-3.46,4.58-8.12,5.49-9.74h0Z"/><path class="cls-2" d="M41.21,23.04l-4.77-8.47-1.68,.68c1.66,2.94,3.37,5.98,4.04,7.16h-15c.39-.69,1.13-2.01,2.01-3.57l-2.67,1.07-1.76,3.12c-.36,.65-.06,1.18,.69,1.18h18.46c.74,0,1.05-.53,.69-1.18h0Z"/><g><path class="cls-3" d="M32.07,20.08c0,.47-.38,.85-.84,.85s-.83-.38-.83-.85,.38-.85,.83-.85,.84,.37,.84,.85h0Z"/><path class="cls-3" d="M31.7,18.02c-.04,.27-.17,.43-.46,.43s-.45-.16-.48-.43l-.49-3.98c-.06-.45,.02-1.11,.97-1.11,.88,0,1.05,.55,.98,1.11l-.51,3.98h0Z"/></g></g><g><path d="M18.5,35.47c-.58-.31-1.04-.75-1.37-1.29s-.5-1.17-.5-1.85,.17-1.31,.5-1.85,.79-.98,1.37-1.29,1.24-.47,1.96-.47,1.38,.16,1.96,.47,1.04,.75,1.37,1.29,.5,1.17,.5,1.85-.17,1.31-.5,1.85-.79,.98-1.37,1.29c-.58,.31-1.23,.47-1.96,.47s-1.38-.16-1.96-.47Zm3.08-1.19c.33-.19,.59-.46,.79-.79,.19-.34,.29-.73,.29-1.16s-.09-.82-.29-1.16c-.19-.34-.45-.6-.79-.79s-.71-.29-1.12-.29-.79,.1-1.12,.29c-.33,.19-.59,.46-.78,.79-.19,.34-.29,.73-.29,1.16s.09,.82,.29,1.16c.19,.34,.45,.6,.78,.79,.33,.19,.71,.29,1.12,.29s.79-.1,1.12-.29Z"/><path d="M32.02,28.82l-3.03,7h-1.6l-3.02-7h1.75l2.13,5,2.16-5h1.61Z"/><path d="M38.02,34.52v1.3h-5.42v-7h5.29v1.3h-3.68v1.52h3.25v1.26h-3.25v1.62h3.81Z"/><path d="M43.77,35.82l-1.35-1.95h-1.49v1.95h-1.62v-7h3.03c.62,0,1.16,.1,1.61,.31,.46,.21,.81,.5,1.06,.88,.25,.38,.37,.83,.37,1.35s-.12,.97-.38,1.34c-.25,.38-.61,.67-1.07,.87l1.57,2.25h-1.74Zm-.41-5.37c-.25-.21-.62-.31-1.11-.31h-1.32v2.44h1.32c.49,0,.86-.11,1.11-.32s.38-.51,.38-.9-.13-.69-.38-.91Z"/><path d="M9.29,38.82h1.62v5.68h3.51v1.32h-5.13v-7Z"/><path d="M16.64,45.47c-.58-.31-1.04-.75-1.37-1.29s-.5-1.17-.5-1.85,.17-1.31,.5-1.85,.79-.98,1.37-1.29,1.24-.47,1.96-.47,1.38,.16,1.96,.47,1.04,.75,1.37,1.29,.5,1.17,.5,1.85-.17,1.31-.5,1.85-.79,.98-1.37,1.29c-.58,.31-1.23,.47-1.96,.47s-1.38-.16-1.96-.47Zm3.08-1.19c.33-.19,.59-.46,.79-.79,.19-.34,.29-.73,.29-1.16s-.09-.82-.29-1.16c-.19-.34-.45-.6-.79-.79s-.71-.29-1.12-.29-.79,.1-1.12,.29c-.33,.19-.59,.46-.78,.79-.19,.34-.29,.73-.29,1.16s.09,.82,.29,1.16c.19,.34,.45,.6,.78,.79,.33,.19,.71,.29,1.12,.29s.79-.1,1.12-.29Z"/><path d="M28.16,44.32h-3.25l-.62,1.5h-1.66l3.12-7h1.6l3.13,7h-1.7l-.62-1.5Zm-.51-1.23l-1.11-2.68-1.11,2.68h2.22Z"/><path d="M31.21,38.82h3.18c.76,0,1.43,.15,2.02,.44,.58,.29,1.04,.7,1.36,1.23,.32,.53,.49,1.14,.49,1.84s-.16,1.31-.49,1.84c-.32,.53-.78,.94-1.36,1.23-.58,.29-1.26,.44-2.02,.44h-3.18v-7Zm3.1,5.67c.7,0,1.26-.19,1.68-.58,.42-.39,.62-.92,.62-1.58s-.21-1.19-.62-1.58c-.42-.39-.98-.58-1.68-.58h-1.48v4.34h1.48Z"/><path d="M44.89,44.52v1.3h-5.42v-7h5.29v1.3h-3.68v1.52h3.25v1.26h-3.25v1.62h3.81Z"/><path d="M46.18,38.82h3.18c.76,0,1.43,.15,2.02,.44,.58,.29,1.04,.7,1.36,1.23,.32,.53,.49,1.14,.49,1.84s-.16,1.31-.49,1.84c-.32,.53-.78,.94-1.36,1.23-.58,.29-1.26,.44-2.02,.44h-3.18v-7Zm3.1,5.67c.7,0,1.26-.19,1.68-.58,.42-.39,.62-.92,.62-1.58s-.21-1.19-.62-1.58c-.42-.39-.98-.58-1.68-.58h-1.48v4.34h1.48Z"/></g></g></g></g></svg>