<svg xmlns="http://www.w3.org/2000/svg" viewBox="0 0 156.23 55.64">
    <defs>
        <style>.cls-1{fill:#474e51;}.cls-1,.cls-2{fill-rule:evenodd;}.cls-2,.cls-3{fill:#889299;}</style>
    </defs>
    <g id="Layer_2" data-name="Layer 2">
        <g id="landscape">
            <polygon class="cls-1" points="0 5.49 0 9.5 77.05 22.52 153.05 9.71 156.23 5.49 0 5.49"/>
            <path class="cls-2" d="M69.89,8.05,3.25,6.94l.49,1.9L68.8,13.79Z"/>
            <path class="cls-2" d="M81,8.44l66.64-1.11-.48,1.9L82.13,14.18Z"/>
            <path class="cls-1" d="M32.37,55.64v-2.8c.37-2.78,3.42-3.83,6.42-3.57,4-4.83,10.1-9.19,19.69-10v0c2.91-.34,4.44-1.81,4.91-4L69.13,6.76C70,2.3,72,.36,75.15,0a2.66,2.66,0,0,1,.63,0C79,.36,81,2.3,81.84,6.76l5.74,28.51c.47,2.15,2,3.62,4.91,4v0c9.59.83,15.74,5.19,19.69,10,3-.26,6,.79,6.42,3.57v2.8H97.76c-6-3.62-14-4.55-22.24-4.53v0h-.07v0c-8.24,0-16.24.91-22.24,4.53Z"/>
            <path class="cls-2" d="M73.5,11.15a3.16,3.16,0,1,1,0,4.47A3.17,3.17,0,0,1,73.5,11.15Z"/>
            <path class="cls-3" d="M75.81,18.9a5.1,5.1,0,0,1-4.89-3.2.78.78,0,0,1,.38-1,.78.78,0,0,1,1,.38,3.54,3.54,0,0,0,3.52,2.3A3.08,3.08,0,0,0,79,15.28a.77.77,0,0,1,1.46.5,4.62,4.62,0,0,1-4.57,3.12Z"/>
            <path class="cls-2" d="M72.06,24.5V40.7c0,2.81,1.58,5.1,3.53,5.1h0c2,0,3.54-2.29,3.54-5.1V24.5c0-2.82-1.58-5.1-3.54-5.1h0C73.64,19.4,72.06,21.68,72.06,24.5Z"/>
            <path class="cls-3" d="M52.41,55.44a1,1,0,0,1-.78-.4,1,1,0,0,1,.21-1.36c4.42-3.2,13-5,24.17-5,9.21,0,17.43,1.76,22.56,4.82a1,1,0,0,1-1,1.67c-4.84-2.9-12.7-4.56-21.57-4.56-10.61,0-19,1.68-23,4.6A.93.93,0,0,1,52.41,55.44Z"/>
            <path class="cls-3" d="M71.36,5.14A.79.79,0,0,1,71,5.06a.76.76,0,0,1-.38-1,5.09,5.09,0,0,1,5-3.21A4.65,4.65,0,0,1,80.2,4a.78.78,0,0,1-1.47.5,3.08,3.08,0,0,0-3.16-2.07,3.53,3.53,0,0,0-3.5,2.3A.77.77,0,0,1,71.36,5.14Z"/>
        </g>
    </g>
</svg>