<?xml version="1.0" encoding="utf-8"?>
<!-- Generator: Adobe Illustrator 26.3.1, SVG Export Plug-In . SVG Version: 6.00 Build 0)  -->
<svg version="1.1" id="Layer_1" xmlns="http://www.w3.org/2000/svg" xmlns:xlink="http://www.w3.org/1999/xlink" x="0px" y="0px"
	 viewBox="0 0 72.5 247" style="enable-background:new 0 0 72.5 247;" xml:space="preserve">
<style type="text/css">
	.st0{fill:#3A3D68;}
	.st1{fill:#0F143D;}
	.st2{fill:#172354;}
	.st3{fill:#AAA5A5;}
	.st4{enable-background:new    ;}
	.st5{fill:#FFFFFF;}
</style>
<g id="Layer_2_00000012433038962206117070000007362431869191174840_">
	<g id="Layer_1-2">
		<rect x="2.5" y="8.2" class="st0" width="67.5" height="153.2"/>
		<path class="st1" d="M13.2,17.2h46.1c3.7,0,6.7,3,6.7,6.7v121.7c0,3.7-3,6.7-6.7,6.7H13.2c-3.7,0-6.7-3-6.7-6.7V23.9
			C6.4,20.2,9.5,17.2,13.2,17.2z"/>
		<path class="st1" d="M5.6,0h61.3c3.1,0,5.6,2.5,5.6,5.6v2.9l0,0H0l0,0V5.6C0,2.5,2.5,0,5.6,0z"/>
		<path class="st1" d="M0,161.2h72.5l0,0v2.8c0,3.1-2.5,5.6-5.6,5.6l0,0H5.6c-3.1,0-5.6-2.5-5.6-5.6l0,0V161.2L0,161.2L0,161.2z"/>
		<path class="st2" d="M66,29v-6.4c0-3-3-5.4-6.7-5.4H13.1c-3.7,0-6.7,2.4-6.7,5.4V29H66z"/>
		<path class="st3" d="M37,32.2h1c0.5,0,1,0.4,1,1v116.9c0,0.5-0.4,1-1,1h-1c-0.5,0-1-0.4-1-1v-117C36.1,32.6,36.5,32.2,37,32.2z"/>
		<g class="st4">
			<path class="st5" d="M17.9,50.5v0.9h-3.7v-0.7l1.9-1.8c0.2-0.2,0.3-0.4,0.4-0.5s0.1-0.3,0.1-0.4c0-0.2-0.1-0.3-0.2-0.5
				c-0.1-0.1-0.3-0.2-0.6-0.2c-0.2,0-0.4,0-0.6,0.1c-0.2,0.1-0.3,0.2-0.4,0.4L14,47.3c0.2-0.3,0.5-0.5,0.8-0.7s0.7-0.2,1.2-0.2
				c0.4,0,0.7,0.1,1,0.2s0.5,0.3,0.6,0.5s0.2,0.5,0.2,0.8s-0.1,0.5-0.2,0.7s-0.3,0.5-0.7,0.8l-1.1,1.1
				C15.8,50.5,17.9,50.5,17.9,50.5z"/>
			<path class="st5" d="M19.4,51.2c-0.3-0.2-0.6-0.5-0.7-0.9c-0.2-0.4-0.3-0.8-0.3-1.4s0.1-1,0.3-1.4c0.2-0.4,0.4-0.7,0.7-0.9
				c0.3-0.2,0.7-0.3,1.1-0.3s0.8,0.1,1.1,0.3c0.3,0.2,0.6,0.5,0.7,0.9c0.2,0.4,0.3,0.8,0.3,1.4s-0.1,1-0.3,1.4
				c-0.2,0.4-0.4,0.7-0.7,0.9c-0.3,0.2-0.7,0.3-1.1,0.3S19.7,51.4,19.4,51.2z M21.2,50.1c0.2-0.3,0.3-0.7,0.3-1.2s-0.1-0.9-0.3-1.2
				c-0.2-0.3-0.4-0.4-0.7-0.4c-0.3,0-0.5,0.1-0.7,0.4s-0.3,0.7-0.3,1.2s0.1,0.9,0.3,1.2s0.4,0.4,0.7,0.4
				C20.8,50.5,21,50.4,21.2,50.1z"/>
			<path class="st5" d="M24.2,51.2c-0.3-0.2-0.6-0.5-0.7-0.9c-0.2-0.4-0.3-0.8-0.3-1.4s0.1-1,0.3-1.4c0.2-0.4,0.4-0.7,0.7-0.9
				c0.3-0.2,0.7-0.3,1.1-0.3s0.8,0.1,1.1,0.3c0.3,0.2,0.6,0.5,0.7,0.9c0.2,0.4,0.3,0.8,0.3,1.4s-0.1,1-0.3,1.4
				c-0.2,0.4-0.4,0.7-0.7,0.9c-0.3,0.2-0.7,0.3-1.1,0.3C24.8,51.5,24.5,51.4,24.2,51.2z M25.9,50.1c0.2-0.3,0.3-0.7,0.3-1.2
				s-0.1-0.9-0.3-1.2c-0.2-0.3-0.4-0.4-0.7-0.4c-0.3,0-0.5,0.1-0.7,0.4s-0.3,0.7-0.3,1.2s0.1,0.9,0.3,1.2s0.4,0.4,0.7,0.4
				S25.8,50.4,25.9,50.1z"/>
		</g>
		<g class="st4">
			<path class="st5" d="M18.1,63.5h-0.8v1h-1.1v-1h-2.6v-0.8l2.3-3.1H17l-2.1,2.9h1.3v-0.9h1.1v0.9h0.8
				C18.1,62.5,18.1,63.5,18.1,63.5z"/>
			<path class="st5" d="M19.4,64.3c-0.3-0.2-0.6-0.5-0.7-0.9c-0.2-0.4-0.3-0.8-0.3-1.4s0.1-1,0.3-1.4c0.2-0.4,0.4-0.7,0.7-0.9
				c0.3-0.2,0.7-0.3,1.1-0.3s0.8,0.1,1.1,0.3c0.3,0.2,0.6,0.5,0.7,0.9c0.2,0.4,0.3,0.8,0.3,1.4s-0.1,1-0.3,1.4
				c-0.2,0.4-0.4,0.7-0.7,0.9c-0.3,0.2-0.7,0.3-1.1,0.3C20.1,64.6,19.7,64.5,19.4,64.3z M21.2,63.3c0.2-0.3,0.3-0.7,0.3-1.2
				s-0.1-0.9-0.3-1.2c-0.2-0.3-0.4-0.4-0.7-0.4c-0.3,0-0.5,0.1-0.7,0.4s-0.3,0.7-0.3,1.2s0.1,0.9,0.3,1.2s0.4,0.4,0.7,0.4
				C20.8,63.7,21,63.5,21.2,63.3z"/>
			<path class="st5" d="M24.2,64.3c-0.3-0.2-0.6-0.5-0.7-0.9c-0.2-0.4-0.3-0.8-0.3-1.4s0.1-1,0.3-1.4c0.2-0.4,0.4-0.7,0.7-0.9
				c0.3-0.2,0.7-0.3,1.1-0.3s0.8,0.1,1.1,0.3c0.3,0.2,0.6,0.5,0.7,0.9c0.2,0.4,0.3,0.8,0.3,1.4s-0.1,1-0.3,1.4
				c-0.2,0.4-0.4,0.7-0.7,0.9c-0.3,0.2-0.7,0.3-1.1,0.3C24.9,64.6,24.5,64.5,24.2,64.3z M26,63.3c0.2-0.3,0.3-0.7,0.3-1.2
				s-0.1-0.9-0.3-1.2c-0.2-0.3-0.4-0.4-0.7-0.4c-0.3,0-0.5,0.1-0.7,0.4s-0.3,0.7-0.3,1.2s0.1,0.9,0.3,1.2s0.4,0.4,0.7,0.4
				S25.8,63.5,26,63.3z"/>
		</g>
		<g class="st4">
			<path class="st5" d="M17.2,76.6c0.3,0.1,0.5,0.3,0.6,0.5s0.2,0.5,0.2,0.8s-0.1,0.6-0.2,0.9c-0.2,0.2-0.4,0.4-0.7,0.6
				c-0.3,0.1-0.6,0.2-0.9,0.2c-0.7,0-1.2-0.2-1.6-0.6S14,78,14,77.2c0-0.6,0.1-1,0.3-1.4s0.5-0.7,0.9-0.9c0.4-0.2,0.8-0.3,1.3-0.3
				c0.3,0,0.5,0,0.8,0.1s0.4,0.1,0.6,0.2l-0.4,0.8c-0.2-0.2-0.5-0.2-0.9-0.2s-0.7,0.1-1,0.4c-0.2,0.2-0.4,0.6-0.4,1.1
				c0.3-0.3,0.7-0.4,1.2-0.4C16.6,76.5,16.9,76.5,17.2,76.6z M16.7,78.6c0.2-0.1,0.2-0.3,0.2-0.5s-0.1-0.4-0.2-0.5
				c-0.2-0.1-0.4-0.2-0.6-0.2c-0.2,0-0.5,0.1-0.6,0.2s-0.2,0.3-0.2,0.5s0.1,0.4,0.2,0.5c0.2,0.1,0.4,0.2,0.6,0.2
				C16.3,78.8,16.5,78.7,16.7,78.6z"/>
			<path class="st5" d="M19.4,79.3c-0.3-0.2-0.6-0.5-0.7-0.9c-0.2-0.4-0.3-0.8-0.3-1.4s0.1-1,0.3-1.4c0.2-0.4,0.4-0.7,0.7-0.9
				c0.3-0.2,0.7-0.3,1.1-0.3s0.8,0.1,1.1,0.3c0.3,0.2,0.6,0.5,0.7,0.9c0.2,0.4,0.3,0.8,0.3,1.4s-0.1,1-0.3,1.4
				c-0.2,0.4-0.4,0.7-0.7,0.9c-0.3,0.2-0.7,0.3-1.1,0.3C20.1,79.6,19.7,79.5,19.4,79.3z M21.2,78.3c0.2-0.3,0.3-0.7,0.3-1.2
				s-0.1-0.9-0.3-1.2c-0.2-0.3-0.4-0.4-0.7-0.4c-0.3,0-0.5,0.1-0.7,0.4s-0.3,0.7-0.3,1.2s0.1,0.9,0.3,1.2s0.4,0.4,0.7,0.4
				C20.8,78.6,21,78.5,21.2,78.3z"/>
			<path class="st5" d="M24.2,79.3c-0.3-0.2-0.6-0.5-0.7-0.9c-0.2-0.4-0.3-0.8-0.3-1.4s0.1-1,0.3-1.4c0.2-0.4,0.4-0.7,0.7-0.9
				c0.3-0.2,0.7-0.3,1.1-0.3s0.8,0.1,1.1,0.3c0.3,0.2,0.6,0.5,0.7,0.9c0.2,0.4,0.3,0.8,0.3,1.4s-0.1,1-0.3,1.4
				c-0.2,0.4-0.4,0.7-0.7,0.9c-0.3,0.2-0.7,0.3-1.1,0.3C24.9,79.6,24.5,79.5,24.2,79.3z M26,78.3c0.2-0.3,0.3-0.7,0.3-1.2
				s-0.1-0.9-0.3-1.2c-0.2-0.3-0.4-0.4-0.7-0.4c-0.3,0-0.5,0.1-0.7,0.4s-0.3,0.7-0.3,1.2s0.1,0.9,0.3,1.2s0.4,0.4,0.7,0.4
				C25.6,78.6,25.8,78.5,26,78.3z"/>
		</g>
		<g class="st4">
			<path class="st5" d="M17.7,91.4c0.1,0.2,0.2,0.4,0.2,0.7c0,0.3-0.1,0.6-0.3,0.8c-0.2,0.2-0.4,0.4-0.7,0.5
				c-0.3,0.1-0.7,0.2-1.1,0.2s-0.8-0.1-1.1-0.2s-0.6-0.3-0.7-0.5c-0.2-0.2-0.3-0.5-0.3-0.8s0.1-0.5,0.2-0.7c0.1-0.2,0.3-0.4,0.5-0.5
				c-0.2-0.1-0.3-0.3-0.4-0.4c-0.1-0.2-0.1-0.4-0.1-0.6c0-0.3,0.1-0.5,0.2-0.7c0.2-0.2,0.4-0.4,0.7-0.5s0.6-0.2,1-0.2
				c0.4,0,0.7,0.1,1,0.2s0.5,0.3,0.7,0.5s0.2,0.5,0.2,0.7s0,0.4-0.1,0.6s-0.2,0.3-0.4,0.4C17.4,91,17.6,91.2,17.7,91.4z M16.5,92.6
				c0.2-0.1,0.2-0.3,0.2-0.5s-0.1-0.4-0.2-0.5s-0.4-0.2-0.7-0.2s-0.5,0.1-0.7,0.2s-0.2,0.3-0.2,0.5s0.1,0.4,0.2,0.5
				c0.2,0.1,0.4,0.2,0.7,0.2C16.1,92.7,16.3,92.7,16.5,92.6z M15.3,89.5c-0.1,0.1-0.2,0.3-0.2,0.5s0.1,0.3,0.2,0.4s0.3,0.2,0.6,0.2
				c0.2,0,0.4-0.1,0.6-0.2c0.1-0.1,0.2-0.3,0.2-0.4c0-0.2-0.1-0.3-0.2-0.5c-0.1-0.1-0.3-0.2-0.6-0.2C15.6,89.3,15.4,89.4,15.3,89.5z
				"/>
			<path class="st5" d="M19.4,93.3c-0.3-0.2-0.6-0.5-0.7-0.9c-0.2-0.4-0.3-0.8-0.3-1.4s0.1-1,0.3-1.4c0.2-0.4,0.4-0.7,0.7-0.9
				c0.3-0.2,0.7-0.3,1.1-0.3s0.8,0.1,1.1,0.3c0.3,0.2,0.6,0.5,0.7,0.9c0.2,0.4,0.3,0.8,0.3,1.4s-0.1,1-0.3,1.4
				c-0.2,0.4-0.4,0.7-0.7,0.9c-0.3,0.2-0.7,0.3-1.1,0.3C20.1,93.6,19.7,93.5,19.4,93.3z M21.2,92.2c0.2-0.3,0.3-0.7,0.3-1.2
				s-0.1-0.9-0.3-1.2c-0.2-0.3-0.4-0.4-0.7-0.4c-0.3,0-0.5,0.1-0.7,0.4s-0.3,0.7-0.3,1.2s0.1,0.9,0.3,1.2s0.4,0.4,0.7,0.4
				C20.8,92.6,21,92.5,21.2,92.2z"/>
			<path class="st5" d="M24.2,93.3c-0.3-0.2-0.6-0.5-0.7-0.9c-0.2-0.4-0.3-0.8-0.3-1.4s0.1-1,0.3-1.4c0.2-0.4,0.4-0.7,0.7-0.9
				c0.3-0.2,0.7-0.3,1.1-0.3s0.8,0.1,1.1,0.3c0.3,0.2,0.6,0.5,0.7,0.9c0.2,0.4,0.3,0.8,0.3,1.4s-0.1,1-0.3,1.4
				c-0.2,0.4-0.4,0.7-0.7,0.9c-0.3,0.2-0.7,0.3-1.1,0.3C24.9,93.6,24.5,93.5,24.2,93.3z M26,92.2c0.2-0.3,0.3-0.7,0.3-1.2
				s-0.1-0.9-0.3-1.2c-0.2-0.3-0.4-0.4-0.7-0.4c-0.3,0-0.5,0.1-0.7,0.4s-0.3,0.7-0.3,1.2s0.1,0.9,0.3,1.2s0.4,0.4,0.7,0.4
				S25.8,92.5,26,92.2z"/>
		</g>
		<g class="st4">
			<path class="st5" d="M12.8,102.6v4.9h-1.1v-4h-1v-0.9H12.8z"/>
			<path class="st5" d="M14.7,107.3c-0.3-0.2-0.6-0.5-0.7-0.9c-0.2-0.4-0.3-0.8-0.3-1.4s0.1-1,0.3-1.4s0.4-0.7,0.7-0.9
				c0.3-0.2,0.7-0.3,1.1-0.3s0.8,0.1,1.1,0.3c0.3,0.2,0.6,0.5,0.7,0.9c0.2,0.4,0.3,0.8,0.3,1.4s-0.1,1-0.3,1.4
				c-0.2,0.4-0.4,0.7-0.7,0.9c-0.3,0.2-0.7,0.3-1.1,0.3C15.3,107.6,15,107.5,14.7,107.3z M16.5,106.2c0.2-0.3,0.3-0.7,0.3-1.2
				s-0.1-0.9-0.3-1.2c-0.2-0.3-0.4-0.4-0.7-0.4s-0.5,0.1-0.7,0.4s-0.3,0.7-0.3,1.2s0.1,0.9,0.3,1.2s0.4,0.4,0.7,0.4
				S16.3,106.5,16.5,106.2z"/>
			<path class="st5" d="M19.4,107.3c-0.3-0.2-0.6-0.5-0.7-0.9c-0.2-0.4-0.3-0.8-0.3-1.4s0.1-1,0.3-1.4c0.2-0.4,0.4-0.7,0.7-0.9
				c0.3-0.2,0.7-0.3,1.1-0.3s0.8,0.1,1.1,0.3c0.3,0.2,0.6,0.5,0.7,0.9c0.2,0.4,0.3,0.8,0.3,1.4s-0.1,1-0.3,1.4
				c-0.2,0.4-0.4,0.7-0.7,0.9c-0.3,0.2-0.7,0.3-1.1,0.3C20.1,107.6,19.7,107.5,19.4,107.3z M21.2,106.2c0.2-0.3,0.3-0.7,0.3-1.2
				s-0.1-0.9-0.3-1.2c-0.2-0.3-0.4-0.4-0.7-0.4c-0.3,0-0.5,0.1-0.7,0.4s-0.3,0.7-0.3,1.2s0.1,0.9,0.3,1.2s0.4,0.4,0.7,0.4
				C20.8,106.6,21,106.5,21.2,106.2z"/>
			<path class="st5" d="M24.2,107.3c-0.3-0.2-0.6-0.5-0.7-0.9c-0.2-0.4-0.3-0.8-0.3-1.4s0.1-1,0.3-1.4c0.2-0.4,0.4-0.7,0.7-0.9
				c0.3-0.2,0.7-0.3,1.1-0.3s0.8,0.1,1.1,0.3c0.3,0.2,0.6,0.5,0.7,0.9c0.2,0.4,0.3,0.8,0.3,1.4s-0.1,1-0.3,1.4
				c-0.2,0.4-0.4,0.7-0.7,0.9c-0.3,0.2-0.7,0.3-1.1,0.3C24.9,107.6,24.5,107.5,24.2,107.3z M26,106.2c0.2-0.3,0.3-0.7,0.3-1.2
				s-0.1-0.9-0.3-1.2c-0.2-0.3-0.4-0.4-0.7-0.4c-0.3,0-0.5,0.1-0.7,0.4s-0.3,0.7-0.3,1.2s0.1,0.9,0.3,1.2s0.4,0.4,0.7,0.4
				S25.8,106.5,26,106.2z"/>
		</g>
		<g class="st4">
			<path class="st5" d="M13.4,116.6v4.9h-1.1v-4h-1v-0.9H13.4z"/>
			<path class="st5" d="M17.9,120.5v0.9h-3.7v-0.7l1.9-1.8c0.2-0.2,0.3-0.4,0.4-0.5s0.1-0.3,0.1-0.4c0-0.2-0.1-0.3-0.2-0.5
				c-0.1-0.1-0.3-0.2-0.6-0.2c-0.2,0-0.4,0-0.6,0.1c-0.2,0.1-0.3,0.2-0.4,0.4l-0.8-0.5c0.2-0.3,0.5-0.5,0.8-0.7s0.7-0.2,1.2-0.2
				c0.4,0,0.7,0.1,1,0.2s0.5,0.3,0.6,0.5s0.2,0.5,0.2,0.8s-0.1,0.5-0.2,0.7s-0.3,0.5-0.7,0.8l-1.1,1.1
				C15.8,120.5,17.9,120.5,17.9,120.5z"/>
			<path class="st5" d="M19.4,121.2c-0.3-0.2-0.6-0.5-0.7-0.9c-0.2-0.4-0.3-0.8-0.3-1.4s0.1-1,0.3-1.4c0.2-0.4,0.4-0.7,0.7-0.9
				c0.3-0.2,0.7-0.3,1.1-0.3s0.8,0.1,1.1,0.3c0.3,0.2,0.6,0.5,0.7,0.9c0.2,0.4,0.3,0.8,0.3,1.4s-0.1,1-0.3,1.4
				c-0.2,0.4-0.4,0.7-0.7,0.9c-0.3,0.2-0.7,0.3-1.1,0.3S19.7,121.4,19.4,121.2z M21.2,120.2c0.2-0.3,0.3-0.7,0.3-1.2
				s-0.1-0.9-0.3-1.2c-0.2-0.3-0.4-0.4-0.7-0.4c-0.3,0-0.5,0.1-0.7,0.4s-0.3,0.7-0.3,1.2s0.1,0.9,0.3,1.2s0.4,0.4,0.7,0.4
				C20.8,120.6,21,120.5,21.2,120.2z"/>
			<path class="st5" d="M24.2,121.2c-0.3-0.2-0.6-0.5-0.7-0.9c-0.2-0.4-0.3-0.8-0.3-1.4s0.1-1,0.3-1.4c0.2-0.4,0.4-0.7,0.7-0.9
				c0.3-0.2,0.7-0.3,1.1-0.3s0.8,0.1,1.1,0.3c0.3,0.2,0.6,0.5,0.7,0.9c0.2,0.4,0.3,0.8,0.3,1.4s-0.1,1-0.3,1.4
				c-0.2,0.4-0.4,0.7-0.7,0.9c-0.3,0.2-0.7,0.3-1.1,0.3C24.8,121.5,24.5,121.4,24.2,121.2z M25.9,120.2c0.2-0.3,0.3-0.7,0.3-1.2
				s-0.1-0.9-0.3-1.2c-0.2-0.3-0.4-0.4-0.7-0.4c-0.3,0-0.5,0.1-0.7,0.4s-0.3,0.7-0.3,1.2s0.1,0.9,0.3,1.2s0.4,0.4,0.7,0.4
				S25.8,120.5,25.9,120.2z"/>
		</g>
		<g class="st4">
			<path class="st5" d="M12.7,130.5v4.9h-1.1v-4h-1v-0.9H12.7z"/>
			<path class="st5" d="M18.1,134.4h-0.8v1h-1.1v-1h-2.6v-0.8l2.3-3.1H17l-2.1,2.9h1.3v-0.9h1.1v0.9h0.8
				C18.1,133.4,18.1,134.4,18.1,134.4z"/>
			<path class="st5" d="M19.4,135.2c-0.3-0.2-0.6-0.5-0.7-0.9c-0.2-0.4-0.3-0.8-0.3-1.4s0.1-1,0.3-1.4c0.2-0.4,0.4-0.7,0.7-0.9
				c0.3-0.2,0.7-0.3,1.1-0.3s0.8,0.1,1.1,0.3c0.3,0.2,0.6,0.5,0.7,0.9c0.2,0.4,0.3,0.8,0.3,1.4s-0.1,1-0.3,1.4
				c-0.2,0.4-0.4,0.7-0.7,0.9c-0.3,0.2-0.7,0.3-1.1,0.3S19.7,135.4,19.4,135.2z M21.2,134.2c0.2-0.3,0.3-0.7,0.3-1.2
				s-0.1-0.9-0.3-1.2c-0.2-0.3-0.4-0.4-0.7-0.4c-0.3,0-0.5,0.1-0.7,0.4s-0.3,0.7-0.3,1.2s0.1,0.9,0.3,1.2s0.4,0.4,0.7,0.4
				C20.8,134.6,21,134.4,21.2,134.2z"/>
			<path class="st5" d="M24.2,135.2c-0.3-0.2-0.6-0.5-0.7-0.9c-0.2-0.4-0.3-0.8-0.3-1.4s0.1-1,0.3-1.4c0.2-0.4,0.4-0.7,0.7-0.9
				c0.3-0.2,0.7-0.3,1.1-0.3s0.8,0.1,1.1,0.3c0.3,0.2,0.6,0.5,0.7,0.9c0.2,0.4,0.3,0.8,0.3,1.4s-0.1,1-0.3,1.4
				c-0.2,0.4-0.4,0.7-0.7,0.9c-0.3,0.2-0.7,0.3-1.1,0.3C24.9,135.5,24.5,135.4,24.2,135.2z M26,134.2c0.2-0.3,0.3-0.7,0.3-1.2
				s-0.1-0.9-0.3-1.2c-0.2-0.3-0.4-0.4-0.7-0.4c-0.3,0-0.5,0.1-0.7,0.4s-0.3,0.7-0.3,1.2s0.1,0.9,0.3,1.2s0.4,0.4,0.7,0.4
				C25.6,134.6,25.8,134.4,26,134.2z"/>
		</g>
		<g class="st4">
			<path class="st5" d="M13.1,144.5v4.9H12v-4h-1v-0.9H13.1z"/>
			<path class="st5" d="M17.2,146.5c0.3,0.1,0.5,0.3,0.6,0.5s0.2,0.5,0.2,0.8s-0.1,0.6-0.2,0.9c-0.2,0.2-0.4,0.4-0.7,0.6
				c-0.3,0.1-0.6,0.2-0.9,0.2c-0.7,0-1.2-0.2-1.6-0.6s-0.6-1-0.6-1.8c0-0.6,0.1-1,0.3-1.4s0.5-0.7,0.9-0.9s0.8-0.3,1.3-0.3
				c0.3,0,0.5,0,0.8,0.1s0.4,0.1,0.6,0.2l-0.4,0.8c-0.2-0.2-0.5-0.2-0.9-0.2s-0.7,0.1-1,0.4c-0.2,0.2-0.4,0.6-0.4,1.1
				c0.3-0.3,0.7-0.4,1.2-0.4C16.6,146.3,16.9,146.4,17.2,146.5z M16.7,148.4c0.2-0.1,0.2-0.3,0.2-0.5s-0.1-0.4-0.2-0.5
				c-0.2-0.1-0.4-0.2-0.6-0.2c-0.2,0-0.5,0.1-0.6,0.2s-0.2,0.3-0.2,0.5s0.1,0.4,0.2,0.5c0.2,0.1,0.4,0.2,0.6,0.2
				C16.3,148.6,16.5,148.6,16.7,148.4z"/>
			<path class="st5" d="M19.4,149.2c-0.3-0.2-0.6-0.5-0.7-0.9c-0.2-0.4-0.3-0.8-0.3-1.4s0.1-1,0.3-1.4c0.2-0.4,0.4-0.7,0.7-0.9
				c0.3-0.2,0.7-0.3,1.1-0.3s0.8,0.1,1.1,0.3c0.3,0.2,0.6,0.5,0.7,0.9c0.2,0.4,0.3,0.8,0.3,1.4s-0.1,1-0.3,1.4
				c-0.2,0.4-0.4,0.7-0.7,0.9c-0.3,0.2-0.7,0.3-1.1,0.3S19.7,149.4,19.4,149.2z M21.2,148.1c0.2-0.3,0.3-0.7,0.3-1.2
				s-0.1-0.9-0.3-1.2c-0.2-0.3-0.4-0.4-0.7-0.4c-0.3,0-0.5,0.1-0.7,0.4s-0.3,0.7-0.3,1.2s0.1,0.9,0.3,1.2s0.4,0.4,0.7,0.4
				C20.8,148.5,21,148.4,21.2,148.1z"/>
			<path class="st5" d="M24.2,149.2c-0.3-0.2-0.6-0.5-0.7-0.9c-0.2-0.4-0.3-0.8-0.3-1.4s0.1-1,0.3-1.4c0.2-0.4,0.4-0.7,0.7-0.9
				c0.3-0.2,0.7-0.3,1.1-0.3s0.8,0.1,1.1,0.3c0.3,0.2,0.6,0.5,0.7,0.9c0.2,0.4,0.3,0.8,0.3,1.4s-0.1,1-0.3,1.4
				c-0.2,0.4-0.4,0.7-0.7,0.9c-0.3,0.2-0.7,0.3-1.1,0.3C24.9,149.5,24.5,149.4,24.2,149.2z M26,148.1c0.2-0.3,0.3-0.7,0.3-1.2
				s-0.1-0.9-0.3-1.2c-0.2-0.3-0.4-0.4-0.7-0.4c-0.3,0-0.5,0.1-0.7,0.4s-0.3,0.7-0.3,1.2s0.1,0.9,0.3,1.2s0.4,0.4,0.7,0.4
				S25.8,148.4,26,148.1z"/>
		</g>
		<rect x="31.6" y="41.5" class="st5" width="4" height="1.3"/>
		<rect x="31.6" y="48.4" class="st5" width="4" height="1.3"/>
		<rect x="31.6" y="55.4" class="st5" width="4" height="1.3"/>
		<rect x="31.6" y="62.4" class="st5" width="4" height="1.3"/>
		<rect x="31.6" y="69.4" class="st5" width="4" height="1.3"/>
		<rect x="31.6" y="76.4" class="st5" width="4" height="1.3"/>
		<rect x="31.6" y="83.4" class="st5" width="4" height="1.3"/>
		<rect x="31.6" y="90.4" class="st5" width="4" height="1.3"/>
		<rect x="31.6" y="97.4" class="st5" width="4" height="1.3"/>
		<rect x="31.6" y="104.3" class="st5" width="4" height="1.3"/>
		<rect x="31.6" y="111.3" class="st5" width="4" height="1.3"/>
		<rect x="31.6" y="118.3" class="st5" width="4" height="1.3"/>
		<rect x="31.6" y="125.3" class="st5" width="4" height="1.3"/>
		<rect x="31.6" y="132.3" class="st5" width="4" height="1.4"/>
		<rect x="31.6" y="139.3" class="st5" width="4" height="1.4"/>
		<rect x="31.6" y="146.3" class="st5" width="4" height="1.4"/>
		<rect x="39.7" y="41.5" class="st5" width="4" height="1.3"/>
		<rect x="39.7" y="48.4" class="st5" width="4" height="1.3"/>
		<rect x="39.7" y="55.4" class="st5" width="4" height="1.3"/>
		<rect x="39.7" y="62.4" class="st5" width="4" height="1.3"/>
		<rect x="39.7" y="69.4" class="st5" width="4" height="1.3"/>
		<rect x="39.7" y="76.4" class="st5" width="4" height="1.3"/>
		<rect x="39.7" y="83.4" class="st5" width="4" height="1.3"/>
		<rect x="39.7" y="90.4" class="st5" width="4" height="1.3"/>
		<rect x="39.7" y="97.4" class="st5" width="4" height="1.3"/>
		<rect x="39.7" y="104.3" class="st5" width="4" height="1.3"/>
		<rect x="39.7" y="111.3" class="st5" width="4" height="1.3"/>
		<rect x="39.7" y="118.3" class="st5" width="4" height="1.3"/>
		<rect x="39.7" y="125.3" class="st5" width="4" height="1.3"/>
		<rect x="39.7" y="132.3" class="st5" width="4" height="1.4"/>
		<rect x="39.7" y="139.3" class="st5" width="4" height="1.4"/>
		<rect x="39.7" y="146.3" class="st5" width="4" height="1.4"/>
		<g class="st4">
			<path class="st5" d="M51.7,50.5v0.9H48v-0.7l1.9-1.8c0.2-0.2,0.3-0.4,0.4-0.5c0.1-0.1,0.1-0.3,0.1-0.4c0-0.2-0.1-0.3-0.2-0.5
				c-0.1-0.1-0.3-0.2-0.6-0.2c-0.2,0-0.4,0-0.6,0.1c-0.2,0.1-0.3,0.2-0.4,0.4l-0.8-0.5c0.2-0.3,0.5-0.5,0.8-0.7s0.7-0.2,1.2-0.2
				c0.4,0,0.7,0.1,1,0.2c0.3,0.1,0.5,0.3,0.6,0.5c0.2,0.2,0.2,0.5,0.2,0.8s-0.1,0.5-0.2,0.7c-0.1,0.2-0.3,0.5-0.7,0.8l-1.1,1.1
				C49.6,50.5,51.7,50.5,51.7,50.5z"/>
			<path class="st5" d="M53.2,51.2c-0.3-0.2-0.6-0.5-0.7-0.9c-0.2-0.4-0.3-0.8-0.3-1.4s0.1-1,0.3-1.4s0.4-0.7,0.7-0.9
				s0.7-0.3,1.1-0.3c0.4,0,0.8,0.1,1.1,0.3s0.6,0.5,0.7,0.9c0.2,0.4,0.3,0.8,0.3,1.4s-0.1,1-0.3,1.4s-0.4,0.7-0.7,0.9
				s-0.7,0.3-1.1,0.3C53.8,51.5,53.5,51.4,53.2,51.2z M55,50.1c0.2-0.3,0.3-0.7,0.3-1.2S55.2,48,55,47.7s-0.4-0.4-0.7-0.4
				s-0.5,0.1-0.7,0.4c-0.2,0.3-0.3,0.7-0.3,1.2s0.1,0.9,0.3,1.2s0.4,0.4,0.7,0.4C54.5,50.5,54.8,50.4,55,50.1z"/>
		</g>
		<g class="st4">
			<path class="st5" d="M52.3,63.5h-0.8v1h-1.1v-1h-2.6v-0.8l2.3-3.1h1.2l-2.1,2.9h1.3v-0.9h1.1v0.9h0.8v1
				C52.4,63.5,52.3,63.5,52.3,63.5z"/>
			<path class="st5" d="M53.7,64.3c-0.3-0.2-0.6-0.5-0.7-0.9c-0.2-0.4-0.3-0.8-0.3-1.4s0.1-1,0.3-1.4s0.4-0.7,0.7-0.9
				s0.7-0.3,1.1-0.3s0.8,0.1,1.1,0.3s0.6,0.5,0.7,0.9c0.2,0.4,0.3,0.8,0.3,1.4s-0.1,1-0.3,1.4s-0.4,0.7-0.7,0.9
				c-0.3,0.2-0.7,0.3-1.1,0.3S54,64.5,53.7,64.3z M55.4,63.3c0.2-0.3,0.3-0.7,0.3-1.2s-0.1-0.9-0.3-1.2s-0.4-0.4-0.7-0.4
				s-0.5,0.1-0.7,0.4c-0.2,0.3-0.3,0.7-0.3,1.2s0.1,0.9,0.3,1.2s0.4,0.4,0.7,0.4S55.3,63.5,55.4,63.3z"/>
		</g>
		<g class="st4">
			<path class="st5" d="M51,76.6c0.3,0.1,0.5,0.3,0.6,0.5s0.2,0.5,0.2,0.8s-0.1,0.6-0.2,0.9c-0.2,0.2-0.4,0.4-0.7,0.6
				s-0.6,0.2-0.9,0.2c-0.7,0-1.2-0.2-1.6-0.6c-0.4-0.4-0.6-1-0.6-1.8c0-0.6,0.1-1,0.3-1.4s0.5-0.7,0.9-0.9c0.4-0.2,0.8-0.3,1.3-0.3
				c0.3,0,0.5,0,0.8,0.1s0.4,0.1,0.6,0.2l-0.4,0.8c-0.2-0.2-0.5-0.2-0.9-0.2s-0.7,0.1-1,0.4C49.2,76.1,49,76.5,49,77
				c0.3-0.3,0.7-0.4,1.2-0.4C50.4,76.5,50.7,76.5,51,76.6z M50.5,78.6c0.2-0.1,0.2-0.3,0.2-0.5s-0.1-0.4-0.2-0.5s-0.4-0.2-0.6-0.2
				c-0.2,0-0.5,0.1-0.6,0.2c-0.2,0-0.3,0.2-0.3,0.4s0.1,0.4,0.2,0.5c0.2,0.1,0.4,0.2,0.6,0.2C50.1,78.8,50.3,78.7,50.5,78.6z"/>
			<path class="st5" d="M53.2,79.3c-0.3-0.2-0.6-0.5-0.7-0.9c-0.2-0.4-0.3-0.8-0.3-1.4s0.1-1,0.3-1.4s0.4-0.7,0.7-0.9
				c0.3-0.2,0.7-0.3,1.1-0.3c0.4,0,0.8,0.1,1.1,0.3c0.3,0.2,0.6,0.5,0.7,0.9c0.2,0.4,0.3,0.8,0.3,1.4s-0.1,1-0.3,1.4
				s-0.4,0.7-0.7,0.9c-0.3,0.2-0.7,0.3-1.1,0.3C53.9,79.6,53.6,79.5,53.2,79.3z M55,78.3c0.2-0.3,0.3-0.7,0.3-1.2s-0.1-0.9-0.3-1.2
				s-0.4-0.4-0.7-0.4s-0.5,0.1-0.7,0.4s-0.3,0.7-0.3,1.2s0.1,0.9,0.3,1.2c0.2,0.3,0.4,0.4,0.7,0.4C54.6,78.6,54.9,78.5,55,78.3z"/>
		</g>
		<g class="st4">
			<path class="st5" d="M51.7,91.4c0.1,0.2,0.2,0.4,0.2,0.7c0,0.3-0.1,0.6-0.3,0.8c-0.2,0.2-0.4,0.4-0.7,0.5s-0.7,0.2-1.1,0.2
				c-0.4,0-0.8-0.1-1.1-0.2s-0.6-0.3-0.7-0.5c-0.2-0.2-0.3-0.5-0.3-0.8s0.1-0.5,0.2-0.7c0.1-0.2,0.3-0.4,0.5-0.5
				c-0.2-0.1-0.3-0.3-0.4-0.4c-0.1-0.2-0.1-0.4-0.1-0.6c0-0.3,0.1-0.5,0.2-0.7s0.4-0.4,0.7-0.5s0.6-0.2,1-0.2s0.7,0.1,1,0.2
				s0.5,0.3,0.7,0.5s0.2,0.5,0.2,0.7s0,0.4-0.1,0.6s-0.2,0.3-0.4,0.4C51.4,91,51.6,91.2,51.7,91.4z M50.5,92.6
				c0.2-0.1,0.2-0.3,0.2-0.5s-0.1-0.4-0.2-0.5c-0.2-0.1-0.4-0.2-0.7-0.2s-0.5,0.1-0.7,0.2s-0.2,0.3-0.2,0.5s0.1,0.4,0.2,0.5
				c0.2,0.1,0.4,0.2,0.7,0.2C50.1,92.7,50.3,92.7,50.5,92.6z M49.3,89.5c-0.1,0.1-0.2,0.3-0.2,0.5s0.1,0.3,0.2,0.4
				c0.1,0.1,0.3,0.2,0.6,0.2c0.2,0,0.4-0.1,0.6-0.2s0.2-0.3,0.2-0.4c0-0.2-0.1-0.3-0.2-0.5s-0.3-0.2-0.6-0.2S49.4,89.4,49.3,89.5z"
				/>
			<path class="st5" d="M53.4,93.3c-0.3-0.2-0.6-0.5-0.7-0.9c-0.2-0.4-0.3-0.8-0.3-1.4s0.1-1,0.3-1.4s0.4-0.7,0.7-0.9
				c0.3-0.2,0.7-0.3,1.1-0.3s0.8,0.1,1.1,0.3c0.3,0.2,0.6,0.5,0.7,0.9c0.2,0.4,0.3,0.8,0.3,1.4s-0.1,1-0.3,1.4s-0.4,0.7-0.7,0.9
				c-0.3,0.2-0.7,0.3-1.1,0.3S53.7,93.5,53.4,93.3z M55.2,92.2c0.2-0.3,0.3-0.7,0.3-1.2s-0.1-0.9-0.3-1.2c-0.2-0.3-0.4-0.4-0.7-0.4
				s-0.5,0.1-0.7,0.4s-0.3,0.7-0.3,1.2s0.1,0.9,0.3,1.2c0.2,0.3,0.4,0.4,0.7,0.4S55,92.5,55.2,92.2z"/>
		</g>
		<g class="st4">
			<path class="st5" d="M49.9,102.6v4.9h-1.1v-4h-1v-0.9H49.9z"/>
			<path class="st5" d="M51.8,107.3c-0.3-0.2-0.6-0.5-0.7-0.9c-0.2-0.4-0.3-0.8-0.3-1.4s0.1-1,0.3-1.4s0.4-0.7,0.7-0.9
				c0.3-0.2,0.7-0.3,1.1-0.3c0.4,0,0.8,0.1,1.1,0.3c0.3,0.2,0.6,0.5,0.7,0.9c0.2,0.4,0.3,0.8,0.3,1.4s-0.1,1-0.3,1.4
				s-0.4,0.7-0.7,0.9c-0.3,0.2-0.7,0.3-1.1,0.3C52.4,107.6,52.1,107.5,51.8,107.3z M53.5,106.2c0.2-0.3,0.3-0.7,0.3-1.2
				s-0.1-0.9-0.3-1.2s-0.4-0.4-0.7-0.4s-0.5,0.1-0.7,0.4s-0.3,0.7-0.3,1.2s0.1,0.9,0.3,1.2c0.2,0.3,0.4,0.4,0.7,0.4
				S53.4,106.5,53.5,106.2z"/>
			<path class="st5" d="M56.5,107.3c-0.3-0.2-0.6-0.5-0.7-0.9c-0.2-0.4-0.3-0.8-0.3-1.4s0.1-1,0.3-1.4s0.4-0.7,0.7-0.9
				c0.3-0.2,0.7-0.3,1.1-0.3c0.4,0,0.8,0.1,1.1,0.3c0.3,0.2,0.6,0.5,0.7,0.9c0.2,0.4,0.3,0.8,0.3,1.4s-0.1,1-0.3,1.4
				s-0.4,0.7-0.7,0.9c-0.3,0.2-0.7,0.3-1.1,0.3C57.2,107.6,56.8,107.5,56.5,107.3z M58.3,106.2c0.2-0.3,0.3-0.7,0.3-1.2
				s-0.1-0.9-0.3-1.2s-0.4-0.4-0.7-0.4s-0.5,0.1-0.7,0.4s-0.3,0.7-0.3,1.2s0.1,0.9,0.3,1.2c0.2,0.3,0.4,0.4,0.7,0.4
				C57.9,106.6,58.1,106.5,58.3,106.2z"/>
		</g>
		<g class="st4">
			<path class="st5" d="M49.9,116.6v4.9h-1.1v-4h-1v-0.9H49.9z"/>
			<path class="st5" d="M54.4,120.5v0.9h-3.7v-0.7l1.9-1.8c0.2-0.2,0.3-0.4,0.4-0.5s0.1-0.3,0.1-0.4c0-0.2-0.1-0.3-0.2-0.5
				c-0.1-0.1-0.3-0.2-0.6-0.2c-0.2,0-0.4,0-0.6,0.1c-0.2,0.1-0.3,0.2-0.4,0.4l-0.8-0.5c0.2-0.3,0.5-0.5,0.8-0.7s0.7-0.2,1.2-0.2
				c0.4,0,0.7,0.1,1,0.2s0.5,0.3,0.6,0.5c0.2,0.2,0.2,0.5,0.2,0.8s-0.1,0.5-0.2,0.7c-0.1,0.2-0.3,0.5-0.7,0.8l-1.1,1.1
				C52.3,120.5,54.4,120.5,54.4,120.5z"/>
			<path class="st5" d="M55.9,121.2c-0.3-0.2-0.6-0.5-0.7-0.9c-0.2-0.4-0.3-0.8-0.3-1.4s0.1-1,0.3-1.4s0.4-0.7,0.7-0.9
				c0.3-0.2,0.7-0.3,1.1-0.3c0.4,0,0.8,0.1,1.1,0.3c0.3,0.2,0.6,0.5,0.7,0.9c0.2,0.5,0.2,1,0.2,1.5s-0.1,1-0.3,1.4s-0.4,0.7-0.7,0.9
				c-0.3,0.2-0.7,0.3-1.1,0.3C56.5,121.5,56.2,121.4,55.9,121.2z M57.7,120.2c0.2-0.3,0.3-0.7,0.3-1.2s-0.1-0.9-0.3-1.2
				s-0.4-0.4-0.7-0.4s-0.5,0.1-0.7,0.4S56,118.5,56,119s0.1,0.9,0.3,1.2c0.2,0.3,0.4,0.4,0.7,0.4C57.2,120.6,57.5,120.5,57.7,120.2z
				"/>
		</g>
		<g class="st4">
			<path class="st5" d="M49.9,130.5v4.9h-1.1v-4h-1v-0.9H49.9z"/>
			<path class="st5" d="M55.2,134.4h-0.8v1h-1.1v-1h-2.6v-0.8l2.3-3.1h1.2l-2.1,2.9h1.3v-0.9h1.1v0.9h0.8v1L55.2,134.4L55.2,134.4z"
				/>
			<path class="st5" d="M56.6,135.2c-0.3-0.2-0.6-0.5-0.7-0.9s-0.3-0.8-0.3-1.4s0.1-1,0.3-1.4s0.4-0.7,0.7-0.9s0.7-0.3,1.1-0.3
				c0.4,0,0.8,0.1,1.1,0.3s0.6,0.5,0.7,0.9s0.3,0.8,0.3,1.4s-0.1,1-0.3,1.4s-0.4,0.7-0.7,0.9s-0.7,0.3-1.1,0.3
				S56.9,135.4,56.6,135.2z M58.4,134.2c0.2-0.3,0.3-0.7,0.3-1.2s-0.1-0.9-0.3-1.2s-0.4-0.4-0.7-0.4s-0.5,0.1-0.7,0.4
				c-0.2,0.3-0.3,0.7-0.3,1.2s0.1,0.9,0.3,1.2s0.4,0.4,0.7,0.4C58,134.6,58.2,134.4,58.4,134.2z"/>
		</g>
		<g class="st4">
			<path class="st5" d="M49.9,144.5v4.9h-1.1v-4h-1v-0.9H49.9z"/>
			<path class="st5" d="M53.9,146.5c0.3,0.1,0.5,0.3,0.6,0.5s0.2,0.5,0.2,0.8s-0.1,0.6-0.2,0.9c-0.2,0.2-0.4,0.4-0.7,0.6
				c-0.3,0.1-0.6,0.2-0.9,0.2c-0.7,0-1.2-0.2-1.6-0.6c-0.4-0.4-0.6-1-0.6-1.8c0-0.6,0.1-1,0.3-1.4s0.5-0.7,0.9-0.9s0.8-0.3,1.3-0.3
				c0.3,0,0.5,0,0.8,0.1s0.4,0.1,0.6,0.2l-0.4,0.8c-0.2-0.2-0.5-0.2-0.9-0.2s-0.7,0.1-1,0.4c-0.2,0.2-0.4,0.6-0.4,1.1
				c0.3-0.3,0.7-0.4,1.2-0.4C53.4,146.3,53.7,146.4,53.9,146.5z M53.5,148.4c0.2-0.1,0.2-0.3,0.2-0.5s-0.1-0.4-0.2-0.5
				c-0.2-0.1-0.4-0.2-0.6-0.2c-0.2,0-0.5,0.1-0.6,0.2c-0.2,0.1-0.2,0.3-0.2,0.5s0.1,0.4,0.2,0.5c0.2,0.1,0.4,0.2,0.6,0.2
				C53.1,148.6,53.3,148.6,53.5,148.4z"/>
			<path class="st5" d="M56.2,149.2c-0.3-0.2-0.6-0.5-0.7-0.9c-0.2-0.4-0.3-0.8-0.3-1.4s0.1-1,0.3-1.4s0.4-0.7,0.7-0.9
				s0.7-0.3,1.1-0.3s0.8,0.1,1.1,0.3s0.6,0.5,0.7,0.9c0.2,0.4,0.3,0.8,0.3,1.4s-0.1,1-0.3,1.4s-0.4,0.7-0.7,0.9s-0.7,0.3-1.1,0.3
				S56.5,149.4,56.2,149.2z M58,148.1c0.2-0.3,0.3-0.7,0.3-1.2s-0.1-0.9-0.3-1.2s-0.4-0.4-0.7-0.4s-0.5,0.1-0.7,0.4
				c-0.2,0.3-0.3,0.7-0.3,1.2s0.1,0.9,0.3,1.2s0.4,0.4,0.7,0.4S57.8,148.4,58,148.1z"/>
		</g>
		<g class="st4">
			<path class="st5" d="M24.2,37c-0.3-0.2-0.6-0.5-0.7-0.9c-0.2-0.4-0.3-0.8-0.3-1.4s0.1-1,0.3-1.4c0.2-0.4,0.4-0.7,0.7-0.9
				c0.3-0.2,0.7-0.3,1.1-0.3s0.8,0.1,1.1,0.3c0.3,0.2,0.6,0.5,0.7,0.9c0.2,0.4,0.3,0.8,0.3,1.4s-0.1,1-0.3,1.4
				c-0.2,0.4-0.4,0.7-0.7,0.9c-0.3,0.2-0.7,0.3-1.1,0.3C24.9,37.3,24.5,37.2,24.2,37z M26,36c0.2-0.3,0.3-0.7,0.3-1.2
				s-0.1-0.9-0.3-1.2c-0.2-0.3-0.4-0.4-0.7-0.4c-0.3,0-0.5,0.1-0.7,0.4s-0.3,0.7-0.3,1.2s0.1,0.9,0.3,1.2s0.4,0.4,0.7,0.4
				C25.6,36.3,25.8,36.2,26,36z"/>
		</g>
		<g class="st4">
			<path class="st5" d="M48.8,37c-0.3-0.2-0.6-0.5-0.7-0.9c-0.2-0.4-0.3-0.8-0.3-1.4s0.1-1,0.3-1.4s0.4-0.7,0.7-0.9s0.7-0.3,1.1-0.3
				s0.8,0.1,1.1,0.3s0.6,0.5,0.7,0.9c0.2,0.4,0.3,0.8,0.3,1.4s-0.1,1-0.3,1.4S51.3,36.8,51,37s-0.7,0.3-1.1,0.3S49.1,37.2,48.8,37z
				 M50.6,36c0.2-0.3,0.3-0.7,0.3-1.2s-0.1-0.9-0.3-1.2s-0.4-0.4-0.7-0.4s-0.5,0.1-0.7,0.4c-0.2,0.3-0.3,0.7-0.3,1.2
				s0.1,0.9,0.3,1.2s0.4,0.4,0.7,0.4C50.2,36.3,50.4,36.2,50.6,36z"/>
		</g>
		<g class="st4">
			<path class="st5" d="M27.5,20.2v6.4h-1.2l-3.2-3.9v3.9h-1.5v-6.4h1.2l3.2,3.9v-3.9H27.5z"/>
		</g>
		<g>
			<path class="st5" d="M41.4,24.7l-0.7,0.7v1.2h-1.4v-6.7h1.4v3.8l2.1-1.9h1.7l-2,2.1l2.2,2.8h-1.7L41.4,24.7z"/>
			<path class="st5" d="M50,21.8v4c0,0.9-0.2,1.5-0.7,2s-1.1,0.6-2,0.6c-0.5,0-0.9-0.1-1.3-0.2c-0.4-0.1-0.8-0.3-1-0.5l0.6-1
				c0.2,0.2,0.5,0.3,0.8,0.4c0.3,0.1,0.6,0.1,0.9,0.1c0.5,0,0.8-0.1,1.1-0.3c0.2-0.2,0.3-0.6,0.3-1v-0.2c-0.4,0.4-0.9,0.6-1.5,0.6
				c-0.4,0-0.9-0.1-1.2-0.3s-0.7-0.5-0.9-0.8s-0.3-0.8-0.3-1.2c0-0.5,0.1-0.9,0.3-1.2s0.5-0.6,0.9-0.8c0.4-0.2,0.8-0.3,1.2-0.3
				c0.7,0,1.2,0.2,1.6,0.7v-0.6H50z M48.3,24.9c0.2-0.2,0.4-0.5,0.4-0.9c0-0.4-0.1-0.6-0.4-0.9c-0.2-0.2-0.5-0.3-0.9-0.3
				s-0.7,0.1-0.9,0.3c-0.2,0.2-0.4,0.5-0.4,0.9c0,0.4,0.1,0.6,0.4,0.9c0.2,0.2,0.5,0.3,0.9,0.3S48,25.1,48.3,24.9z"/>
			<path class="st5" d="M58.6,24.6h-3.7c0.1,0.3,0.2,0.5,0.5,0.7s0.6,0.3,0.9,0.3c0.3,0,0.5,0,0.7-0.1c0.2-0.1,0.4-0.2,0.5-0.4
				l0.7,0.8c-0.5,0.5-1.1,0.8-2,0.8c-0.5,0-1-0.1-1.4-0.3s-0.7-0.5-1-0.9c-0.2-0.4-0.3-0.8-0.3-1.3c0-0.5,0.1-0.9,0.3-1.3
				c0.2-0.4,0.5-0.7,0.9-0.9c0.4-0.2,0.8-0.3,1.3-0.3c0.5,0,0.9,0.1,1.3,0.3s0.7,0.5,0.9,0.9s0.3,0.8,0.3,1.3
				C58.6,24.2,58.6,24.3,58.6,24.6z M55.3,23c-0.2,0.2-0.3,0.4-0.4,0.7h2.4c0-0.3-0.2-0.6-0.4-0.7c-0.2-0.2-0.5-0.3-0.8-0.3
				C55.8,22.7,55.5,22.8,55.3,23z"/>
			<path class="st5" d="M64.4,21.8v6.6H63v-2.3c-0.3,0.4-0.8,0.6-1.4,0.6c-0.5,0-0.9-0.1-1.2-0.3s-0.7-0.5-0.9-0.9s-0.3-0.8-0.3-1.3
				s0.1-0.9,0.3-1.3s0.5-0.7,0.9-0.9s0.8-0.3,1.2-0.3c0.7,0,1.2,0.2,1.5,0.6v-0.6H64.4z M62.7,25.2c0.2-0.2,0.4-0.6,0.4-1
				s-0.1-0.7-0.4-1s-0.5-0.4-0.9-0.4c-0.4,0-0.7,0.1-0.9,0.4c-0.2,0.2-0.4,0.6-0.4,1s0.1,0.7,0.4,1c0.2,0.2,0.5,0.4,0.9,0.4
				C62.2,25.5,62.5,25.4,62.7,25.2z"/>
		</g>
	</g>
</g>
</svg>
