<svg xmlns="http://www.w3.org/2000/svg" viewBox="0 0 187.09 95.7"><defs><style>.cls-1{fill:#020202;}.cls-2{fill:#4c4a48;}.cls-3{fill:#6f6f9e;}.cls-4{opacity:0.2;}.cls-5{fill:#5e000b;}.cls-6{fill:#7f323d;}.cls-7{fill:#608e2f;}.cls-8{fill:#525450;}</style></defs><g id="Layer_2" data-name="Layer 2"><g id="landscape"><g id="Graphics"><rect x="15.59" y="14.52" width="156.45" height="8.6"/><rect class="cls-1" x="5.91" y="84.94" width="176.34" height="4.84"/><rect class="cls-2" y="88.17" width="187.09" height="7.53"/><path class="cls-3" d="M182.37,27.87a6.63,6.63,0,0,0-6.42-4.8H12.7a6.52,6.52,0,0,0-6.28,4.8c-1.77,6.48-4,21.65-4.08,57.07H186.56C186.44,49.52,184.19,34.35,182.37,27.87Z"/><path class="cls-4" d="M171.11,37c-.68-1.82-3-3.09-5.54-3.09h-141c-2.54,0-4.75,1.27-5.42,3.09-1.53,4.16-3.43,13.92-3.53,36.69H174.73C174.63,50.88,172.68,41.12,171.11,37Z"/><path class="cls-5" d="M2.15,0H185.48a0,0,0,0,1,0,0V5.28a10.31,10.31,0,0,1-10.31,10.31H12.46A10.31,10.31,0,0,1,2.15,5.28V0a0,0,0,0,1,0,0Z"/><path class="cls-6" d="M5.27,2.08H185.33A15.79,15.79,0,0,0,185.48,0H2.15a15.58,15.58,0,0,0,8.57,13.91A15.56,15.56,0,0,1,5.27,2.08Z"/><polygon class="cls-4" points="15.59 73.66 21.5 68.82 168.81 68.82 174.73 73.66 15.59 73.66"/><path class="cls-4" d="M163.6,33.88H26.46c-5.22,0-6,1.3-6,1.3l5.5,5h138.2l5.5-5S168.81,33.87,163.6,33.88Z"/><path class="cls-7" d="M165.47,41.54c-.63-1.35-2.73-2.29-5.13-2.29H29.79c-2.35,0-4.4.94-5,2.29-1.41,3.1-3.18,10.35-3.27,27.28H168.81C168.72,51.89,166.92,44.64,165.47,41.54Z"/><rect class="cls-8" x="94.08" y="39.25" width="1.08" height="29.57" rx="0.36"/></g></g></g></svg>