<svg xmlns="http://www.w3.org/2000/svg" viewBox="0 0 72.47 247.04">
    <defs>
        <style>.cls-1{fill:#7d8c93;}.cls-2{fill:#2b709e;}.cls-3{fill:#00579b;}.cls-4{fill:#427ea8;}.cls-5{fill:#aaa5a5;}.cls-6{fill:#757575;}.cls-7{font-size:6px;}.cls-10,.cls-11,.cls-13,.cls-7,.cls-9{fill:#fff;}.cls-10,.cls-11,.cls-7{font-family:Montserrat-Bold, Montserrat;font-weight:300;}.cls-8{letter-spacing:0em;}.cls-10,.cls-13{font-size:6.06px;}.cls-11{font-size:9.09px;}.cls-12{letter-spacing:-0.02em;}.cls-13{font-family:Montserrat-Regular, Montserrat;}</style>
    </defs>
    <g id="Layer_2" data-name="Layer 2">
        <g id="Layer_1-2" data-name="Layer 1">
            <rect class="cls-2" x="2.48" y="8.21" width="67.5" height="153.19"/>
            <rect class="cls-3" x="6.45" y="17.22" width="59.56" height="135.17" rx="6.72"/>
            <path class="cls-3" d="M5.57,0H66.89a5.57,5.57,0,0,1,5.57,5.57V8.44a0,0,0,0,1,0,0H0a0,0,0,0,1,0,0V5.57A5.57,5.57,0,0,1,5.57,0Z"/>
            <path class="cls-3" d="M0,161.17H72.47a0,0,0,0,1,0,0V164a5.57,5.57,0,0,1-5.57,5.57H5.57A5.57,5.57,0,0,1,0,164v-2.87a0,0,0,0,1,0,0Z"/>
            <path class="cls-4" d="M66,29V22.59c0-3-3-5.37-6.68-5.37H13.13c-3.69,0-6.68,2.4-6.68,5.37V29Z"/>
            <rect class="cls-5" x="36.07" y="32.15" width="2.98" height="118.88" rx="0.98"/>
            <text class="cls-7" transform="translate(19.18 50.57)">200</text>
            <text class="cls-7" transform="translate(18.93 64.55)">400</text>
            <text class="cls-7" transform="translate(19.06 78.53)">600</text>
            <text class="cls-7" transform="translate(19 92.5)">800</text>
            <text class="cls-7" transform="translate(17.98 106.48)">1000</text>
            <text class="cls-7" transform="translate(18.21 120.46)">1200</text>
            <text class="cls-7" transform="translate(17.95 134.44)">1400</text>
            <text class="cls-7" transform="translate(18.08 148.41)">1600</text>
            <rect class="cls-9" x="31.64" y="41.45" width="4.04" height="1.35"/>
            <rect class="cls-9" x="31.64" y="48.44" width="4.04" height="1.35"/>
            <rect class="cls-9" x="31.64" y="55.43" width="4.04" height="1.35"/>
            <rect class="cls-9" x="31.64" y="62.42" width="4.04" height="1.35"/>
            <rect class="cls-9" x="31.64" y="69.41" width="4.04" height="1.35"/>
            <rect class="cls-9" x="31.64" y="76.4" width="4.04" height="1.35"/>
            <rect class="cls-9" x="31.64" y="83.39" width="4.04" height="1.35"/>
            <rect class="cls-9" x="31.64" y="90.37" width="4.04" height="1.35"/>
            <rect class="cls-9" x="31.64" y="97.36" width="4.04" height="1.35"/>
            <rect class="cls-9" x="31.64" y="104.35" width="4.04" height="1.35"/>
            <rect class="cls-9" x="31.64" y="111.34" width="4.04" height="1.35"/>
            <rect class="cls-9" x="31.64" y="118.33" width="4.04" height="1.35"/>
            <rect class="cls-9" x="31.64" y="125.32" width="4.04" height="1.35"/>
            <rect class="cls-9" x="31.64" y="132.31" width="4.04" height="1.35"/>
            <rect class="cls-9" x="31.64" y="139.29" width="4.04" height="1.35"/>
            <rect class="cls-9" x="31.64" y="146.28" width="4.04" height="1.35"/>
            <rect class="cls-9" x="39.71" y="41.45" width="4.04" height="1.35"/>
            <rect class="cls-9" x="39.71" y="48.44" width="4.04" height="1.35"/>
            <rect class="cls-9" x="39.71" y="55.43" width="4.04" height="1.35"/>
            <rect class="cls-9" x="39.71" y="62.42" width="4.04" height="1.35"/>
            <rect class="cls-9" x="39.71" y="69.41" width="4.04" height="1.35"/>
            <rect class="cls-9" x="39.71" y="76.4" width="4.04" height="1.35"/>
            <rect class="cls-9" x="39.71" y="83.39" width="4.04" height="1.35"/>
            <rect class="cls-9" x="39.71" y="90.37" width="4.04" height="1.35"/>
            <rect class="cls-9" x="39.71" y="97.36" width="4.04" height="1.35"/>
            <rect class="cls-9" x="39.71" y="104.35" width="4.04" height="1.35"/>
            <rect class="cls-9" x="39.71" y="111.34" width="4.04" height="1.35"/>
            <rect class="cls-9" x="39.71" y="118.33" width="4.04" height="1.35"/>
            <rect class="cls-9" x="39.71" y="125.32" width="4.04" height="1.35"/>
            <rect class="cls-9" x="39.71" y="132.31" width="4.04" height="1.35"/>
            <rect class="cls-9" x="39.71" y="139.29" width="4.04" height="1.35"/>
            <rect class="cls-9" x="39.71" y="146.28" width="4.04" height="1.35"/>
            <text class="cls-7" transform="translate(46.62 50.57)">20</text>
            <text class="cls-7" transform="translate(46.37 64.55)">40</text>
            <text class="cls-7" transform="translate(46.5 78.53)">60</text>
            <text class="cls-7" transform="translate(46.44 92.5)">80</text>
            <text class="cls-7" transform="translate(44.71 106.48)">100</text>
            <text class="cls-7" transform="translate(44.94 120.46)">120</text>
            <text class="cls-7" transform="translate(45.39 134.44)">140</text>
            <text class="cls-7" transform="translate(45.52 148.41)">160</text>
            <text class="cls-10" transform="translate(22.44 37.21)">0</text>
            <text class="cls-10" transform="translate(48.19 37.21)">0</text>
            <text class="cls-11" transform="translate(20.93 26.61)">N</text>
            <text class="cls-10" transform="translate(46.67 25.09)">kg</text>
            <text class="cls-13" transform="translate(54.83 25.55)">eq</text>
        </g>
    </g>
</svg>