<?xml version="1.0" encoding="utf-8"?>
<!-- Generator: Adobe Illustrator 26.3.1, SVG Export Plug-In . SVG Version: 6.00 Build 0)  -->
<svg version="1.1" id="Layer_1" xmlns="http://www.w3.org/2000/svg" xmlns:xlink="http://www.w3.org/1999/xlink" x="0px" y="0px"
	 viewBox="0 0 72.5 247" style="enable-background:new 0 0 72.5 247;" xml:space="preserve">
<style type="text/css">
	.st0{fill:#3A3D68;}
	.st1{fill:#0F143D;}
	.st2{fill:#172354;}
	.st3{fill:#AAA5A5;}
	.st4{enable-background:new    ;}
	.st5{fill:#FFFFFF;}
</style>
<g id="Layer_2_00000012433038962206117070000007362431869191174840_">
	<g id="Layer_1-2">
		<rect x="2.5" y="8.2" class="st0" width="67.5" height="153.2"/>
		<path class="st1" d="M13.2,17.2h46.1c3.7,0,6.7,3,6.7,6.7v121.7c0,3.7-3,6.7-6.7,6.7H13.2c-3.7,0-6.7-3-6.7-6.7V23.9
			C6.4,20.2,9.5,17.2,13.2,17.2z"/>
		<path class="st1" d="M5.6,0h61.3c3.1,0,5.6,2.5,5.6,5.6v2.9l0,0H0l0,0V5.6C0,2.5,2.5,0,5.6,0z"/>
		<path class="st1" d="M0,161.2h72.5l0,0v2.8c0,3.1-2.5,5.6-5.6,5.6h0H5.6c-3.1,0-5.6-2.5-5.6-5.6c0,0,0,0,0,0V161.2L0,161.2
			L0,161.2z"/>
		<path class="st2" d="M66,29v-6.4c0-3-3-5.4-6.7-5.4H13.1c-3.7,0-6.7,2.4-6.7,5.4V29H66z"/>
		<path class="st3" d="M37,32.2h1c0.5,0,1,0.4,1,1v116.9c0,0.5-0.4,1-1,1h-1c-0.5,0-1-0.4-1-1V33.1C36.1,32.6,36.5,32.2,37,32.2z"/>
		<g class="st4">
			<path class="st5" d="M21.8,50.3v0.3h-2.9v-0.2l1.8-1.8c0.2-0.2,0.4-0.4,0.5-0.6c0.1-0.2,0.1-0.3,0.1-0.5c0-0.3-0.1-0.5-0.3-0.6
				c-0.2-0.2-0.4-0.2-0.8-0.2c-0.3,0-0.5,0-0.7,0.1c-0.2,0.1-0.4,0.2-0.5,0.4l-0.2-0.2c0.2-0.2,0.4-0.3,0.6-0.4
				c0.2-0.1,0.5-0.2,0.8-0.2c0.4,0,0.7,0.1,1,0.3s0.4,0.5,0.4,0.8c0,0.2,0,0.4-0.1,0.6c-0.1,0.2-0.3,0.4-0.5,0.7l-1.5,1.5H21.8z"/>
			<path class="st5" d="M23.2,50.3c-0.2-0.2-0.4-0.4-0.6-0.7c-0.1-0.3-0.2-0.7-0.2-1.1c0-0.4,0.1-0.8,0.2-1.1
				c0.1-0.3,0.3-0.6,0.6-0.7s0.5-0.3,0.9-0.3c0.3,0,0.6,0.1,0.9,0.3s0.4,0.4,0.6,0.7c0.1,0.3,0.2,0.7,0.2,1.1c0,0.4-0.1,0.8-0.2,1.1
				c-0.1,0.3-0.3,0.6-0.6,0.7c-0.2,0.2-0.5,0.3-0.9,0.3C23.7,50.6,23.4,50.5,23.2,50.3z M24.7,50.1c0.2-0.1,0.4-0.4,0.5-0.6
				c0.1-0.3,0.2-0.6,0.2-1c0-0.4-0.1-0.7-0.2-1c-0.1-0.3-0.3-0.5-0.5-0.6c-0.2-0.1-0.4-0.2-0.7-0.2c-0.3,0-0.5,0.1-0.7,0.2
				c-0.2,0.1-0.4,0.4-0.5,0.6c-0.1,0.3-0.2,0.6-0.2,1c0,0.4,0.1,0.7,0.2,1c0.1,0.3,0.3,0.5,0.5,0.6c0.2,0.1,0.4,0.2,0.7,0.2
				C24.3,50.3,24.5,50.2,24.7,50.1z"/>
			<path class="st5" d="M27.1,50.3c-0.2-0.2-0.4-0.4-0.6-0.7c-0.1-0.3-0.2-0.7-0.2-1.1c0-0.4,0.1-0.8,0.2-1.1
				c0.1-0.3,0.3-0.6,0.6-0.7s0.5-0.3,0.9-0.3c0.3,0,0.6,0.1,0.9,0.3s0.4,0.4,0.6,0.7c0.1,0.3,0.2,0.7,0.2,1.1c0,0.4-0.1,0.8-0.2,1.1
				c-0.1,0.3-0.3,0.6-0.6,0.7c-0.2,0.2-0.5,0.3-0.9,0.3C27.6,50.6,27.4,50.5,27.1,50.3z M28.7,50.1c0.2-0.1,0.4-0.4,0.5-0.6
				c0.1-0.3,0.2-0.6,0.2-1c0-0.4-0.1-0.7-0.2-1c-0.1-0.3-0.3-0.5-0.5-0.6c-0.2-0.1-0.4-0.2-0.7-0.2c-0.3,0-0.5,0.1-0.7,0.2
				c-0.2,0.1-0.4,0.4-0.5,0.6c-0.1,0.3-0.2,0.6-0.2,1c0,0.4,0.1,0.7,0.2,1c0.1,0.3,0.3,0.5,0.5,0.6c0.2,0.1,0.4,0.2,0.7,0.2
				C28.2,50.3,28.5,50.2,28.7,50.1z"/>
		</g>
		<g class="st4">
			<path class="st5" d="M22,63.4h-0.9v1.2h-0.3v-1.2h-2.4v-0.2l2.3-2.8H21l-2.2,2.8h2v-1h0.3v1H22V63.4z"/>
			<path class="st5" d="M23.2,64.3c-0.2-0.2-0.4-0.4-0.6-0.7c-0.1-0.3-0.2-0.7-0.2-1.1c0-0.4,0.1-0.8,0.2-1.1
				c0.1-0.3,0.3-0.6,0.6-0.7s0.5-0.3,0.9-0.3c0.3,0,0.6,0.1,0.9,0.3s0.4,0.4,0.6,0.7c0.1,0.3,0.2,0.7,0.2,1.1c0,0.4-0.1,0.8-0.2,1.1
				c-0.1,0.3-0.3,0.6-0.6,0.7c-0.2,0.2-0.5,0.3-0.9,0.3C23.7,64.6,23.4,64.5,23.2,64.3z M24.7,64.1c0.2-0.1,0.4-0.4,0.5-0.6
				c0.1-0.3,0.2-0.6,0.2-1c0-0.4-0.1-0.7-0.2-1c-0.1-0.3-0.3-0.5-0.5-0.6c-0.2-0.1-0.4-0.2-0.7-0.2c-0.3,0-0.5,0.1-0.7,0.2
				c-0.2,0.1-0.4,0.4-0.5,0.6c-0.1,0.3-0.2,0.6-0.2,1c0,0.4,0.1,0.7,0.2,1c0.1,0.3,0.3,0.5,0.5,0.6c0.2,0.1,0.4,0.2,0.7,0.2
				C24.3,64.3,24.5,64.2,24.7,64.1z"/>
			<path class="st5" d="M27.1,64.3c-0.2-0.2-0.4-0.4-0.6-0.7c-0.1-0.3-0.2-0.7-0.2-1.1c0-0.4,0.1-0.8,0.2-1.1
				c0.1-0.3,0.3-0.6,0.6-0.7s0.5-0.3,0.9-0.3c0.3,0,0.6,0.1,0.9,0.3s0.4,0.4,0.6,0.7c0.1,0.3,0.2,0.7,0.2,1.1c0,0.4-0.1,0.8-0.2,1.1
				c-0.1,0.3-0.3,0.6-0.6,0.7c-0.2,0.2-0.5,0.3-0.9,0.3C27.6,64.6,27.4,64.5,27.1,64.3z M28.7,64.1c0.2-0.1,0.4-0.4,0.5-0.6
				c0.1-0.3,0.2-0.6,0.2-1c0-0.4-0.1-0.7-0.2-1c-0.1-0.3-0.3-0.5-0.5-0.6c-0.2-0.1-0.4-0.2-0.7-0.2c-0.3,0-0.5,0.1-0.7,0.2
				c-0.2,0.1-0.4,0.4-0.5,0.6c-0.1,0.3-0.2,0.6-0.2,1c0,0.4,0.1,0.7,0.2,1c0.1,0.3,0.3,0.5,0.5,0.6c0.2,0.1,0.4,0.2,0.7,0.2
				C28.2,64.3,28.5,64.2,28.7,64.1z"/>
		</g>
		<g class="st4">
			<path class="st5" d="M21.2,76.2c0.2,0.1,0.4,0.2,0.5,0.4c0.1,0.2,0.2,0.4,0.2,0.7c0,0.3-0.1,0.5-0.2,0.7
				c-0.1,0.2-0.3,0.3-0.5,0.4c-0.2,0.1-0.5,0.2-0.7,0.2c-0.5,0-1-0.2-1.3-0.6c-0.3-0.4-0.4-0.9-0.4-1.6c0-0.5,0.1-0.9,0.2-1.2
				c0.2-0.3,0.4-0.6,0.7-0.7s0.6-0.2,1-0.2c0.4,0,0.7,0.1,1,0.2l-0.1,0.2c-0.2-0.1-0.5-0.2-0.8-0.2c-0.5,0-0.9,0.2-1.1,0.5
				c-0.3,0.3-0.4,0.8-0.4,1.4c0,0.2,0,0.4,0,0.5c0.1-0.3,0.2-0.5,0.5-0.6c0.2-0.2,0.5-0.2,0.8-0.2C20.7,76,21,76.1,21.2,76.2z
				 M21.2,78c0.2-0.2,0.3-0.4,0.3-0.7c0-0.3-0.1-0.5-0.3-0.7c-0.2-0.2-0.5-0.3-0.8-0.3c-0.2,0-0.4,0-0.6,0.1
				c-0.2,0.1-0.3,0.2-0.4,0.4c-0.1,0.2-0.1,0.3-0.1,0.5c0,0.2,0,0.3,0.1,0.5c0.1,0.2,0.2,0.3,0.4,0.4s0.4,0.1,0.6,0.1
				C20.8,78.3,21,78.2,21.2,78z"/>
			<path class="st5" d="M23.2,78.3c-0.2-0.2-0.4-0.4-0.6-0.7c-0.1-0.3-0.2-0.7-0.2-1.1c0-0.4,0.1-0.8,0.2-1.1
				c0.1-0.3,0.3-0.6,0.6-0.7s0.5-0.3,0.9-0.3c0.3,0,0.6,0.1,0.9,0.3s0.4,0.4,0.6,0.7c0.1,0.3,0.2,0.7,0.2,1.1c0,0.4-0.1,0.8-0.2,1.1
				c-0.1,0.3-0.3,0.6-0.6,0.7c-0.2,0.2-0.5,0.3-0.9,0.3C23.7,78.6,23.4,78.5,23.2,78.3z M24.7,78.1c0.2-0.1,0.4-0.4,0.5-0.6
				c0.1-0.3,0.2-0.6,0.2-1c0-0.4-0.1-0.7-0.2-1c-0.1-0.3-0.3-0.5-0.5-0.6c-0.2-0.1-0.4-0.2-0.7-0.2c-0.3,0-0.5,0.1-0.7,0.2
				c-0.2,0.1-0.4,0.4-0.5,0.6c-0.1,0.3-0.2,0.6-0.2,1c0,0.4,0.1,0.7,0.2,1c0.1,0.3,0.3,0.5,0.5,0.6c0.2,0.1,0.4,0.2,0.7,0.2
				C24.3,78.3,24.5,78.2,24.7,78.1z"/>
			<path class="st5" d="M27.1,78.3c-0.2-0.2-0.4-0.4-0.6-0.7c-0.1-0.3-0.2-0.7-0.2-1.1c0-0.4,0.1-0.8,0.2-1.1
				c0.1-0.3,0.3-0.6,0.6-0.7s0.5-0.3,0.9-0.3c0.3,0,0.6,0.1,0.9,0.3s0.4,0.4,0.6,0.7c0.1,0.3,0.2,0.7,0.2,1.1c0,0.4-0.1,0.8-0.2,1.1
				c-0.1,0.3-0.3,0.6-0.6,0.7c-0.2,0.2-0.5,0.3-0.9,0.3C27.6,78.6,27.4,78.5,27.1,78.3z M28.7,78.1c0.2-0.1,0.4-0.4,0.5-0.6
				c0.1-0.3,0.2-0.6,0.2-1c0-0.4-0.1-0.7-0.2-1c-0.1-0.3-0.3-0.5-0.5-0.6c-0.2-0.1-0.4-0.2-0.7-0.2c-0.3,0-0.5,0.1-0.7,0.2
				c-0.2,0.1-0.4,0.4-0.5,0.6c-0.1,0.3-0.2,0.6-0.2,1c0,0.4,0.1,0.7,0.2,1c0.1,0.3,0.3,0.5,0.5,0.6c0.2,0.1,0.4,0.2,0.7,0.2
				C28.2,78.3,28.5,78.2,28.7,78.1z"/>
		</g>
		<g class="st4">
			<path class="st5" d="M21.5,90.7c0.2,0.2,0.2,0.4,0.2,0.7c0,0.4-0.1,0.7-0.4,0.9c-0.3,0.2-0.7,0.3-1.2,0.3c-0.5,0-0.9-0.1-1.2-0.3
				s-0.4-0.5-0.4-0.9c0-0.3,0.1-0.5,0.2-0.7c0.2-0.2,0.4-0.3,0.7-0.4c-0.2-0.1-0.4-0.2-0.6-0.4s-0.2-0.4-0.2-0.6
				c0-0.3,0.1-0.6,0.4-0.8c0.3-0.2,0.6-0.3,1-0.3s0.8,0.1,1,0.3c0.3,0.2,0.4,0.5,0.4,0.8c0,0.2-0.1,0.4-0.2,0.6
				c-0.1,0.2-0.3,0.3-0.6,0.4C21.1,90.4,21.3,90.5,21.5,90.7z M21.1,92c0.2-0.2,0.3-0.4,0.3-0.7c0-0.3-0.1-0.5-0.3-0.7
				s-0.5-0.2-0.9-0.2c-0.4,0-0.7,0.1-0.9,0.2c-0.2,0.2-0.3,0.4-0.3,0.7c0,0.3,0.1,0.5,0.3,0.7c0.2,0.2,0.5,0.2,0.9,0.2
				C20.5,92.3,20.9,92.2,21.1,92z M19.3,90c0.2,0.1,0.5,0.2,0.8,0.2s0.6-0.1,0.8-0.2c0.2-0.1,0.3-0.3,0.3-0.6c0-0.3-0.1-0.5-0.3-0.6
				c-0.2-0.1-0.5-0.2-0.8-0.2c-0.3,0-0.6,0.1-0.8,0.2c-0.2,0.1-0.3,0.4-0.3,0.6C19,89.6,19.1,89.8,19.3,90z"/>
			<path class="st5" d="M23.2,92.3c-0.2-0.2-0.4-0.4-0.6-0.7c-0.1-0.3-0.2-0.7-0.2-1.1c0-0.4,0.1-0.8,0.2-1.1
				c0.1-0.3,0.3-0.6,0.6-0.7s0.5-0.3,0.9-0.3c0.3,0,0.6,0.1,0.9,0.3s0.4,0.4,0.6,0.7c0.1,0.3,0.2,0.7,0.2,1.1c0,0.4-0.1,0.8-0.2,1.1
				c-0.1,0.3-0.3,0.6-0.6,0.7c-0.2,0.2-0.5,0.3-0.9,0.3C23.7,92.5,23.4,92.4,23.2,92.3z M24.7,92c0.2-0.1,0.4-0.4,0.5-0.6
				c0.1-0.3,0.2-0.6,0.2-1c0-0.4-0.1-0.7-0.2-1c-0.1-0.3-0.3-0.5-0.5-0.6c-0.2-0.1-0.4-0.2-0.7-0.2c-0.3,0-0.5,0.1-0.7,0.2
				c-0.2,0.1-0.4,0.4-0.5,0.6c-0.1,0.3-0.2,0.6-0.2,1c0,0.4,0.1,0.7,0.2,1c0.1,0.3,0.3,0.5,0.5,0.6c0.2,0.1,0.4,0.2,0.7,0.2
				C24.3,92.2,24.5,92.2,24.7,92z"/>
			<path class="st5" d="M27.1,92.3c-0.2-0.2-0.4-0.4-0.6-0.7c-0.1-0.3-0.2-0.7-0.2-1.1c0-0.4,0.1-0.8,0.2-1.1
				c0.1-0.3,0.3-0.6,0.6-0.7s0.5-0.3,0.9-0.3c0.3,0,0.6,0.1,0.9,0.3s0.4,0.4,0.6,0.7c0.1,0.3,0.2,0.7,0.2,1.1c0,0.4-0.1,0.8-0.2,1.1
				c-0.1,0.3-0.3,0.6-0.6,0.7c-0.2,0.2-0.5,0.3-0.9,0.3C27.6,92.5,27.4,92.4,27.1,92.3z M28.7,92c0.2-0.1,0.4-0.4,0.5-0.6
				c0.1-0.3,0.2-0.6,0.2-1c0-0.4-0.1-0.7-0.2-1c-0.1-0.3-0.3-0.5-0.5-0.6c-0.2-0.1-0.4-0.2-0.7-0.2c-0.3,0-0.5,0.1-0.7,0.2
				c-0.2,0.1-0.4,0.4-0.5,0.6c-0.1,0.3-0.2,0.6-0.2,1c0,0.4,0.1,0.7,0.2,1c0.1,0.3,0.3,0.5,0.5,0.6c0.2,0.1,0.4,0.2,0.7,0.2
				C28.2,92.2,28.5,92.2,28.7,92z"/>
		</g>
		<g class="st4">
			<path class="st5" d="M17.4,102.3v4.2h-0.3v-3.9h-1v-0.3H17.4z"/>
			<path class="st5" d="M19.2,106.2c-0.2-0.2-0.4-0.4-0.6-0.7c-0.1-0.3-0.2-0.7-0.2-1.1c0-0.4,0.1-0.8,0.2-1.1
				c0.1-0.3,0.3-0.6,0.6-0.7s0.5-0.3,0.9-0.3c0.3,0,0.6,0.1,0.9,0.3s0.4,0.4,0.6,0.7c0.1,0.3,0.2,0.7,0.2,1.1c0,0.4-0.1,0.8-0.2,1.1
				c-0.1,0.3-0.3,0.6-0.6,0.7c-0.2,0.2-0.5,0.3-0.9,0.3C19.8,106.5,19.5,106.4,19.2,106.2z M20.8,106c0.2-0.1,0.4-0.4,0.5-0.6
				c0.1-0.3,0.2-0.6,0.2-1c0-0.4-0.1-0.7-0.2-1c-0.1-0.3-0.3-0.5-0.5-0.6c-0.2-0.1-0.4-0.2-0.7-0.2c-0.3,0-0.5,0.1-0.7,0.2
				c-0.2,0.1-0.4,0.4-0.5,0.6c-0.1,0.3-0.2,0.6-0.2,1c0,0.4,0.1,0.7,0.2,1c0.1,0.3,0.3,0.5,0.5,0.6c0.2,0.1,0.4,0.2,0.7,0.2
				C20.3,106.2,20.6,106.2,20.8,106z"/>
			<path class="st5" d="M23.2,106.2c-0.2-0.2-0.4-0.4-0.6-0.7c-0.1-0.3-0.2-0.7-0.2-1.1c0-0.4,0.1-0.8,0.2-1.1
				c0.1-0.3,0.3-0.6,0.6-0.7s0.5-0.3,0.9-0.3c0.3,0,0.6,0.1,0.9,0.3s0.4,0.4,0.6,0.7c0.1,0.3,0.2,0.7,0.2,1.1c0,0.4-0.1,0.8-0.2,1.1
				c-0.1,0.3-0.3,0.6-0.6,0.7c-0.2,0.2-0.5,0.3-0.9,0.3C23.7,106.5,23.4,106.4,23.2,106.2z M24.7,106c0.2-0.1,0.4-0.4,0.5-0.6
				c0.1-0.3,0.2-0.6,0.2-1c0-0.4-0.1-0.7-0.2-1c-0.1-0.3-0.3-0.5-0.5-0.6c-0.2-0.1-0.4-0.2-0.7-0.2c-0.3,0-0.5,0.1-0.7,0.2
				c-0.2,0.1-0.4,0.4-0.5,0.6c-0.1,0.3-0.2,0.6-0.2,1c0,0.4,0.1,0.7,0.2,1c0.1,0.3,0.3,0.5,0.5,0.6c0.2,0.1,0.4,0.2,0.7,0.2
				C24.3,106.2,24.5,106.2,24.7,106z"/>
			<path class="st5" d="M27.1,106.2c-0.2-0.2-0.4-0.4-0.6-0.7c-0.1-0.3-0.2-0.7-0.2-1.1c0-0.4,0.1-0.8,0.2-1.1
				c0.1-0.3,0.3-0.6,0.6-0.7s0.5-0.3,0.9-0.3c0.3,0,0.6,0.1,0.9,0.3s0.4,0.4,0.6,0.7c0.1,0.3,0.2,0.7,0.2,1.1c0,0.4-0.1,0.8-0.2,1.1
				c-0.1,0.3-0.3,0.6-0.6,0.7c-0.2,0.2-0.5,0.3-0.9,0.3C27.6,106.5,27.4,106.4,27.1,106.2z M28.7,106c0.2-0.1,0.4-0.4,0.5-0.6
				c0.1-0.3,0.2-0.6,0.2-1c0-0.4-0.1-0.7-0.2-1c-0.1-0.3-0.3-0.5-0.5-0.6c-0.2-0.1-0.4-0.2-0.7-0.2c-0.3,0-0.5,0.1-0.7,0.2
				c-0.2,0.1-0.4,0.4-0.5,0.6c-0.1,0.3-0.2,0.6-0.2,1c0,0.4,0.1,0.7,0.2,1c0.1,0.3,0.3,0.5,0.5,0.6c0.2,0.1,0.4,0.2,0.7,0.2
				C28.2,106.2,28.5,106.2,28.7,106z"/>
		</g>
		<g class="st4">
			<path class="st5" d="M18,116.3v4.2h-0.3v-3.9h-1v-0.3H18z"/>
			<path class="st5" d="M21.8,120.2v0.3h-2.9v-0.2l1.8-1.8c0.2-0.2,0.4-0.4,0.5-0.6c0.1-0.2,0.1-0.3,0.1-0.5c0-0.3-0.1-0.5-0.3-0.6
				c-0.2-0.2-0.4-0.2-0.8-0.2c-0.3,0-0.5,0-0.7,0.1c-0.2,0.1-0.4,0.2-0.5,0.4l-0.2-0.2c0.2-0.2,0.4-0.3,0.6-0.4
				c0.2-0.1,0.5-0.2,0.8-0.2c0.4,0,0.7,0.1,1,0.3s0.4,0.5,0.4,0.8c0,0.2,0,0.4-0.1,0.6c-0.1,0.2-0.3,0.4-0.5,0.7l-1.5,1.5H21.8z"/>
			<path class="st5" d="M23.2,120.2c-0.2-0.2-0.4-0.4-0.6-0.7c-0.1-0.3-0.2-0.7-0.2-1.1c0-0.4,0.1-0.8,0.2-1.1
				c0.1-0.3,0.3-0.6,0.6-0.7s0.5-0.3,0.9-0.3c0.3,0,0.6,0.1,0.9,0.3s0.4,0.4,0.6,0.7c0.1,0.3,0.2,0.7,0.2,1.1c0,0.4-0.1,0.8-0.2,1.1
				c-0.1,0.3-0.3,0.6-0.6,0.7c-0.2,0.2-0.5,0.3-0.9,0.3C23.7,120.5,23.4,120.4,23.2,120.2z M24.7,120c0.2-0.1,0.4-0.4,0.5-0.6
				c0.1-0.3,0.2-0.6,0.2-1c0-0.4-0.1-0.7-0.2-1c-0.1-0.3-0.3-0.5-0.5-0.6c-0.2-0.1-0.4-0.2-0.7-0.2c-0.3,0-0.5,0.1-0.7,0.2
				c-0.2,0.1-0.4,0.4-0.5,0.6c-0.1,0.3-0.2,0.6-0.2,1c0,0.4,0.1,0.7,0.2,1c0.1,0.3,0.3,0.5,0.5,0.6c0.2,0.1,0.4,0.2,0.7,0.2
				C24.3,120.2,24.5,120.1,24.7,120z"/>
			<path class="st5" d="M27.1,120.2c-0.2-0.2-0.4-0.4-0.6-0.7c-0.1-0.3-0.2-0.7-0.2-1.1c0-0.4,0.1-0.8,0.2-1.1
				c0.1-0.3,0.3-0.6,0.6-0.7s0.5-0.3,0.9-0.3c0.3,0,0.6,0.1,0.9,0.3s0.4,0.4,0.6,0.7c0.1,0.3,0.2,0.7,0.2,1.1c0,0.4-0.1,0.8-0.2,1.1
				c-0.1,0.3-0.3,0.6-0.6,0.7c-0.2,0.2-0.5,0.3-0.9,0.3C27.6,120.5,27.4,120.4,27.1,120.2z M28.7,120c0.2-0.1,0.4-0.4,0.5-0.6
				c0.1-0.3,0.2-0.6,0.2-1c0-0.4-0.1-0.7-0.2-1c-0.1-0.3-0.3-0.5-0.5-0.6c-0.2-0.1-0.4-0.2-0.7-0.2c-0.3,0-0.5,0.1-0.7,0.2
				c-0.2,0.1-0.4,0.4-0.5,0.6c-0.1,0.3-0.2,0.6-0.2,1c0,0.4,0.1,0.7,0.2,1c0.1,0.3,0.3,0.5,0.5,0.6c0.2,0.1,0.4,0.2,0.7,0.2
				C28.2,120.2,28.5,120.1,28.7,120z"/>
		</g>
		<g class="st4">
			<path class="st5" d="M17.4,130.2v4.2h-0.3v-3.9h-1v-0.3H17.4z"/>
			<path class="st5" d="M22,133.3h-0.9v1.2h-0.3v-1.2h-2.4v-0.2l2.3-2.8H21l-2.2,2.8h2v-1h0.3v1H22V133.3z"/>
			<path class="st5" d="M23.2,134.2c-0.2-0.2-0.4-0.4-0.6-0.7c-0.1-0.3-0.2-0.7-0.2-1.1c0-0.4,0.1-0.8,0.2-1.1
				c0.1-0.3,0.3-0.6,0.6-0.7s0.5-0.3,0.9-0.3c0.3,0,0.6,0.1,0.9,0.3s0.4,0.4,0.6,0.7c0.1,0.3,0.2,0.7,0.2,1.1c0,0.4-0.1,0.8-0.2,1.1
				c-0.1,0.3-0.3,0.6-0.6,0.7c-0.2,0.2-0.5,0.3-0.9,0.3C23.7,134.5,23.4,134.4,23.2,134.2z M24.7,134c0.2-0.1,0.4-0.4,0.5-0.6
				c0.1-0.3,0.2-0.6,0.2-1c0-0.4-0.1-0.7-0.2-1c-0.1-0.3-0.3-0.5-0.5-0.6c-0.2-0.1-0.4-0.2-0.7-0.2c-0.3,0-0.5,0.1-0.7,0.2
				c-0.2,0.1-0.4,0.4-0.5,0.6c-0.1,0.3-0.2,0.6-0.2,1c0,0.4,0.1,0.7,0.2,1c0.1,0.3,0.3,0.5,0.5,0.6c0.2,0.1,0.4,0.2,0.7,0.2
				C24.3,134.2,24.5,134.1,24.7,134z"/>
			<path class="st5" d="M27.1,134.2c-0.2-0.2-0.4-0.4-0.6-0.7c-0.1-0.3-0.2-0.7-0.2-1.1c0-0.4,0.1-0.8,0.2-1.1
				c0.1-0.3,0.3-0.6,0.6-0.7s0.5-0.3,0.9-0.3c0.3,0,0.6,0.1,0.9,0.3s0.4,0.4,0.6,0.7c0.1,0.3,0.2,0.7,0.2,1.1c0,0.4-0.1,0.8-0.2,1.1
				c-0.1,0.3-0.3,0.6-0.6,0.7c-0.2,0.2-0.5,0.3-0.9,0.3C27.6,134.5,27.4,134.4,27.1,134.2z M28.7,134c0.2-0.1,0.4-0.4,0.5-0.6
				c0.1-0.3,0.2-0.6,0.2-1c0-0.4-0.1-0.7-0.2-1c-0.1-0.3-0.3-0.5-0.5-0.6c-0.2-0.1-0.4-0.2-0.7-0.2c-0.3,0-0.5,0.1-0.7,0.2
				c-0.2,0.1-0.4,0.4-0.5,0.6c-0.1,0.3-0.2,0.6-0.2,1c0,0.4,0.1,0.7,0.2,1c0.1,0.3,0.3,0.5,0.5,0.6c0.2,0.1,0.4,0.2,0.7,0.2
				C28.2,134.2,28.5,134.1,28.7,134z"/>
		</g>
		<g class="st4">
			<path class="st5" d="M17.7,144.2v4.2h-0.3v-3.9h-1v-0.3H17.7z"/>
			<path class="st5" d="M21.2,146.1c0.2,0.1,0.4,0.2,0.5,0.4c0.1,0.2,0.2,0.4,0.2,0.7c0,0.3-0.1,0.5-0.2,0.7
				c-0.1,0.2-0.3,0.3-0.5,0.4c-0.2,0.1-0.5,0.2-0.7,0.2c-0.5,0-1-0.2-1.3-0.6c-0.3-0.4-0.4-0.9-0.4-1.6c0-0.5,0.1-0.9,0.2-1.2
				c0.2-0.3,0.4-0.6,0.7-0.7s0.6-0.2,1-0.2c0.4,0,0.7,0.1,1,0.2l-0.1,0.2c-0.2-0.1-0.5-0.2-0.8-0.2c-0.5,0-0.9,0.2-1.1,0.5
				c-0.3,0.3-0.4,0.8-0.4,1.4c0,0.2,0,0.4,0,0.5c0.1-0.3,0.2-0.5,0.5-0.6c0.2-0.2,0.5-0.2,0.8-0.2C20.7,145.9,21,146,21.2,146.1z
				 M21.2,147.9c0.2-0.2,0.3-0.4,0.3-0.7c0-0.3-0.1-0.5-0.3-0.7c-0.2-0.2-0.5-0.3-0.8-0.3c-0.2,0-0.4,0-0.6,0.1
				c-0.2,0.1-0.3,0.2-0.4,0.4c-0.1,0.2-0.1,0.3-0.1,0.5c0,0.2,0,0.3,0.1,0.5c0.1,0.2,0.2,0.3,0.4,0.4s0.4,0.1,0.6,0.1
				C20.8,148.2,21,148.1,21.2,147.9z"/>
			<path class="st5" d="M23.2,148.2c-0.2-0.2-0.4-0.4-0.6-0.7c-0.1-0.3-0.2-0.7-0.2-1.1c0-0.4,0.1-0.8,0.2-1.1
				c0.1-0.3,0.3-0.6,0.6-0.7s0.5-0.3,0.9-0.3c0.3,0,0.6,0.1,0.9,0.3s0.4,0.4,0.6,0.7c0.1,0.3,0.2,0.7,0.2,1.1c0,0.4-0.1,0.8-0.2,1.1
				c-0.1,0.3-0.3,0.6-0.6,0.7c-0.2,0.2-0.5,0.3-0.9,0.3C23.7,148.4,23.4,148.4,23.2,148.2z M24.7,147.9c0.2-0.1,0.4-0.4,0.5-0.6
				c0.1-0.3,0.2-0.6,0.2-1c0-0.4-0.1-0.7-0.2-1c-0.1-0.3-0.3-0.5-0.5-0.6c-0.2-0.1-0.4-0.2-0.7-0.2c-0.3,0-0.5,0.1-0.7,0.2
				c-0.2,0.1-0.4,0.4-0.5,0.6c-0.1,0.3-0.2,0.6-0.2,1c0,0.4,0.1,0.7,0.2,1c0.1,0.3,0.3,0.5,0.5,0.6c0.2,0.1,0.4,0.2,0.7,0.2
				C24.3,148.2,24.5,148.1,24.7,147.9z"/>
			<path class="st5" d="M27.1,148.2c-0.2-0.2-0.4-0.4-0.6-0.7c-0.1-0.3-0.2-0.7-0.2-1.1c0-0.4,0.1-0.8,0.2-1.1
				c0.1-0.3,0.3-0.6,0.6-0.7s0.5-0.3,0.9-0.3c0.3,0,0.6,0.1,0.9,0.3s0.4,0.4,0.6,0.7c0.1,0.3,0.2,0.7,0.2,1.1c0,0.4-0.1,0.8-0.2,1.1
				c-0.1,0.3-0.3,0.6-0.6,0.7c-0.2,0.2-0.5,0.3-0.9,0.3C27.6,148.4,27.4,148.4,27.1,148.2z M28.7,147.9c0.2-0.1,0.4-0.4,0.5-0.6
				c0.1-0.3,0.2-0.6,0.2-1c0-0.4-0.1-0.7-0.2-1c-0.1-0.3-0.3-0.5-0.5-0.6c-0.2-0.1-0.4-0.2-0.7-0.2c-0.3,0-0.5,0.1-0.7,0.2
				c-0.2,0.1-0.4,0.4-0.5,0.6c-0.1,0.3-0.2,0.6-0.2,1c0,0.4,0.1,0.7,0.2,1c0.1,0.3,0.3,0.5,0.5,0.6c0.2,0.1,0.4,0.2,0.7,0.2
				C28.2,148.2,28.5,148.1,28.7,147.9z"/>
		</g>
		<rect x="31.6" y="41.5" class="st5" width="4" height="1.3"/>
		<rect x="31.6" y="48.4" class="st5" width="4" height="1.3"/>
		<rect x="31.6" y="55.4" class="st5" width="4" height="1.3"/>
		<rect x="31.6" y="62.4" class="st5" width="4" height="1.3"/>
		<rect x="31.6" y="69.4" class="st5" width="4" height="1.3"/>
		<rect x="31.6" y="76.4" class="st5" width="4" height="1.3"/>
		<rect x="31.6" y="83.4" class="st5" width="4" height="1.3"/>
		<rect x="31.6" y="90.4" class="st5" width="4" height="1.3"/>
		<rect x="31.6" y="97.4" class="st5" width="4" height="1.3"/>
		<rect x="31.6" y="104.3" class="st5" width="4" height="1.3"/>
		<rect x="31.6" y="111.3" class="st5" width="4" height="1.3"/>
		<rect x="31.6" y="118.3" class="st5" width="4" height="1.3"/>
		<rect x="31.6" y="125.3" class="st5" width="4" height="1.3"/>
		<rect x="31.6" y="132.3" class="st5" width="4" height="1.4"/>
		<rect x="31.6" y="139.3" class="st5" width="4" height="1.4"/>
		<rect x="31.6" y="146.3" class="st5" width="4" height="1.4"/>
		<rect x="39.7" y="41.5" class="st5" width="4" height="1.3"/>
		<rect x="39.7" y="48.4" class="st5" width="4" height="1.3"/>
		<rect x="39.7" y="55.4" class="st5" width="4" height="1.3"/>
		<rect x="39.7" y="62.4" class="st5" width="4" height="1.3"/>
		<rect x="39.7" y="69.4" class="st5" width="4" height="1.3"/>
		<rect x="39.7" y="76.4" class="st5" width="4" height="1.3"/>
		<rect x="39.7" y="83.4" class="st5" width="4" height="1.3"/>
		<rect x="39.7" y="90.4" class="st5" width="4" height="1.3"/>
		<rect x="39.7" y="97.4" class="st5" width="4" height="1.3"/>
		<rect x="39.7" y="104.3" class="st5" width="4" height="1.3"/>
		<rect x="39.7" y="111.3" class="st5" width="4" height="1.3"/>
		<rect x="39.7" y="118.3" class="st5" width="4" height="1.3"/>
		<rect x="39.7" y="125.3" class="st5" width="4" height="1.3"/>
		<rect x="39.7" y="132.3" class="st5" width="4" height="1.4"/>
		<rect x="39.7" y="139.3" class="st5" width="4" height="1.4"/>
		<rect x="39.7" y="146.3" class="st5" width="4" height="1.4"/>
		<g class="st4">
			<path class="st5" d="M48.8,50.3v0.3h-2.9v-0.2l1.8-1.8c0.2-0.2,0.4-0.4,0.5-0.6c0.1-0.2,0.1-0.3,0.1-0.5c0-0.3-0.1-0.5-0.3-0.6
				c-0.2-0.2-0.4-0.2-0.8-0.2c-0.3,0-0.5,0-0.7,0.1c-0.2,0.1-0.4,0.2-0.5,0.4l-0.2-0.2c0.2-0.2,0.4-0.3,0.6-0.4
				c0.2-0.1,0.5-0.2,0.8-0.2c0.4,0,0.7,0.1,1,0.3s0.4,0.5,0.4,0.8c0,0.2,0,0.4-0.1,0.6c-0.1,0.2-0.3,0.4-0.5,0.7l-1.5,1.5H48.8z"/>
			<path class="st5" d="M50.1,50.3c-0.2-0.2-0.4-0.4-0.6-0.7c-0.1-0.3-0.2-0.7-0.2-1.1c0-0.4,0.1-0.8,0.2-1.1
				c0.1-0.3,0.3-0.6,0.6-0.7s0.5-0.3,0.9-0.3c0.3,0,0.6,0.1,0.9,0.3s0.4,0.4,0.6,0.7c0.1,0.3,0.2,0.7,0.2,1.1c0,0.4-0.1,0.8-0.2,1.1
				c-0.1,0.3-0.3,0.6-0.6,0.7c-0.2,0.2-0.5,0.3-0.9,0.3C50.6,50.6,50.4,50.5,50.1,50.3z M51.7,50.1c0.2-0.1,0.4-0.4,0.5-0.6
				c0.1-0.3,0.2-0.6,0.2-1c0-0.4-0.1-0.7-0.2-1c-0.1-0.3-0.3-0.5-0.5-0.6c-0.2-0.1-0.4-0.2-0.7-0.2c-0.3,0-0.5,0.1-0.7,0.2
				c-0.2,0.1-0.4,0.4-0.5,0.6c-0.1,0.3-0.2,0.6-0.2,1c0,0.4,0.1,0.7,0.2,1c0.1,0.3,0.3,0.5,0.5,0.6c0.2,0.1,0.4,0.2,0.7,0.2
				C51.2,50.3,51.5,50.2,51.7,50.1z"/>
		</g>
		<g class="st4">
			<path class="st5" d="M49.3,63.4h-0.9v1.2h-0.3v-1.2h-2.4v-0.2l2.3-2.8h0.3l-2.2,2.8h2v-1h0.3v1h0.9V63.4z"/>
			<path class="st5" d="M50.5,64.3c-0.2-0.2-0.4-0.4-0.6-0.7c-0.1-0.3-0.2-0.7-0.2-1.1c0-0.4,0.1-0.8,0.2-1.1
				c0.1-0.3,0.3-0.6,0.6-0.7s0.5-0.3,0.9-0.3s0.6,0.1,0.9,0.3s0.4,0.4,0.6,0.7C53,61.6,53,62,53,62.5c0,0.4-0.1,0.8-0.2,1.1
				c-0.1,0.3-0.3,0.6-0.6,0.7c-0.2,0.2-0.5,0.3-0.9,0.3S50.8,64.5,50.5,64.3z M52.1,64.1c0.2-0.1,0.4-0.4,0.5-0.6
				c0.1-0.3,0.2-0.6,0.2-1c0-0.4-0.1-0.7-0.2-1s-0.3-0.5-0.5-0.6c-0.2-0.1-0.4-0.2-0.7-0.2s-0.5,0.1-0.7,0.2
				c-0.2,0.1-0.4,0.4-0.5,0.6s-0.2,0.6-0.2,1c0,0.4,0.1,0.7,0.2,1c0.1,0.3,0.3,0.5,0.5,0.6c0.2,0.1,0.4,0.2,0.7,0.2
				S51.9,64.2,52.1,64.1z"/>
		</g>
		<g class="st4">
			<path class="st5" d="M48.2,76.2c0.2,0.1,0.4,0.2,0.5,0.4c0.1,0.2,0.2,0.4,0.2,0.7c0,0.3-0.1,0.5-0.2,0.7
				c-0.1,0.2-0.3,0.3-0.5,0.4c-0.2,0.1-0.5,0.2-0.7,0.2c-0.5,0-1-0.2-1.2-0.6c-0.3-0.4-0.4-0.9-0.4-1.6c0-0.5,0.1-0.9,0.2-1.2
				s0.4-0.6,0.7-0.7s0.6-0.2,1-0.2c0.4,0,0.7,0.1,1,0.2l-0.1,0.2c-0.2-0.1-0.5-0.2-0.8-0.2c-0.5,0-0.9,0.2-1.1,0.5
				c-0.3,0.3-0.4,0.8-0.4,1.4c0,0.2,0,0.4,0,0.5c0.1-0.3,0.2-0.5,0.5-0.6c0.2-0.2,0.5-0.2,0.8-0.2C47.7,76,48,76.1,48.2,76.2z
				 M48.2,78c0.2-0.2,0.3-0.4,0.3-0.7c0-0.3-0.1-0.5-0.3-0.7c-0.2-0.2-0.5-0.3-0.8-0.3c-0.2,0-0.4,0-0.6,0.1s-0.3,0.2-0.4,0.4
				c-0.1,0.2-0.1,0.3-0.1,0.5c0,0.2,0,0.3,0.1,0.5c0.1,0.2,0.2,0.3,0.4,0.4c0.2,0.1,0.4,0.1,0.6,0.1C47.8,78.3,48,78.2,48.2,78z"/>
			<path class="st5" d="M50.2,78.3c-0.2-0.2-0.4-0.4-0.6-0.7c-0.1-0.3-0.2-0.7-0.2-1.1c0-0.4,0.1-0.8,0.2-1.1
				c0.1-0.3,0.3-0.6,0.6-0.7s0.5-0.3,0.9-0.3s0.6,0.1,0.9,0.3s0.4,0.4,0.6,0.7c0.1,0.3,0.2,0.7,0.2,1.1c0,0.4-0.1,0.8-0.2,1.1
				c-0.1,0.3-0.3,0.6-0.6,0.7c-0.2,0.2-0.5,0.3-0.9,0.3S50.4,78.5,50.2,78.3z M51.7,78.1c0.2-0.1,0.4-0.4,0.5-0.6
				c0.1-0.3,0.2-0.6,0.2-1c0-0.4-0.1-0.7-0.2-1c-0.1-0.3-0.3-0.5-0.5-0.6c-0.2-0.1-0.4-0.2-0.7-0.2s-0.5,0.1-0.7,0.2
				c-0.2,0.1-0.4,0.4-0.5,0.6c-0.1,0.3-0.2,0.6-0.2,1c0,0.4,0.1,0.7,0.2,1c0.1,0.3,0.3,0.5,0.5,0.6c0.2,0.1,0.4,0.2,0.7,0.2
				S51.5,78.2,51.7,78.1z"/>
		</g>
		<g class="st4">
			<path class="st5" d="M48.7,90.7c0.2,0.2,0.2,0.4,0.2,0.7c0,0.4-0.1,0.7-0.4,0.9s-0.7,0.3-1.2,0.3c-0.5,0-0.9-0.1-1.2-0.3
				s-0.4-0.5-0.4-0.9c0-0.3,0.1-0.5,0.2-0.7c0.2-0.2,0.4-0.3,0.7-0.4c-0.2-0.1-0.4-0.2-0.6-0.4s-0.2-0.4-0.2-0.6
				c0-0.3,0.1-0.6,0.4-0.8c0.3-0.2,0.6-0.3,1-0.3c0.4,0,0.8,0.1,1,0.3c0.3,0.2,0.4,0.5,0.4,0.8c0,0.2-0.1,0.4-0.2,0.6
				c-0.1,0.2-0.3,0.3-0.6,0.4C48.3,90.4,48.5,90.5,48.7,90.7z M48.3,92c0.2-0.2,0.3-0.4,0.3-0.7c0-0.3-0.1-0.5-0.3-0.7
				c-0.2-0.2-0.5-0.2-0.9-0.2c-0.4,0-0.7,0.1-0.9,0.2c-0.2,0.2-0.3,0.4-0.3,0.7c0,0.3,0.1,0.5,0.3,0.7c0.2,0.2,0.5,0.2,0.9,0.2
				S48.1,92.2,48.3,92z M46.5,90c0.2,0.1,0.5,0.2,0.8,0.2c0.4,0,0.6-0.1,0.8-0.2c0.2-0.1,0.3-0.3,0.3-0.6c0-0.3-0.1-0.5-0.3-0.6
				c-0.2-0.1-0.5-0.2-0.8-0.2s-0.6,0.1-0.8,0.2c-0.2,0.1-0.3,0.4-0.3,0.6C46.2,89.6,46.3,89.8,46.5,90z"/>
			<path class="st5" d="M50.4,92.3c-0.2-0.2-0.4-0.4-0.6-0.7c-0.1-0.3-0.2-0.7-0.2-1.1c0-0.4,0.1-0.8,0.2-1.1
				c0.1-0.3,0.3-0.6,0.6-0.7s0.5-0.3,0.9-0.3s0.6,0.1,0.9,0.3s0.4,0.4,0.6,0.7c0.1,0.3,0.2,0.7,0.2,1.1c0,0.4-0.1,0.8-0.2,1.1
				c-0.1,0.3-0.3,0.6-0.6,0.7c-0.2,0.2-0.5,0.3-0.9,0.3S50.6,92.4,50.4,92.3z M51.9,92c0.2-0.1,0.4-0.4,0.5-0.6
				c0.1-0.3,0.2-0.6,0.2-1c0-0.4-0.1-0.7-0.2-1s-0.3-0.5-0.5-0.6c-0.2-0.1-0.4-0.2-0.7-0.2s-0.5,0.1-0.7,0.2
				c-0.2,0.1-0.4,0.4-0.5,0.6s-0.2,0.6-0.2,1c0,0.4,0.1,0.7,0.2,1c0.1,0.3,0.3,0.5,0.5,0.6c0.2,0.1,0.4,0.2,0.7,0.2
				S51.7,92.2,51.9,92z"/>
		</g>
		<g class="st4">
			<path class="st5" d="M47.1,102.3v4.2h-0.3v-3.9h-1v-0.3H47.1z"/>
			<path class="st5" d="M48.9,106.2c-0.2-0.2-0.4-0.4-0.6-0.7c-0.1-0.3-0.2-0.7-0.2-1.1c0-0.4,0.1-0.8,0.2-1.1
				c0.1-0.3,0.3-0.6,0.6-0.7s0.5-0.3,0.9-0.3c0.3,0,0.6,0.1,0.9,0.3s0.4,0.4,0.6,0.7c0.1,0.3,0.2,0.7,0.2,1.1c0,0.4-0.1,0.8-0.2,1.1
				c-0.1,0.3-0.3,0.6-0.6,0.7c-0.2,0.2-0.5,0.3-0.9,0.3C49.5,106.5,49.2,106.4,48.9,106.2z M50.5,106c0.2-0.1,0.4-0.4,0.5-0.6
				c0.1-0.3,0.2-0.6,0.2-1c0-0.4-0.1-0.7-0.2-1c-0.1-0.3-0.3-0.5-0.5-0.6c-0.2-0.1-0.4-0.2-0.7-0.2c-0.3,0-0.5,0.1-0.7,0.2
				c-0.2,0.1-0.4,0.4-0.5,0.6c-0.1,0.3-0.2,0.6-0.2,1c0,0.4,0.1,0.7,0.2,1c0.1,0.3,0.3,0.5,0.5,0.6c0.2,0.1,0.4,0.2,0.7,0.2
				C50.1,106.2,50.3,106.2,50.5,106z"/>
			<path class="st5" d="M52.9,106.2c-0.2-0.2-0.4-0.4-0.6-0.7c-0.1-0.3-0.2-0.7-0.2-1.1c0-0.4,0.1-0.8,0.2-1.1
				c0.1-0.3,0.3-0.6,0.6-0.7s0.5-0.3,0.9-0.3s0.6,0.1,0.9,0.3s0.4,0.4,0.6,0.7c0.1,0.3,0.2,0.7,0.2,1.1c0,0.4-0.1,0.8-0.2,1.1
				c-0.1,0.3-0.3,0.6-0.6,0.7c-0.2,0.2-0.5,0.3-0.9,0.3S53.1,106.4,52.9,106.2z M54.4,106c0.2-0.1,0.4-0.4,0.5-0.6
				c0.1-0.3,0.2-0.6,0.2-1c0-0.4-0.1-0.7-0.2-1s-0.3-0.5-0.5-0.6c-0.2-0.1-0.4-0.2-0.7-0.2s-0.5,0.1-0.7,0.2
				c-0.2,0.1-0.4,0.4-0.5,0.6s-0.2,0.6-0.2,1c0,0.4,0.1,0.7,0.2,1c0.1,0.3,0.3,0.5,0.5,0.6c0.2,0.1,0.4,0.2,0.7,0.2
				S54.2,106.2,54.4,106z"/>
		</g>
		<g class="st4">
			<path class="st5" d="M47.1,116.3v4.2h-0.3v-3.9h-1v-0.3H47.1z"/>
			<path class="st5" d="M51,120.2v0.3h-2.9v-0.2l1.8-1.8c0.2-0.2,0.4-0.4,0.5-0.6c0.1-0.2,0.1-0.3,0.1-0.5c0-0.3-0.1-0.5-0.3-0.6
				c-0.2-0.2-0.4-0.2-0.8-0.2c-0.3,0-0.5,0-0.7,0.1c-0.2,0.1-0.4,0.2-0.5,0.4l-0.2-0.2c0.2-0.2,0.4-0.3,0.6-0.4
				c0.2-0.1,0.5-0.2,0.8-0.2c0.4,0,0.7,0.1,1,0.3s0.4,0.5,0.4,0.8c0,0.2,0,0.4-0.1,0.6c-0.1,0.2-0.3,0.4-0.5,0.7l-1.5,1.5H51z"/>
			<path class="st5" d="M52.3,120.2c-0.2-0.2-0.4-0.4-0.6-0.7c-0.1-0.3-0.2-0.7-0.2-1.1c0-0.4,0.1-0.8,0.2-1.1
				c0.1-0.3,0.3-0.6,0.6-0.7s0.5-0.3,0.9-0.3s0.6,0.1,0.9,0.3s0.4,0.4,0.6,0.7c0.1,0.3,0.2,0.7,0.2,1.1c0,0.4-0.1,0.8-0.2,1.1
				c-0.1,0.3-0.3,0.6-0.6,0.7c-0.2,0.2-0.5,0.3-0.9,0.3S52.6,120.4,52.3,120.2z M53.9,120c0.2-0.1,0.4-0.4,0.5-0.6
				c0.1-0.3,0.2-0.6,0.2-1c0-0.4-0.1-0.7-0.2-1s-0.3-0.5-0.5-0.6c-0.2-0.1-0.4-0.2-0.7-0.2s-0.5,0.1-0.7,0.2
				c-0.2,0.1-0.4,0.4-0.5,0.6s-0.2,0.6-0.2,1c0,0.4,0.1,0.7,0.2,1c0.1,0.3,0.3,0.5,0.5,0.6c0.2,0.1,0.4,0.2,0.7,0.2
				S53.7,120.1,53.9,120z"/>
		</g>
		<g class="st4">
			<path class="st5" d="M47.1,130.2v4.2h-0.3v-3.9h-1v-0.3H47.1z"/>
			<path class="st5" d="M51.7,133.3h-0.9v1.2h-0.3v-1.2h-2.4v-0.2l2.3-2.8h0.3l-2.2,2.8h2v-1h0.3v1h0.9V133.3z"/>
			<path class="st5" d="M52.9,134.2c-0.2-0.2-0.4-0.4-0.6-0.7c-0.1-0.3-0.2-0.7-0.2-1.1c0-0.4,0.1-0.8,0.2-1.1
				c0.1-0.3,0.3-0.6,0.6-0.7s0.5-0.3,0.9-0.3c0.3,0,0.6,0.1,0.9,0.3s0.4,0.4,0.6,0.7c0.1,0.3,0.2,0.7,0.2,1.1c0,0.4-0.1,0.8-0.2,1.1
				c-0.1,0.3-0.3,0.6-0.6,0.7c-0.2,0.2-0.5,0.3-0.9,0.3C53.4,134.5,53.1,134.4,52.9,134.2z M54.4,134c0.2-0.1,0.4-0.4,0.5-0.6
				c0.1-0.3,0.2-0.6,0.2-1c0-0.4-0.1-0.7-0.2-1c-0.1-0.3-0.3-0.5-0.5-0.6c-0.2-0.1-0.4-0.2-0.7-0.2c-0.3,0-0.5,0.1-0.7,0.2
				c-0.2,0.1-0.4,0.4-0.5,0.6c-0.1,0.3-0.2,0.6-0.2,1c0,0.4,0.1,0.7,0.2,1c0.1,0.3,0.3,0.5,0.5,0.6c0.2,0.1,0.4,0.2,0.7,0.2
				C54,134.2,54.2,134.1,54.4,134z"/>
		</g>
		<g class="st4">
			<path class="st5" d="M47.1,144.2v4.2h-0.3v-3.9h-1v-0.3H47.1z"/>
			<path class="st5" d="M50.6,146.1c0.2,0.1,0.4,0.2,0.5,0.4c0.1,0.2,0.2,0.4,0.2,0.7c0,0.3-0.1,0.5-0.2,0.7
				c-0.1,0.2-0.3,0.3-0.5,0.4c-0.2,0.1-0.5,0.2-0.7,0.2c-0.5,0-1-0.2-1.3-0.6c-0.3-0.4-0.4-0.9-0.4-1.6c0-0.5,0.1-0.9,0.2-1.2
				s0.4-0.6,0.7-0.7c0.3-0.2,0.6-0.2,1-0.2c0.4,0,0.7,0.1,1,0.2l-0.1,0.2c-0.2-0.1-0.5-0.2-0.8-0.2c-0.5,0-0.9,0.2-1.1,0.5
				c-0.3,0.3-0.4,0.8-0.4,1.4c0,0.2,0,0.4,0,0.5c0.1-0.3,0.2-0.5,0.5-0.6s0.5-0.2,0.8-0.2C50.1,145.9,50.4,146,50.6,146.1z
				 M50.6,147.9c0.2-0.2,0.3-0.4,0.3-0.7c0-0.3-0.1-0.5-0.3-0.7c-0.2-0.2-0.5-0.3-0.8-0.3c-0.2,0-0.4,0-0.6,0.1
				c-0.2,0.1-0.3,0.2-0.4,0.4c-0.1,0.2-0.1,0.3-0.1,0.5c0,0.2,0,0.3,0.1,0.5c0.1,0.2,0.2,0.3,0.4,0.4s0.4,0.1,0.6,0.1
				C50.2,148.2,50.4,148.1,50.6,147.9z"/>
			<path class="st5" d="M52.6,148.2c-0.2-0.2-0.4-0.4-0.6-0.7c-0.1-0.3-0.2-0.7-0.2-1.1c0-0.4,0.1-0.8,0.2-1.1
				c0.1-0.3,0.3-0.6,0.6-0.7s0.5-0.3,0.9-0.3c0.3,0,0.6,0.1,0.9,0.3s0.4,0.4,0.6,0.7c0.1,0.3,0.2,0.7,0.2,1.1c0,0.4-0.1,0.8-0.2,1.1
				c-0.1,0.3-0.3,0.6-0.6,0.7c-0.2,0.2-0.5,0.3-0.9,0.3C53.1,148.4,52.8,148.4,52.6,148.2z M54.1,147.9c0.2-0.1,0.4-0.4,0.5-0.6
				c0.1-0.3,0.2-0.6,0.2-1c0-0.4-0.1-0.7-0.2-1c-0.1-0.3-0.3-0.5-0.5-0.6c-0.2-0.1-0.4-0.2-0.7-0.2c-0.3,0-0.5,0.1-0.7,0.2
				c-0.2,0.1-0.4,0.4-0.5,0.6c-0.1,0.3-0.2,0.6-0.2,1c0,0.4,0.1,0.7,0.2,1c0.1,0.3,0.3,0.5,0.5,0.6c0.2,0.1,0.4,0.2,0.7,0.2
				C53.7,148.2,53.9,148.1,54.1,147.9z"/>
		</g>
		<g class="st4">
			<path class="st5" d="M27.1,37c-0.3-0.2-0.4-0.4-0.6-0.7c-0.1-0.3-0.2-0.7-0.2-1.1s0.1-0.8,0.2-1.1c0.1-0.3,0.3-0.6,0.6-0.7
				c0.3-0.2,0.5-0.3,0.9-0.3s0.6,0.1,0.9,0.3s0.4,0.4,0.6,0.7c0.1,0.3,0.2,0.7,0.2,1.1s-0.1,0.8-0.2,1.1c-0.1,0.3-0.3,0.6-0.6,0.7
				s-0.5,0.3-0.9,0.3S27.3,37.2,27.1,37z M28.7,36.7c0.2-0.1,0.4-0.4,0.5-0.6c0.1-0.3,0.2-0.6,0.2-1s-0.1-0.7-0.2-1
				c-0.1-0.3-0.3-0.5-0.5-0.6s-0.4-0.2-0.7-0.2s-0.5,0.1-0.7,0.2s-0.4,0.4-0.5,0.6c-0.1,0.3-0.2,0.6-0.2,1s0.1,0.7,0.2,1
				c0.1,0.3,0.3,0.5,0.5,0.6S27.7,37,28,37S28.5,36.9,28.7,36.7z"/>
		</g>
		<g class="st4">
			<path class="st5" d="M46.6,37c-0.3-0.2-0.4-0.4-0.6-0.7s-0.2-0.7-0.2-1.1s0.1-0.8,0.2-1.1c0.1-0.3,0.3-0.6,0.6-0.7
				s0.5-0.3,0.9-0.3s0.6,0.1,0.9,0.3c0.3,0.2,0.4,0.4,0.6,0.7c0.1,0.3,0.2,0.7,0.2,1.1s-0.1,0.8-0.2,1.1c-0.1,0.3-0.3,0.6-0.6,0.7
				c-0.3,0.2-0.5,0.3-0.9,0.3S46.8,37.2,46.6,37z M48.1,36.7c0.2-0.1,0.4-0.4,0.5-0.6c0.1-0.3,0.2-0.6,0.2-1s-0.1-0.7-0.2-1
				c-0.1-0.3-0.3-0.5-0.5-0.6s-0.4-0.2-0.7-0.2s-0.5,0.1-0.7,0.2s-0.4,0.4-0.5,0.6c-0.1,0.3-0.2,0.6-0.2,1s0.1,0.7,0.2,1
				c0.1,0.3,0.3,0.5,0.5,0.6s0.4,0.2,0.7,0.2S47.9,36.9,48.1,36.7z"/>
		</g>
		<g class="st4">
			<path class="st5" d="M27.5,20.2v6.4h-1.2l-3.2-3.9v3.9h-1.5v-6.4h1.2l3.2,3.9v-3.9H27.5z"/>
		</g>
		<g class="st4">
			<path class="st5" d="M47,23.8l-0.5,0.4v0.8h-0.9v-4.5h0.9v2.5l1.4-1.3H49l-1.4,1.4l1.5,1.9H48L47,23.8z"/>
			<path class="st5" d="M52.8,21.8v2.7c0,0.6-0.2,1-0.5,1.3c-0.3,0.3-0.8,0.4-1.4,0.4c-0.3,0-0.6,0-0.9-0.1
				c-0.3-0.1-0.5-0.2-0.7-0.3l0.4-0.7c0.1,0.1,0.3,0.2,0.5,0.3c0.2,0.1,0.4,0.1,0.6,0.1c0.3,0,0.6-0.1,0.7-0.2s0.2-0.4,0.2-0.7v-0.1
				c-0.2,0.3-0.6,0.4-1,0.4c-0.3,0-0.6-0.1-0.8-0.2c-0.2-0.1-0.4-0.3-0.6-0.6s-0.2-0.5-0.2-0.8c0-0.3,0.1-0.6,0.2-0.8
				s0.3-0.4,0.6-0.6c0.2-0.1,0.5-0.2,0.8-0.2c0.5,0,0.8,0.2,1.1,0.5v-0.4H52.8z M51.6,23.9c0.2-0.1,0.2-0.3,0.2-0.6
				s-0.1-0.4-0.2-0.6c-0.2-0.1-0.4-0.2-0.6-0.2c-0.2,0-0.5,0.1-0.6,0.2c-0.2,0.1-0.2,0.3-0.2,0.6s0.1,0.4,0.2,0.6
				c0.2,0.1,0.4,0.2,0.6,0.2C51.2,24.2,51.5,24.1,51.6,23.9z"/>
		</g>
		<g class="st4">
			<path class="st5" d="M56.2,24.1h-2.7c0,0.3,0.2,0.6,0.4,0.8s0.5,0.3,0.9,0.3c0.2,0,0.4,0,0.5-0.1c0.2-0.1,0.3-0.2,0.4-0.3
				l0.2,0.3c-0.1,0.2-0.3,0.3-0.5,0.4c-0.2,0.1-0.4,0.1-0.7,0.1c-0.3,0-0.6-0.1-0.9-0.2c-0.3-0.1-0.4-0.3-0.6-0.6
				c-0.1-0.2-0.2-0.5-0.2-0.8s0.1-0.6,0.2-0.8c0.1-0.2,0.3-0.4,0.6-0.6c0.2-0.1,0.5-0.2,0.8-0.2s0.6,0.1,0.8,0.2
				c0.2,0.1,0.4,0.3,0.6,0.6c0.1,0.2,0.2,0.5,0.2,0.8L56.2,24.1z M53.9,23c-0.2,0.2-0.3,0.5-0.4,0.8h2.3c0-0.3-0.1-0.6-0.4-0.8
				c-0.2-0.2-0.5-0.3-0.8-0.3C54.4,22.7,54.1,22.8,53.9,23z"/>
			<path class="st5" d="M60,22.4v4.4h-0.4V25c-0.1,0.2-0.3,0.4-0.5,0.5c-0.2,0.1-0.4,0.2-0.7,0.2c-0.3,0-0.6-0.1-0.8-0.2
				c-0.2-0.1-0.4-0.3-0.6-0.6c-0.1-0.2-0.2-0.5-0.2-0.8c0-0.3,0.1-0.6,0.2-0.8c0.1-0.2,0.3-0.4,0.6-0.6c0.2-0.1,0.5-0.2,0.8-0.2
				c0.3,0,0.5,0.1,0.7,0.2c0.2,0.1,0.4,0.3,0.5,0.5v-0.6H60z M59,25c0.2-0.1,0.3-0.2,0.4-0.4c0.1-0.2,0.2-0.4,0.2-0.6
				s-0.1-0.5-0.2-0.6c-0.1-0.2-0.2-0.3-0.4-0.4c-0.2-0.1-0.4-0.2-0.6-0.2c-0.2,0-0.4,0.1-0.6,0.2c-0.2,0.1-0.3,0.3-0.4,0.4
				c-0.1,0.2-0.2,0.4-0.2,0.6s0.1,0.5,0.2,0.6c0.1,0.2,0.2,0.3,0.4,0.4c0.2,0.1,0.4,0.2,0.6,0.2C58.6,25.2,58.8,25.1,59,25z"/>
		</g>
	</g>
</g>
</svg>
