<svg xmlns="http://www.w3.org/2000/svg" xmlns:xlink="http://www.w3.org/1999/xlink" viewBox="0 0 725 11.38"><defs><style>.cls-1{isolation:isolate;}.cls-2{fill:#9b8579;}.cls-3{fill:#713b2e;}.cls-4{fill:#c8ac97;}.cls-5{fill:#c4a691;}.cls-6{fill:#bfa18c;}.cls-7{fill:#825b3e;}.cls-8{fill:#b99883;}.cls-9{fill:#b5947c;}.cls-10{fill:#b18d76;}.cls-11{fill:#ac8870;}.cls-12{fill:#af8c74;}.cls-13{fill:#ab866e;}.cls-14{fill:#a78066;}.cls-15{fill:#a27b61;}.cls-16{fill:#9f755a;}.cls-17{fill:#916448;}.cls-18{fill:#8c5e41;}.cls-19{fill:#aa836a;}.cls-20{fill:#a57e65;}.cls-21{fill:#a1785d;}.cls-22{fill:#9c7258;}.cls-23{fill:#986e51;}.cls-24{fill:#94674c;}.cls-25{fill:#8e6245;}.cls-26{fill:#8a5b3f;}.cls-27{fill:#865739;}.cls-28{fill:#825132;}.cls-29{fill:#b99881;}.cls-30{fill:#a27c63;}.cls-31{fill:#9f765a;}.cls-32{fill:#9a7155;}.cls-33{fill:#966b50;}.cls-34{fill:#91654a;}.cls-35{fill:#8d5f42;}.cls-36{fill:#895a3c;}.cls-37{fill:#855536;}.cls-38{fill:#b7977f;}.cls-39{fill:#b49078;}.cls-40{fill:#ab846c;}.cls-41{fill:#a68066;}.cls-42{fill:#a27a60;}.cls-43{fill:#9e755a;}.cls-44{fill:#9a7053;}.cls-45{fill:#956a4e;}.cls-46{fill:#916446;}.cls-47{fill:#8c5e40;}.cls-48{fill:#895a3b;}.cls-49{fill:#b18e76;}.cls-50{fill:#a88369;}.cls-51{fill:#a57e64;}.cls-52{fill:#9c7357;}.cls-53{fill:#986e50;}.cls-54{fill:#94684b;}.cls-55{fill:#8f6245;}.cls-56{fill:#8c5d3e;}.cls-57{fill:#875737;}.cls-58{fill:#a78166;}.cls-59{fill:#a37b61;}.cls-60{fill:#9b7154;}.cls-61{fill:#976b4e;}.cls-62{fill:#936547;}.cls-63{fill:#8d6040;}.cls-64{fill:#8a5a3b;}.cls-65{fill:#aa846c;}.cls-66{fill:#a57f65;}.cls-67{fill:#a27a5f;}.cls-68{fill:#9e7458;}.cls-69{fill:#996e51;}.cls-70{fill:#95694b;}.cls-71{fill:#906445;}.cls-72{fill:#8c5e3e;}.cls-73{fill:#a37d63;}.cls-74{fill:#a1785b;}.cls-75{fill:#9c7154;}.cls-76{fill:#976d4f;}.cls-77{fill:#936748;}.cls-78{fill:#906342;}.cls-79{fill:#9a7052;}.cls-80{fill:#976b4c;}.cls-81{fill:#936646;}.cls-82{fill:#9e7457;}.cls-83{fill:#996e4f;}.cls-84{fill:#966a48;}.cls-85{fill:#976d4c;}.cls-86{fill:#9a6f52;}.cls-87{fill:#986d48;}.cls-88{fill:#966b52;}.cls-89{fill:#9a704c;}.cls-90{fill:#9d7350;}.cls-91{fill:#95694a;}.cls-92{fill:#9a704f;}.cls-93{fill:#986e4c;}.cls-94{fill:#9f7551;}.cls-95{fill:#976c4b;}.cls-96{fill:#9c7350;}.cls-97{mix-blend-mode:multiply;fill:url(#linear-gradient);}.cls-98{fill:#e6c0a7;}.cls-99{fill:#e0b99e;}.cls-100{fill:#dab197;}.cls-101{fill:#d6ab8f;}.cls-102{fill:#d0a589;}.cls-103{fill:#cb9d81;}.cls-104{fill:#c6987b;}.cls-105{fill:#c19072;}.cls-106{fill:#d8b094;}.cls-107{fill:#d3a98d;}.cls-108{fill:#cfa386;}.cls-109{fill:#c99c7e;}.cls-110{fill:#c49478;}.cls-111{fill:#a37959;}.cls-112{fill:#dbb599;}.cls-113{fill:#d7ad90;}.cls-114{fill:#d2a78a;}.cls-115{fill:#cda083;}.cls-116{fill:#c7997b;}.cls-117{fill:#c29273;}.cls-118{fill:#be8b6c;}.cls-119{fill:#dab196;}.cls-120{fill:#d5aa8e;}.cls-121{fill:#d0a586;}.cls-122{fill:#c69678;}.cls-123{fill:#c18f6f;}.cls-124{fill:#bb8869;}.cls-125{fill:#d8ae93;}.cls-126{fill:#d3a98c;}.cls-127{fill:#cea183;}.cls-128{fill:#be8d6c;}.cls-129{fill:#b78765;}.cls-130{fill:#b37f5e;}.cls-131{fill:#d6ac90;}.cls-132{fill:#d2a689;}.cls-133{fill:#cd9f80;}.cls-134{fill:#bd8b6b;}.cls-135{fill:#b78462;}.cls-136{fill:#b37d5b;}.cls-137{fill:#d3aa8d;}.cls-138{fill:#c89c7d;}.cls-139{fill:#bb8966;}.cls-140{fill:#b6815f;}.cls-141{fill:#b17c59;}.cls-142{fill:#c79a7b;}.cls-143{fill:#c39373;}.cls-144{fill:#b37f5c;}.cls-145{fill:#af7954;}.cls-146{fill:#ca9e80;}.cls-147{fill:#c69878;}.cls-148{fill:#c29170;}.cls-149{fill:#b7835f;}.cls-150{fill:#b27d59;}.cls-151{fill:#c39575;}.cls-152{fill:#c08f6d;}.cls-153{fill:#b5815e;}.cls-154{fill:#b07b55;}.cls-155{fill:#c29272;}.cls-156{fill:#be8d6b;}.cls-157{fill:#b98661;}.cls-158{fill:#b3805b;}.cls-159{fill:#bd8a66;}.cls-160{fill:#b6835e;}.cls-161{fill:#b27e55;}.cls-162{fill:#b98764;}.cls-163{fill:#b5815b;}.cls-164{fill:#b98461;}.cls-165{fill:#b58155;}.cls-166{fill:#b37e61;}.cls-167{fill:#b9865a;}.cls-168{fill:#bc8a5f;}.cls-169{fill:#b9865d;}.cls-170{opacity:0.35;fill:url(#White_Black_2);}.cls-170,.cls-171{mix-blend-mode:overlay;}.cls-171{opacity:0.45;fill:url(#linear-gradient-2);}</style><linearGradient id="linear-gradient" x1="362.56" y1="4.38" x2="362.56" y2="-6.21" gradientUnits="userSpaceOnUse"><stop offset="0" stop-color="#fff"/><stop offset="0.15" stop-color="#fcfcfc"/><stop offset="0.26" stop-color="#f2f2f2"/><stop offset="0.37" stop-color="#e2e2e2"/><stop offset="0.46" stop-color="#cccbcb"/><stop offset="0.55" stop-color="#afadad"/><stop offset="0.63" stop-color="#8d8b8b"/></linearGradient><linearGradient id="White_Black_2" x1="362.5" y1="5.66" x2="362.5" y2="3.63" gradientUnits="userSpaceOnUse"><stop offset="0" stop-color="#fff"/><stop offset="1" stop-color="#231f20"/></linearGradient><linearGradient id="linear-gradient-2" x1="362.6" y1="10.14" x2="362.6" y2="11.65" gradientUnits="userSpaceOnUse"><stop offset="0" stop-color="#808285"/><stop offset="1" stop-color="#231f20"/></linearGradient></defs><g class="cls-1"><g id="Layer_2" data-name="Layer 2"><g id="landscape"><g id="Weight"><rect class="cls-2" x="0.11" y="4.69" width="724.89" height="5.6"/><rect class="cls-2" x="0.11" y="4.69" width="724.89" height="5.6"/><polygon class="cls-2" points="0.11 4.69 46.37 0 678.74 0 725 4.69 0.11 4.69"/><polygon class="cls-2" points="725 4.66 678.74 0.03 46.37 0.03 0.11 4.66 725 4.66"/><path class="cls-3" d="M723.44,4.63l.32-.08h0l1.2.11h-1.69Z"/><path class="cls-4" d="M723.29,4.66h-6.37l.53-.13h6.09l.25,0Z"/><path class="cls-4" d="M723.31,4.66h0l.14,0Z"/><path class="cls-4" d="M723.8,4.55Z"/><path class="cls-5" d="M717.45,4.53l.23-.06a7,7,0,0,0,.73-.24h2.14l3,.3Z"/><path class="cls-6" d="M718.41,4.23l.39-.18,1.75.17Z"/><path class="cls-7" d="M723.44,4.63l-.14,0h0l.5-.12h0Z"/><path class="cls-8" d="M711.15,4.51l.48-.15H718l-.36.11c-.23.07-.49.13-.76.19h-6.36Z"/><path class="cls-9" d="M718,4.36h-6.38a3.71,3.71,0,0,0,.79-.37h5.83l.53,0A5.27,5.27,0,0,1,718,4.36Z"/><path class="cls-10" d="M712.42,4c.21-.14.28-.26.29-.36h1.83l3.71.37Z"/><path class="cls-11" d="M712.71,3.61a.26.26,0,0,0-.06-.16l1.89.18h-1.83Z"/><path class="cls-7" d="M717.68,4.47l-.23.06-.53.13h0c.27-.06.53-.12.76-.19l.36-.11a5.27,5.27,0,0,0,.77-.31h0l-.39.18A7,7,0,0,1,717.68,4.47Z"/><path class="cls-12" d="M704.63,4.54a7.75,7.75,0,0,0,.85-.3l6.35,0a6,6,0,0,1-.72.24c-.19.06-.4.11-.62.16h-6.34Z"/><path class="cls-13" d="M705.48,4.24a1.16,1.16,0,0,0,.6-.43l6.48,0a1.89,1.89,0,0,1-.73.43Z"/><path class="cls-14" d="M712.56,3.83l-6.48,0a.27.27,0,0,0,0-.12c0-.06,0-.16-.21-.31l6.3,0,.41,0a.29.29,0,0,1,.06.17A.33.33,0,0,1,712.56,3.83Z"/><path class="cls-15" d="M705.9,3.38a3.13,3.13,0,0,0-.77-.44h2.53l4.54.45Z"/><path class="cls-16" d="M705.13,2.94l-.8-.3-.08,0,3.41.33Z"/><path class="cls-17" d="M41.84.55,44.59.27l11.13,0Q48.75.42,41.84.55Z"/><path class="cls-18" d="M62.43.22,55.72.31,44.59.27,46.37.1H70Z"/><path class="cls-7" d="M712.71,3.61v0c0,.1-.08.22-.29.36a3.71,3.71,0,0,1-.79.37l-.48.15-.62.15h0c.22,0,.43-.1.62-.16a6,6,0,0,0,.72-.24,1.89,1.89,0,0,0,.73-.43.33.33,0,0,0,.11-.22.29.29,0,0,0-.06-.17h0A.26.26,0,0,1,712.71,3.61Z"/><path class="cls-19" d="M698.11,4.57a6.66,6.66,0,0,0,.81-.28l6.28,0a5.53,5.53,0,0,1-.62.21l-.49.12h-6.34Z"/><path class="cls-20" d="M698.92,4.29c.45-.2.59-.38.59-.5l6.5,0c-.08.14-.3.31-.81.5Z"/><path class="cls-21" d="M699.51,3.78c0-.08-.07-.26-.5-.5l6.77,0c.23.18.28.31.28.37a.27.27,0,0,1,0,.14l-6.5,0Z"/><path class="cls-22" d="M699,3.28a8.14,8.14,0,0,0-1.18-.49l-.09,0,7,0a4.8,4.8,0,0,1,1,.51Z"/><path class="cls-22" d="M35.74,1.15l.46,0h1.17Z"/><path class="cls-23" d="M704.75,2.81l-7,0c-.54-.18-1.18-.35-1.92-.52l5,0,3.34.33.11,0Z"/><path class="cls-23" d="M56.51.73c-6.45.11-12.85.23-19.14.38H36.2L41,.63Z"/><path class="cls-24" d="M695.82,2.25c-.79-.18-1.69-.36-2.7-.53l2.23,0,5.48.54Z"/><path class="cls-24" d="M60.8.25,79.44.37,70.57.52q-7,.09-14.06.21L41,.63l.77-.08Q51.23.37,60.8.25Z"/><path class="cls-25" d="M691.38,1.45l-1.9-.26h.38l5.49.54-2.23,0Z"/><path class="cls-25" d="M79.44.37,60.8.25l1.64,0L70.29.1H90.75Z"/><path class="cls-26" d="M687.76,1l2.1.21h-.38Z"/><path class="cls-27" d="M678.09.15l-.8,0h1.61l4.36.43C681.63.4,679.91.27,678.09.15Z"/><path class="cls-28" d="M677.21.1h0Z"/><path class="cls-7" d="M705.13,2.94a3.13,3.13,0,0,1,.77.44c.18.15.21.25.21.31a.27.27,0,0,1,0,.12,1.16,1.16,0,0,1-.6.43,7.75,7.75,0,0,1-.85.3l-.48.12h-.06l.49-.12a5.53,5.53,0,0,0,.62-.21c.51-.19.73-.36.81-.5a.27.27,0,0,0,0-.14c0-.06,0-.19-.28-.37a4.8,4.8,0,0,0-1-.51l-.47-.17-.11,0h.08l.08,0Z"/><path class="cls-7" d="M62.44.23,60.8.25q-9.55.12-19,.3h.06Q48.74.42,55.72.31L62.43.22,70,.1h.25Z"/><path class="cls-29" d="M10.18,4.66H.11l1.75-.17Q5.39,4.58,10.18,4.66Z"/><path class="cls-30" d="M691.58,4.61a3.57,3.57,0,0,0,1.15-.48l6.33.06a5.33,5.33,0,0,1-1,.38l-.36.09h-6.33Z"/><path class="cls-30" d="M32.51,1.76l-4.25.13,1.54-.16Z"/><path class="cls-31" d="M692.73,4.13c.13-.1.18-.19.18-.27s0-.17-.25-.32l6.71.06a.29.29,0,0,1,.07.18c0,.1-.09.25-.38.41Z"/><path class="cls-31" d="M49.42,1.33l-4.32.1c-4.3.1-8.52.21-12.59.33l-2.71,0,5.45-.53Z"/><path class="cls-32" d="M692.66,3.54a4.84,4.84,0,0,0-1.34-.6h0l7,.07a2.64,2.64,0,0,1,1,.59Z"/><path class="cls-32" d="M53.85.78,70.31.93c-7,.11-14,.24-20.89.4L35.25,1.2l.41,0C41.64,1,47.72.89,53.85.78Z"/><path class="cls-33" d="M691.32,2.94A22.94,22.94,0,0,0,689,2.33l7.41.07c.51.13,1,.26,1.38.39l.59.22Z"/><path class="cls-33" d="M53.85.78C59.39.68,65,.59,70.58.52l7-.11,15,.14c-4.71.11-9.36.2-13.92.26l-8.4.12Z"/><path class="cls-34" d="M689,2.33c-1-.21-2.2-.42-3.55-.62l8,.07c1.14.2,2.13.41,3,.62Z"/><path class="cls-34" d="M108.5.11c-5.3.16-10.62.31-15.87.44l-15-.14Q84.21.29,91,.1H108.5Z"/><path class="cls-35" d="M685.42,1.71l-.15,0c-1.52-.22-3.24-.43-5.12-.62l9,.09c.78.09,1.52.19,2.22.29l2.09.33Z"/><path class="cls-35" d="M107.64.1h0Z"/><path class="cls-36" d="M689.1,1.16l-9-.09c-2.22-.22-4.66-.42-7.34-.59L671.72.41l11,.1,1.33.12,3,.29Z"/><path class="cls-37" d="M678.05.16c1.65.11,3.22.22,4.71.35l-11-.1Q668.92.23,665.79.1H677.1Z"/><path class="cls-7" d="M689.48,1.19l1.9.26,1.74.27c1,.17,1.91.35,2.7.53s1.38.34,1.92.52l.09,0a8.14,8.14,0,0,1,1.18.49c.43.24.5.42.5.5h0c0,.12-.14.3-.59.5a6.66,6.66,0,0,1-.81.28l-.36.09h-.07l.36-.09a5.33,5.33,0,0,0,1-.38c.29-.16.38-.31.38-.41a.29.29,0,0,0-.07-.18,2.64,2.64,0,0,0-1-.59l-.59-.22c-.4-.13-.87-.26-1.38-.39-.84-.21-1.83-.42-3-.62l-2.09-.33c-.7-.1-1.44-.2-2.22-.29l-2-.24.69.07Z"/><path class="cls-7" d="M77.58.41l-7,.11C65,.59,59.39.68,53.85.78c-6.13.11-12.21.23-18.19.38h.08l1.63,0C43.66,1,50.06.84,56.51.73q7-.12,14.06-.21L79.44.37,90.75.1H91Q84.22.28,77.58.41Z"/><path class="cls-7" d="M678.05.16,677.1.1h.19l.8,0c1.82.12,3.54.25,5.17.39l.83.09L682.76.51C681.27.38,679.7.27,678.05.16Z"/><path class="cls-38" d="M20.87,4.65H10.6c-3.37,0-6.25-.11-8.68-.17l.55-.06Z"/><path class="cls-39" d="M20.87,4.65,2.47,4.43l3.82-.38C7.34,4.29,12.07,4.49,20.87,4.65Z"/><path class="cls-40" d="M24.54,2.65,17,3l3.93-.39Z"/><path class="cls-41" d="M38.74,2.14c-3.09.1-6.05.2-8.83.31-1.88.06-3.67.13-5.37.2l-3.63,0L27.06,2Z"/><path class="cls-42" d="M685.76,4.4l6.16.07a3,3,0,0,1-.42.13l-.24.06H685A6,6,0,0,0,685.76,4.4Z"/><path class="cls-42" d="M42.19,1.51,56,1.67H55.6c-5.84.14-11.54.3-16.86.46L27.06,2l1.09-.1C32.63,1.76,37.35,1.63,42.19,1.51Z"/><path class="cls-43" d="M685.76,4.4c.46-.19.55-.35.55-.45a.37.37,0,0,0-.15-.23l6.66.08a.18.18,0,0,1,0,.06c0,.15-.17.36-.91.61Z"/><path class="cls-43" d="M42.19,1.51l2.93-.08c5.72-.13,11.54-.26,17.41-.36l14.75.18C70.08,1.36,63,1.5,56,1.67Z"/><path class="cls-44" d="M686.16,3.72a4.69,4.69,0,0,0-1.57-.7l7.12.09c.84.32,1.06.56,1.11.69Z"/><path class="cls-44" d="M62.53,1.07C67.89,1,73.3.89,78.72.82c2.71,0,5.45-.08,8.22-.14l13.61.16c-4.63.12-9.22.21-13.7.27-3.19,0-6.39.08-9.57.14Z"/><path class="cls-45" d="M684.59,3a27.26,27.26,0,0,0-3.1-.71l7.69.09c.8.18,1.5.36,2.06.54l.47.17Z"/><path class="cls-45" d="M86.94.68c6-.12,12-.28,18.11-.46l12.37.15c-5.62.17-11.28.34-16.87.47Z"/><path class="cls-46" d="M681.49,2.31c-.69-.13-1.46-.26-2.34-.38s-1.83-.25-2.84-.37l8.71.11.18,0c1.54.23,2.87.46,4,.71Z"/><path class="cls-46" d="M117.42.37,105.05.22l4-.12h16.57Z"/><path class="cls-47" d="M676.31,1.56c-2.54-.29-5.48-.54-8.78-.76l-.49,0,11.23.14c2.54.22,4.8.48,6.75.76Z"/><path class="cls-48" d="M672.76.48c2,.13,3.79.27,5.51.43L667,.77c-5-.31-10.75-.54-17.23-.67h15.8C668.14.21,670.53.34,672.76.48Z"/><path class="cls-7" d="M671.72.41l1.09.07c2.68.17,5.12.37,7.34.59,1.88.19,3.6.4,5.12.62l.15,0c1.35.2,2.53.41,3.55.62a22.94,22.94,0,0,1,2.35.61h0a4.84,4.84,0,0,1,1.34.6c.21.15.25.27.25.32s0,.17-.18.27a3.57,3.57,0,0,1-1.15.48l-.23,0h-.09l.24-.06a3,3,0,0,0,.42-.13c.74-.25.91-.46.91-.61a.18.18,0,0,0,0-.06c-.05-.13-.27-.37-1.11-.69l-.47-.17c-.56-.18-1.26-.36-2.06-.54-1.11-.25-2.44-.48-4-.71l-.18,0c-1.95-.28-4.21-.54-6.75-.76-1.72-.16-3.55-.3-5.51-.43-2.23-.14-4.62-.27-7.15-.38h.18Q668.91.24,671.72.41Z"/><path class="cls-7" d="M10.6,4.66h-.42q-4.8-.07-8.32-.17h.06C4.35,4.55,7.23,4.61,10.6,4.66Z"/><path class="cls-7" d="M105.05.22C99,.4,92.9.56,86.94.68c-2.77.06-5.51.1-8.22.14C73.3.89,67.89,1,62.53,1.07c-5.87.1-11.69.23-17.41.36l-2.93.08c-4.84.12-9.56.25-14,.39h.11l4.25-.13c4.07-.12,8.29-.23,12.59-.33l4.32-.1C56.28,1.17,63.27,1,70.31.93l8.4-.12C83.27.75,87.92.66,92.63.55,97.88.42,103.2.27,108.5.11h.5Z"/><path class="cls-49" d="M20.3,4h0c0,.25,4.06.45,12.67.62H22c-9.52-.17-14.58-.37-15.61-.61l2-.2Z"/><path class="cls-11" d="M27.12,3.33c-4.37.26-6.78.5-6.82.7l-12-.18,7-.69Z"/><path class="cls-50" d="M27.55,2.54,40,2.73c-5.29.2-9.65.41-12.92.6L15.36,3.16,16.77,3C19.83,2.86,23.47,2.7,27.55,2.54Z"/><path class="cls-51" d="M27.55,2.54,30,2.45c4.34-.16,9.12-.31,14.16-.46l12.56.19c-5,.14-9.84.3-14.32.46L40,2.73Z"/><path class="cls-21" d="M680.58,4.66h-2l.11,0Z"/><path class="cls-21" d="M44.11,2c3.72-.11,7.59-.21,11.52-.3l8.66-.2,13,.2c-7.15.14-14.1.3-20.66.49Z"/><path class="cls-52" d="M678.66,4.64c.9-.26,1.05-.48,1.05-.6a.26.26,0,0,0-.11-.19l6.62.1c0,.14-.2.41-1.37.71h-4.27Z"/><path class="cls-52" d="M64.29,1.49c7.43-.15,15-.28,22.58-.37l2.85-.05,13.11.2c-2.64.05-5.26.1-7.84.13-5.94.08-11.86.17-17.66.29Z"/><path class="cls-53" d="M679.6,3.85a5.36,5.36,0,0,0-2-.82l7.27.1c1,.35,1.39.64,1.39.82h0Z"/><path class="cls-53" d="M89.72,1.07C96.51,1,103.5.79,110.5.59l11.64.17c-6.46.2-13,.38-19.31.51Z"/><path class="cls-54" d="M677.56,3A39.54,39.54,0,0,0,673,2.16h0l8.24.12a26.25,26.25,0,0,1,3.58.85Z"/><path class="cls-54" d="M139.44.22l-8.73.27-8.57.27L110.5.59,125.6.12l.57,0h5.26Z"/><path class="cls-55" d="M673,2.16c-2.54-.36-5.65-.68-9.28-.93l10.82.16c1.65.16,3.17.35,4.52.54.81.12,1.53.24,2.18.35Z"/><path class="cls-55" d="M139.44.22l-8-.12h12Z"/><path class="cls-56" d="M658.28.35c3.31.12,6.39.28,9.19.46q3.88.25,7.08.58l-10.82-.16-1.48-.11C657.16.79,651.13.57,644.33.44L632.07.21,626.31.1h15.14Z"/><path class="cls-57" d="M658.28.35,641.45.1h7.95C652.52.16,655.49.24,658.28.35Z"/><path class="cls-7" d="M667,.77l.49,0c3.3.22,6.24.47,8.78.76,1,.12,2,.24,2.84.37s1.65.25,2.34.38a27.26,27.26,0,0,1,3.1.71,4.69,4.69,0,0,1,1.57.7.37.37,0,0,1,.15.23c0,.1-.09.26-.55.45a6,6,0,0,1-.81.26h-.1c1.17-.3,1.37-.57,1.37-.71h0c0-.18-.37-.47-1.39-.82a26.25,26.25,0,0,0-3.58-.85c-.65-.11-1.37-.23-2.18-.35-1.35-.19-2.87-.38-4.52-.54q-3.19-.33-7.08-.58c-2.8-.18-5.88-.34-9.19-.46C655.49.24,652.52.16,649.4.1h.41C656.29.23,662.07.46,667,.77Z"/><path class="cls-7" d="M22,4.66h-1.1c-8.8-.16-13.53-.36-14.58-.6h.07C7.39,4.29,12.45,4.49,22,4.66Z"/><path class="cls-7" d="M110.5.59c-7,.2-14,.38-20.78.48l-2.85.05c-7.59.09-15.15.22-22.58.37l-8.66.2c-3.93.09-7.8.19-11.52.3-5,.15-9.82.3-14.16.46l-2.4.09c-4.08.16-7.72.32-10.78.48L17,3l7.56-.35c1.7-.07,3.49-.14,5.37-.2,2.78-.11,5.74-.21,8.83-.31,5.32-.16,11-.32,16.86-.46H56c7-.17,14.11-.31,21.31-.42,3.18-.06,6.38-.1,9.57-.14,4.48-.06,9.07-.15,13.7-.27,5.59-.13,11.25-.3,16.87-.47l8.15-.26h.6l-.57,0Z"/><path class="cls-12" d="M26,4.48l10.61.18H33.41C30.48,4.61,28,4.55,26,4.48Z"/><path class="cls-13" d="M26,4.48c-3.57-.13-5.56-.27-5.56-.44s1.55-.35,4.5-.55l12.46.22a9.08,9.08,0,0,0-2.84.41c0,.22,3.23.4,10,.54h-8Z"/><path class="cls-58" d="M24.91,3.49l1.4-.09c3.2-.21,7.62-.42,12.88-.63L51,3c-6.22.25-10.91.5-13.67.73Z"/><path class="cls-59" d="M39.19,2.77l3.2-.12c5-.18,10.31-.35,15.93-.51l11.8.21c-5.42.15-10.58.31-15.34.49L51,3Z"/><path class="cls-31" d="M58.32,2.14C66,1.93,74.17,1.75,82.54,1.6l12.3.22c-8.54.14-16.9.32-24.72.53Z"/><path class="cls-60" d="M673.11,4.12A.24.24,0,0,0,673,4l6.58.11c0,.13-.26.35-1.16.59h-6.29C673,4.43,673.11,4.23,673.11,4.12Z"/><path class="cls-60" d="M82.54,1.6,95,1.41c4.85-.06,9.83-.17,14.85-.29l11.21.19c-6.06.17-12.1.31-17.93.39q-4.17,0-8.3.12Z"/><path class="cls-61" d="M673,4a7.63,7.63,0,0,0-3-1l7.59.14c1.5.41,2,.76,2,1v0Z"/><path class="cls-61" d="M109.86,1.12c6.84-.18,13.76-.4,20.55-.61L141.3.7l-5.45.17c-4.88.15-9.84.31-14.78.44Z"/><path class="cls-62" d="M670,2.93c-.82-.17-1.84-.35-3.09-.53-1.5-.21-3.23-.41-5.15-.58l9.86.17,1.31.18a39.83,39.83,0,0,1,4.66.9Z"/><path class="cls-62" d="M141.3.7,130.41.51h.34l13-.4H564.48l1.63,0C558.82.26,148.76.47,141.3.7Z"/><path class="cls-63" d="M564.48.1h3.32l-1.69,0Z"/><path class="cls-63" d="M653.66.71c3.07.11,5.92.25,8.52.42,3.65.24,6.82.53,9.45.86l-9.86-.17c-1.49-.14-3.08-.26-4.8-.37-4.69-.3-10.23-.51-16.48-.63C637.1.76,633.61.7,629.91.62,619.89.43,609,.22,597.43.1h21.83Z"/><path class="cls-64" d="M632.05.22l12.26.23q5,.09,9.35.26L619.26.1h6.55Z"/><path class="cls-7" d="M632.07.21l12.26.23c6.8.13,12.83.35,17.92.68l1.48.11c3.63.25,6.74.57,9.28.93h0a39.54,39.54,0,0,1,4.53.87,5.36,5.36,0,0,1,2,.82.26.26,0,0,1,.11.19c0,.12-.15.34-1.05.6l-.11,0h-.11c.9-.24,1.12-.46,1.16-.59V4c0-.21-.5-.56-2-1a39.83,39.83,0,0,0-4.66-.9L671.63,2c-2.63-.33-5.8-.62-9.45-.86-2.6-.17-5.45-.31-8.52-.42q-4.38-.17-9.35-.26L632.05.22,625.81.1h.5Z"/><path class="cls-7" d="M130.75.5h-.34c-6.79.21-13.71.43-20.55.61-5,.12-10,.23-14.85.29L82.54,1.6c-8.37.15-16.54.33-24.22.54-5.62.16-11,.33-15.93.51l-3.2.12c-5.26.21-9.68.42-12.88.63l-1.4.09c-2.95.2-4.5.39-4.5.55s2,.31,5.56.44c2,.07,4.51.13,7.44.18H33C24.36,4.49,20.3,4.29,20.3,4h0c0-.2,2.45-.44,6.82-.7,3.27-.19,7.63-.4,12.92-.6l2.31-.09c4.48-.16,9.29-.32,14.32-.46,6.56-.19,13.51-.35,20.66-.49,5.8-.12,11.72-.21,17.66-.29,2.58,0,5.2-.08,7.84-.13,6.36-.13,12.85-.31,19.31-.51l8.57-.27,8.73-.27,4-.12h.34Z"/><path class="cls-65" d="M34.65,4.12c0-.07.32-.14.93-.22l13.2.27,0,0c0,.19,2.73.33,7.54.45H45.11C38.53,4.53,34.65,4.35,34.65,4.12Z"/><path class="cls-66" d="M61.77,3.25c-7.92.34-12.63.67-13,.92L35.58,3.9c.89-.11,2.39-.23,4.49-.37,2.64-.16,6.18-.34,10.38-.51Z"/><path class="cls-67" d="M83.92,2.52c-5.94.15-11.57.32-16.7.51l-5.45.22L50.45,3l4.38-.17c5.54-.21,11.62-.4,18-.56Z"/><path class="cls-68" d="M114.2,2l-2.92,0c-9.38.12-18.69.3-27.36.53L72.86,2.29c9.47-.25,19.65-.44,29.9-.58Z"/><path class="cls-69" d="M666.51,4.21c0-.1-.12-.22-.44-.38l6.84.14a.28.28,0,0,1,.08.15c0,.11-.15.31-1,.54h-6.27C666.39,4.46,666.51,4.3,666.51,4.21Z"/><path class="cls-69" d="M139.88,1.29c-8.54.26-17.3.52-25.68.66l-11.44-.24h.39c8.57-.11,17.57-.36,26.47-.64Z"/><path class="cls-70" d="M666.07,3.83a21,21,0,0,0-5.27-1.19l-.95-.13,8.77.18c2.86.51,4,1,4.29,1.28Z"/><path class="cls-70" d="M141,1.25l-1.1,0-10.26-.22,6.27-.19C141.63.7,550,.52,555.77.37l11.64.24C559.57.76,148.92,1,141,1.25Z"/><path class="cls-71" d="M606.3.22l44.46.91c2.18.1,4.23.2,6.13.33,3.93.25,7.27.57,9.92,1,.67.09,1.27.19,1.81.28l-8.77-.18c-2.27-.29-5-.54-8.17-.74-4.28-.27-9.34-.47-15-.57L627.82,1c-14-.27-30-.57-47-.57-4.31,0-8.8.05-13.38.14L555.77.37c4.28-.11,8.54-.21,12.7-.27h27.95Q601.44.15,606.3.22Z"/><path class="cls-72" d="M606.3.22c8.27.12,16.17.27,23.58.41,3.7.08,7.2.14,10.58.2q5.55.11,10.3.3Z"/><path class="cls-7" d="M629.91.62c3.7.08,7.19.14,10.58.2,6.25.12,11.79.33,16.48.63,1.72.11,3.31.23,4.8.37,1.92.17,3.65.37,5.15.58,1.25.18,2.27.36,3.09.53a7.63,7.63,0,0,1,3,1,.24.24,0,0,1,.09.16c0,.11-.14.31-1,.54H672c.82-.23,1-.43,1-.54a.28.28,0,0,0-.08-.15c-.29-.29-1.43-.77-4.29-1.28-.54-.09-1.14-.19-1.81-.28-2.65-.38-6-.7-9.92-1-1.9-.13-3.95-.23-6.13-.33Q646,.94,640.46.83c-3.38-.06-6.88-.12-10.58-.2C622.47.49,614.57.34,606.3.22Q601.44.15,596.42.1h1C609,.22,619.89.43,629.91.62Z"/><path class="cls-7" d="M555.77.37C550,.52,141.63.7,135.89.88l-6.27.19c-8.9.28-17.9.53-26.47.64h-.39c-10.25.14-20.43.33-29.9.58-6.41.16-12.49.35-18,.56L50.45,3c-4.2.17-7.74.35-10.38.51-2.1.14-3.6.26-4.49.37-.61.08-.93.15-.93.22,0,.23,3.88.41,10.46.54h-.54c-6.81-.14-10-.32-10-.54a9.08,9.08,0,0,1,2.84-.41C40.13,3.48,44.82,3.23,51,3l3.74-.14c4.76-.18,9.92-.34,15.34-.49C77.94,2.14,86.3,2,94.84,1.82q4.13-.07,8.3-.12c5.83-.08,11.87-.22,17.93-.39C126,1.18,131,1,135.85.87L141.3.7C148.76.47,558.82.26,566.11.13l1.69,0h.67C564.31.16,560.05.26,555.77.37Z"/><path class="cls-73" d="M48.9,4.21c0-.24,4.57-.58,12.27-.92l10.9.26c-5.79.28-9.08.54-9.08.74s1.92.27,5.35.37H56.83C51.45,4.54,48.9,4.39,48.9,4.21Z"/><path class="cls-74" d="M98.06,2.68c-6.58.16-12.82.34-18.4.55-2.86.11-5.4.21-7.59.32l-10.9-.26L67.28,3c6.19-.23,13.11-.43,20.42-.61Z"/><path class="cls-75" d="M132.84,2c-4.54.12-9,.22-13.42.28-7.27.09-14.5.22-21.36.39L87.7,2.43c7.58-.18,15.57-.32,23.6-.43,3.79,0,7.68-.12,11.61-.22Z"/><path class="cls-76" d="M659.91,4.29c0-.17-.52-.5-2.18-.88l7.58.18c.78.26,1.06.48,1.06.62s-.12.25-.77.45h-6.27C659.82,4.5,659.91,4.37,659.91,4.29Z"/><path class="cls-76" d="M563.87,1.2c-5,.13-10.17.28-15.22.43-4.38.14-411.38.27-415.81.38l-9.93-.23c6-.15,12.13-.33,18.12-.52,3.33-.1,409.23-.2,412.58-.3Z"/><path class="cls-77" d="M657.73,3.41c-.76-.17-1.75-.35-3.05-.53a193.76,193.76,0,0,0-21.87-1.3l-7-.13c-13-.24-27.62-.51-43.44-.51-5.89,0-12.16.11-18.53.26L553.61,1c9.32-.27,18.61-.48,27.18-.48,7.29,0,14.36.05,21.17.14l49.77,1.17c3.54.23,6.55.52,8.95.86a28.48,28.48,0,0,1,4.63.94Z"/><path class="cls-78" d="M602,.62c9.14.11,17.79.28,25.83.43l8.83.16c5.68.11,10.72.3,15,.57h.13Z"/><path class="cls-7" d="M48.76,4.21l0,0c.36-.25,5.07-.58,13-.92L67.22,3c5.13-.19,10.76-.36,16.7-.51,8.67-.23,18-.41,27.36-.53l2.92,0c8.38-.14,17.14-.4,25.68-.66l1.1,0C148.92,1,559.57.76,567.41.61,572,.52,576.48.47,580.79.47c17.08,0,33,.3,47,.57l8.83.16c5.69.1,10.75.3,15,.57,3.16.2,5.9.45,8.17.74l.95.13a21,21,0,0,1,5.27,1.19c.32.16.44.28.44.38s-.12.25-.76.45h-.15c.65-.2.77-.36.77-.45s-.28-.36-1.06-.62a28.48,28.48,0,0,0-4.63-.94c-2.4-.34-5.41-.63-8.95-.86h-.13c-4.26-.27-9.3-.46-15-.57l-8.83-.16C619.75.9,611.1.73,602,.62,595.15.53,588.08.48,580.79.48c-8.57,0-17.86.21-27.18.48-3.35.1-409.25.2-412.58.3-6,.19-12.1.37-18.12.52-3.93.1-7.82.18-11.61.22-8,.11-16,.25-23.6.43-7.31.18-14.23.38-20.42.61l-6.11.25c-7.7.34-12.27.68-12.27.92s2.55.33,7.93.45H56.3C51.49,4.54,48.76,4.4,48.76,4.21Z"/><path class="cls-42" d="M63.14,4.29c0-.18,3-.43,8.07-.68l10.73.28c-3,.18-4.72.35-4.72.49a14.37,14.37,0,0,0,3.41.28H68.8C65,4.56,63.14,4.44,63.14,4.29Z"/><path class="cls-31" d="M112.77,2.84c-7.43.15-14.5.35-20.67.59-4.21.15-7.65.31-10.16.46L71.21,3.61c2.39-.12,5.25-.25,8.51-.37,7-.26,15-.48,23.36-.66Z"/><path class="cls-79" d="M653,4.62l1.81,0h-1.93Z"/><path class="cls-79" d="M554.37,2l-.6,0c-7.87.23-418.56.46-426.21.56-5,.07-10,.15-14.79.26l-9.69-.26c5.34-.11,10.84-.21,16.36-.28,7.49-.1,15.39-.32,23.15-.55Z"/><path class="cls-80" d="M653,4.62c.23-.11.28-.19.28-.24,0-.23-1-.75-4.75-1.26-1.58-.22-3.92-.47-7.29-.69l12.3.33c.35,0,.68.08,1,.13,4.11.57,5.21,1.15,5.21,1.4,0,.08-.1.21-.58.37h-4.34Z"/><path class="cls-80" d="M612.64,1.67c-8.89-.14-18.48-.26-28.64-.26-9.28,0-19.61.29-29.63.59L142.59,1.75c1.19,0,404.93-.07,406.11-.1,11.38-.35,23.15-.7,33.7-.7h3.22Z"/><path class="cls-81" d="M641.27,2.43c-3.14-.2-7.17-.38-12.31-.47l-4.89-.09-11.43-.2-27-.72c14.58,0,28.13.29,40.19.52l7,.12a206.16,206.16,0,0,1,20.8,1.17Z"/><path class="cls-7" d="M63,4.29c0-.2,3.29-.46,9.08-.74,2.19-.11,4.73-.21,7.59-.32,5.58-.21,11.82-.39,18.4-.55,6.86-.17,14.09-.3,21.36-.39,4.37-.06,8.88-.16,13.42-.28s411.43-.24,415.81-.38c5.05-.15,10.17-.3,15.22-.43,6.37-.15,12.64-.26,18.53-.26,15.82,0,30.49.27,43.44.51l7,.13a193.76,193.76,0,0,1,21.87,1.3c1.3.18,2.29.36,3.05.53,1.66.38,2.18.71,2.18.88s-.09.21-.58.37h-.15c.48-.16.58-.29.58-.37,0-.25-1.1-.83-5.21-1.4-.3-.05-.63-.09-1-.13a206.16,206.16,0,0,0-20.8-1.17l-7-.12C613.75,1.24,600.2,1,585.62,1H582.4c-10.55,0-22.32.35-33.7.7-1.18,0-404.92.07-406.11.1-7.76.23-15.66.45-23.15.55-5.52.07-11,.17-16.36.28-8.4.18-16.39.4-23.36.66-3.26.12-6.12.25-8.51.37-5.11.25-8.07.5-8.07.68s1.83.27,5.66.37h-.46C64.91,4.56,63,4.44,63,4.29Z"/><path class="cls-21" d="M77.39,4.38A13.06,13.06,0,0,1,80.62,4L92,4.33c-.33,0-.5.09-.5.13a5.47,5.47,0,0,0,1.82.2H81A16.06,16.06,0,0,1,77.39,4.38Z"/><path class="cls-82" d="M129,3c-8.82.15-17.32.37-24.48.64-6.66.25-11.14.51-12.58.71L80.62,4c2.56-.17,6.53-.36,11.54-.55,8.12-.31,17.79-.56,27.81-.73Z"/><path class="cls-83" d="M646.71,4.46c0-.11-.33-.31-1.27-.56l7.42.22c.2.11.29.19.29.26s-.08.16-.41.28h-6.28C646.67,4.57,646.71,4.5,646.71,4.46Z"/><path class="cls-83" d="M578.73,1.93c-6.45.09-13.23.28-19.85.47-6.86.19-416.51.39-423.18.48L129,3l-9-.27,7.61-.11C135.25,2.5,546,2.26,553.83,2c4.88-.14,9.84-.29,14.73-.4Z"/><path class="cls-84" d="M645.44,3.9c-2.2-.56-7.76-1.33-20.32-1.56l-2.43,0c-5.24-.1-11.19-.2-17.41-.29-7.14-.09-13.58-.13-19.67-.13-2.23,0-4.54,0-6.88.05l-10.17-.3c5.31-.13,10.53-.21,15.44-.21,14.65,0,28.14.25,40,.47l4.9.09a171.28,171.28,0,0,1,19.49,1.14,16.33,16.33,0,0,1,4.44,1Z"/><path class="cls-7" d="M77.22,4.38c0-.14,1.68-.31,4.72-.49,2.51-.15,6-.31,10.16-.46,6.17-.24,13.24-.44,20.67-.59,4.82-.11,9.8-.19,14.79-.26,7.65-.1,418.34-.33,426.21-.56l.6,0c10-.3,20.35-.59,29.63-.59,10.16,0,19.75.12,28.64.26l11.43.2L629,2c5.14.09,9.17.27,12.31.47,3.37.22,5.71.47,7.29.69,3.75.51,4.75,1,4.75,1.26,0,0,0,.13-.28.24l-.12,0h-.17c.33-.12.41-.22.41-.28s-.09-.15-.29-.26a16.33,16.33,0,0,0-4.44-1A171.28,171.28,0,0,0,628.93,2L624,1.89c-11.89-.22-25.38-.47-40-.47-4.91,0-10.13.08-15.44.21-4.89.11-9.85.26-14.73.4-7.88.23-418.58.47-426.25.57L120,2.71c-10,.17-19.69.42-27.81.73-5,.19-9,.38-11.54.55a13.06,13.06,0,0,0-3.23.39A16.06,16.06,0,0,0,81,4.66h-.37A14.37,14.37,0,0,1,77.22,4.38Z"/><path class="cls-60" d="M91.63,4.46c0-.21,5-.52,13-.82,8.94-.34,20-.6,31.12-.75,1.59,0,3.2,0,4.83-.08l410.91.28c-1.72,0-406,.06-407.63.08-9.59.13-19.14.36-26.87.65-7.07.26-11.29.54-11.29.73s.23.08.67.11H93.59A6.32,6.32,0,0,1,91.63,4.46Z"/><path class="cls-85" d="M640.11,4.55c0-.22-1.18-.61-3.78-1a140.09,140.09,0,0,0-15.05-.87c-8.85-.16-21-.37-34.06-.37-7.28,0-15.4.22-23.25.43-4.13.11-8.37.22-12.5.31L140.56,2.81c5.22-.1,413.14-.25,418.38-.4,9-.25,18.33-.52,26.67-.52,6.09,0,13.66,0,37,.42l2.44,0c17.8.31,21.44,1.74,21.44,2.1,0,0,0,.1-.26.2H640C640.08,4.62,640.11,4.58,640.11,4.55Z"/><path class="cls-7" d="M91.45,4.46s.17-.08.5-.13c1.44-.2,5.92-.46,12.58-.71,7.16-.27,15.66-.49,24.48-.64l6.69-.1c6.67-.09,416.32-.29,423.18-.48,6.62-.19,13.4-.38,19.85-.47,2.34,0,4.65-.05,6.88-.05,6.09,0,12.53,0,19.67.13,6.22.09,12.17.19,17.41.29l2.43,0c12.56.23,18.12,1,20.32,1.56.94.25,1.27.45,1.27.56s0,.11-.25.2h-.19c.24-.1.26-.17.26-.2,0-.36-3.64-1.79-21.44-2.1l-2.44,0c-23.38-.42-30.95-.42-37-.42-8.34,0-17.66.27-26.67.52-5.24.15-413.16.3-418.38.4-1.63,0-3.24.06-4.83.08-11.13.15-22.18.41-31.12.75-8,.3-13,.61-13,.82a6.32,6.32,0,0,0,2,.2h-.32A5.47,5.47,0,0,1,91.45,4.46Z"/><path class="cls-86" d="M105.88,4.55c0-.35,16.31-1.08,38-1.36,5.7-.07,414.3-.24,420.16-.4l6-.15,8.42.3c-3.12.06-6.29.14-9.42.22-4.82.12-9.8.25-14.49.31-17,.22-434.62.83-434.62,1.16l.07,0H106.61C106.13,4.63,105.88,4.59,105.88,4.55Z"/><path class="cls-87" d="M633.51,4.63c0-.25-2.86-1.29-16.07-1.53-6.83-.12-17.22-.28-28.61-.28-3.31,0-6.82.05-10.39.12L570,2.64c5.89-.16,11.79-.28,17.2-.28,13.07,0,25.18.22,34,.38a138.8,138.8,0,0,1,14.93.86c2.58.35,3.75.73,3.75.95,0,0,0,.07-.1.11H633.5A0,0,0,0,0,633.51,4.63Z"/><path class="cls-7" d="M105.68,4.55c0-.19,4.22-.47,11.29-.73,7.73-.29,17.28-.52,26.87-.65,1.67,0,405.91,0,407.63-.08,4.13-.09,8.37-.2,12.5-.31,7.85-.21,16-.43,23.25-.43,13.09,0,25.21.21,34.06.37a140.09,140.09,0,0,1,15.05.87c2.6.35,3.78.74,3.78,1,0,0,0,.07-.1.11h-.19c.07,0,.1-.08.1-.11,0-.22-1.17-.6-3.75-.95a138.8,138.8,0,0,0-14.93-.86c-8.84-.16-21-.38-34-.38-5.41,0-11.31.12-17.2.28l-6,.15c-5.86.16-414.46.33-420.16.4-21.68.28-38,1-38,1.36,0,0,.25.08.73.11h-.26C105.91,4.63,105.68,4.59,105.68,4.55Z"/><path class="cls-88" d="M120.12,4.63c0-.17,4.63-.45,12.07-.7l8.38.33c-3.43.14-5.74.29-6.29.4H120.19Z"/><path class="cls-89" d="M613.6,3.48c-7.1-.13-15.11-.2-23.17-.2-5.14,0-10.89.14-16.45.26-3.76.09-7.65.18-11.31.22-7.58.1-417.23.3-422.1.5l-8.38-.33c5.37-.18,414.74-.35,422.37-.44,4.7-.06,9.69-.19,14.52-.31,6.68-.17,13.58-.35,19.75-.35,11.37,0,21.75.16,28.57.29,13.08.23,15.91,1.27,15.91,1.51l0,0h-6.41C626.52,4.36,623.17,3.65,613.6,3.48Z"/><path class="cls-7" d="M554.53,3.47c4.69-.06,9.67-.19,14.49-.31,3.13-.08,6.3-.16,9.42-.22,3.57-.07,7.08-.12,10.39-.12,11.39,0,21.78.16,28.61.28,13.21.24,16.07,1.28,16.07,1.53a0,0,0,0,1,0,0h-.21l0,0c0-.24-2.83-1.28-15.91-1.51-6.82-.13-17.2-.29-28.57-.29-6.17,0-13.07.18-19.75.35-4.83.12-9.82.25-14.52.31-7.63.09-417,.26-422.37.44-7.44.25-12.07.53-12.07.7l.07,0H120l-.07,0C119.91,4.3,537.56,3.69,554.53,3.47Z"/><path class="cls-80" d="M562.7,3.78c3.67,0,7.57-.13,11.34-.22,3-.07,6.07-.14,9.06-.19l8.93.38c-4.18,0-8.87.09-13.4.18-2.6,0-5.29.1-7.82.13-5,.06-9.92.19-14,.35-2.26.08-4,.17-5,.25H134.52C135.93,4.41,549.42,4,562.7,3.78Z"/><path class="cls-90" d="M609.76,3.86C605,3.77,599.2,3.75,592,3.75h0l-8.93-.38c2.52,0,5-.07,7.33-.07,8.05,0,16,.07,23.13.2,9.43.17,12.74.86,13.1,1.16h-6.61C619.18,4.4,616,4,609.76,3.86Z"/><path class="cls-7" d="M140.57,4.26c4.87-.2,414.52-.4,422.1-.5,3.66,0,7.55-.13,11.31-.22,5.56-.12,11.31-.26,16.45-.26,8.06,0,16.07.07,23.17.2,9.57.17,12.92.88,13.28,1.18h-.22c-.36-.3-3.67-1-13.1-1.16-7.09-.13-15.08-.2-23.13-.2-2.34,0-4.81,0-7.33.07-3,0-6.05.12-9.06.19-3.77.09-7.67.18-11.34.22-13.28.17-426.77.63-428.18.88h-.24C134.83,4.55,137.14,4.4,140.57,4.26Z"/><path class="cls-91" d="M570.85,4.08l5-.08,6.72.31-3.56,0H579c-4.54.06-8.57.19-11.09.31H552.21C554.86,4.46,562.2,4.19,570.85,4.08Z"/><path class="cls-92" d="M605.92,4.24c-1.35,0-2.81,0-4.36,0h-7.91c-3.43,0-7.32,0-11,.09L575.88,4l2.8,0c4.52-.09,9.2-.18,13.36-.18,7.15,0,12.89,0,17.67.11,6.38.11,9.22.54,10.08.78h-7A60.44,60.44,0,0,0,605.92,4.24Z"/><path class="cls-7" d="M556.83,4.41c4.06-.16,9-.29,14-.35,2.53,0,5.22-.08,7.82-.13,4.53-.09,9.22-.18,13.4-.18h0c7.16,0,12.92,0,17.72.11,6.27.11,9.42.54,10.29.8h-.26c-.86-.24-3.7-.67-10.08-.78-4.78-.09-10.52-.11-17.67-.11-4.16,0-8.84.09-13.36.18l-2.8,0-5,.08c-8.65.11-16,.38-18.64.58h-.33C552.87,4.58,554.57,4.49,556.83,4.41Z"/><path class="cls-77" d="M578.8,4.38l5.75.28H568.37C570.76,4.55,574.45,4.44,578.8,4.38Z"/><path class="cls-93" d="M578.8,4.38h.27c4.72-.06,10.06-.12,14.58-.12h8.45l8.78.43h-7.16l-1.64,0h-.81c-.85,0-1.76,0-2.71,0H591.7c-1.54,0-3.12,0-4.61,0h-2.54Z"/><path class="cls-94" d="M602.1,4.23c1.34,0,2.6,0,3.77,0a59.45,59.45,0,0,1,6.66.4h-1.65Z"/><path class="cls-7" d="M579,4.35H579l3.56,0c3.73,0,7.62-.09,11-.09h7.91c1.55,0,3,0,4.36,0a60.44,60.44,0,0,1,6.88.42h-.27a59.45,59.45,0,0,0-6.66-.4c-1.17,0-2.43,0-3.77,0h-8.45c-4.52,0-9.86.06-14.58.12h-.27c-4.35.06-8,.17-10.43.28h-.51C570.38,4.54,574.41,4.41,579,4.35Z"/><path class="cls-95" d="M588.64,4.66h0Z"/><path class="cls-96" d="M602,4.64l1,0h-4.13C600,4.64,601.1,4.62,602,4.64Z"/><path class="cls-7" d="M591.7,4.66h-4.61C588.58,4.63,590.16,4.65,591.7,4.66Z"/><path class="cls-7" d="M598.56,4.65c1,0,1.86,0,2.71,0h.81l1.64,0h-.67l-1,0c-.92,0-2,0-3.1,0h-.36Z"/><polygon class="cls-97" points="725 4.66 678.74 0.1 46.37 0.1 0.11 4.66 725 4.66"/><path class="cls-98" d="M725,4.77V4.66h-3.94l0,.06Z"/><path class="cls-99" d="M721.08,4.72a13.57,13.57,0,0,1,.23,1.81l3.69.06V4.77Z"/><path class="cls-100" d="M721.31,6.53c0,.22,0,.42,0,.61s0,.68-.06,1.21L725,8.4V6.59Z"/><path class="cls-101" d="M1.74,5.87A4.7,4.7,0,0,1,2.9,5c.19-.11.4-.22.62-.32H.11V5.85Z"/><path class="cls-101" d="M721.26,8.35c-.06.5-.14,1.11-.29,1.81l4,.06V8.4Z"/><path class="cls-102" d="M721,10.16c-.08.38-.18.79-.3,1.22H725V10.22Z"/><path class="cls-102" d="M1.25,7.68a1.79,1.79,0,0,1-.09-.54,1.83,1.83,0,0,1,.58-1.27l-1.63,0V7.66Z"/><path class="cls-103" d="M2.68,9.51A4.49,4.49,0,0,1,1.25,7.68l-1.14,0V9.48Z"/><path class="cls-104" d="M5.44,11.37A20.62,20.62,0,0,1,3.06,9.83l-.38-.32-2.57,0V11.3Z"/><path class="cls-105" d="M.11,11.3v.08H5.44Z"/><path class="cls-106" d="M1.41,6.32l11.64-.07a3,3,0,0,1,1.48-1.59h-11c-.23.11-.45.22-.64.33A4,4,0,0,0,1.41,6.32Z"/><path class="cls-107" d="M715.83,6.5l5.45,0A12.23,12.23,0,0,0,721,4.66h-5.38A11.1,11.1,0,0,1,715.83,6.5Z"/><path class="cls-107" d="M1.41,6.32a1.67,1.67,0,0,0-.23.82,2.34,2.34,0,0,0,.55,1.37L14,8.43a2.73,2.73,0,0,1-1-1.8,1.59,1.59,0,0,1,.06-.38Z"/><path class="cls-108" d="M715.83,6.5v.13a12.76,12.76,0,0,1-.19,2.06l5.56,0a13.33,13.33,0,0,0,.1-1.52c0-.21,0-.43,0-.67Z"/><path class="cls-108" d="M1.73,8.51A7.06,7.06,0,0,0,3.08,9.82c.36.28.78.57,1.24.86L17,10.6a18.13,18.13,0,0,1-2.21-1.43A7.85,7.85,0,0,1,14,8.43Z"/><path class="cls-109" d="M715.64,8.69a18.76,18.76,0,0,1-.5,2.2l5.65,0a20.08,20.08,0,0,0,.41-2.19Z"/><path class="cls-109" d="M4.32,10.68c.37.23.75.46,1.18.7h13c-.52-.26-1-.52-1.47-.78Z"/><path class="cls-110" d="M715.14,10.89c0,.16-.09.32-.15.49h5.66c.05-.18.09-.36.14-.53Z"/><path class="cls-111" d="M721,10.16c.15-.7.23-1.31.29-1.81s.06-.94.06-1.21,0-.39,0-.61a13.57,13.57,0,0,0-.23-1.81l0-.06h0a12.23,12.23,0,0,1,.24,1.81c0,.24,0,.46,0,.67a13.33,13.33,0,0,1-.1,1.52,20.08,20.08,0,0,1-.41,2.19c0,.17-.09.35-.14.53h0C720.79,11,720.89,10.54,721,10.16Z"/><path class="cls-111" d="M4.32,10.68c-.46-.29-.88-.58-1.24-.86A7.06,7.06,0,0,1,1.73,8.51a2.34,2.34,0,0,1-.55-1.37,1.67,1.67,0,0,1,.23-.82A4,4,0,0,1,2.92,5c.19-.11.41-.22.64-.33h0c-.22.1-.43.21-.62.32a4.7,4.7,0,0,0-1.16.89,1.83,1.83,0,0,0-.58,1.27,1.79,1.79,0,0,0,.09.54A4.49,4.49,0,0,0,2.68,9.51l.38.32a20.62,20.62,0,0,0,2.38,1.54H5.5C5.07,11.14,4.69,10.91,4.32,10.68Z"/><path class="cls-112" d="M25.26,5.08a2.87,2.87,0,0,1,.43-.42H14.58a4.63,4.63,0,0,0-1,.73Z"/><path class="cls-113" d="M13.61,5.39A1.81,1.81,0,0,0,13,6.63,2.27,2.27,0,0,0,13.61,8l12-.32a2.43,2.43,0,0,1-.78-1.56,1.55,1.55,0,0,1,.43-1Z"/><path class="cls-114" d="M13.61,8a11.59,11.59,0,0,0,3.28,2.52l12.3-.33a13.73,13.73,0,0,1-3.58-2.51Z"/><path class="cls-115" d="M710.32,5.42l5.4-.15c0-.2-.06-.4-.1-.61h-5.38C710.28,4.92,710.3,5.18,710.32,5.42Z"/><path class="cls-115" d="M29.19,10.18l-12.3.33c.5.28,1.05.57,1.64.87H31.66l-.28-.13C30.58,10.89,29.85,10.53,29.19,10.18Z"/><path class="cls-116" d="M710.32,5.42q0,.38,0,.69A11.69,11.69,0,0,1,710.17,8l5.55-.14a9.88,9.88,0,0,0,.08-1.25,11.66,11.66,0,0,0-.08-1.36Z"/><path class="cls-117" d="M710.17,8a18.84,18.84,0,0,1-.64,2.62l5.69-.15a17,17,0,0,0,.5-2.61Z"/><path class="cls-118" d="M715.22,10.49l-5.69.15c-.08.24-.16.49-.25.74H715C715.05,11.07,715.14,10.78,715.22,10.49Z"/><path class="cls-111" d="M715.64,8.69a12.76,12.76,0,0,0,.19-2.06V6.5a11.1,11.1,0,0,0-.17-1.84h0c0,.21.07.41.1.61a11.66,11.66,0,0,1,.08,1.36,9.88,9.88,0,0,1-.08,1.25,17,17,0,0,1-.5,2.61c-.08.29-.17.58-.26.89h0c.06-.17.11-.33.15-.49A18.76,18.76,0,0,0,715.64,8.69Z"/><path class="cls-111" d="M16.89,10.51A11.59,11.59,0,0,1,13.61,8,2.27,2.27,0,0,1,13,6.63a1.81,1.81,0,0,1,.58-1.24,4.63,4.63,0,0,1,1-.73h-.05a3,3,0,0,0-1.48,1.59,1.59,1.59,0,0,0-.06.38,2.73,2.73,0,0,0,1,1.8,7.85,7.85,0,0,0,.83.74A18.13,18.13,0,0,0,17,10.6c.45.26.95.52,1.47.78h.06C17.94,11.08,17.39,10.79,16.89,10.51Z"/><path class="cls-119" d="M24.88,6.11s0,.09,0,.14L36.68,5.7s0-.07,0-.1A1.44,1.44,0,0,1,37,4.66H25.75A1.91,1.91,0,0,0,24.88,6.11Z"/><path class="cls-120" d="M24.89,6.25c.09.86,1,1.85,2.65,2.93l11.84-.55c-1.71-1.08-2.63-2.07-2.7-2.93Z"/><path class="cls-121" d="M42.81,10.43a31.05,31.05,0,0,1-3.43-1.8l-11.84.55a30.86,30.86,0,0,0,3.86,2.05l.34.15H45.05C44.25,11.06,43.5,10.74,42.81,10.43Z"/><path class="cls-122" d="M704.85,5.55l5.41-.26c0-.2,0-.41-.07-.63h-5.38C704.84,5,704.85,5.28,704.85,5.55Z"/><path class="cls-123" d="M704.86,5.6a12.85,12.85,0,0,1-.43,3l5.64-.27a13.13,13.13,0,0,0,.23-2.24c0-.24,0-.52,0-.82l-5.41.26A.43.43,0,0,1,704.86,5.6Z"/><path class="cls-124" d="M710.07,8.35l-5.64.27a19.38,19.38,0,0,1-.9,2.76h5.7A20.15,20.15,0,0,0,710.07,8.35Z"/><path class="cls-111" d="M709.53,10.64A18.84,18.84,0,0,0,710.17,8a11.69,11.69,0,0,0,.18-1.91q0-.32,0-.69c0-.24,0-.5-.08-.76h0c0,.22.06.43.07.63s0,.58,0,.82a13.13,13.13,0,0,1-.23,2.24,20.15,20.15,0,0,1-.84,3h0C709.37,11.13,709.45,10.88,709.53,10.64Z"/><path class="cls-111" d="M27.54,9.18C25.87,8.1,25,7.11,24.89,6.25c0,0,0-.09,0-.14a1.91,1.91,0,0,1,.87-1.45h-.06a2.87,2.87,0,0,0-.43.42,1.55,1.55,0,0,0-.43,1,2.43,2.43,0,0,0,.78,1.56,13.73,13.73,0,0,0,3.58,2.51c.66.35,1.39.71,2.19,1.07l.28.13h.08l-.34-.15A30.86,30.86,0,0,1,27.54,9.18Z"/><path class="cls-125" d="M36.73,5.6a1.8,1.8,0,0,0,.37,1l11.63-.78a1.49,1.49,0,0,1-.22-.75,1.06,1.06,0,0,1,.08-.43H37.1A1.44,1.44,0,0,0,36.73,5.6Z"/><path class="cls-126" d="M37.1,6.62c.66,1,2.22,2.06,4.6,3.24l11.47-.77c-2.4-1.18-3.91-2.29-4.44-3.25Z"/><path class="cls-127" d="M54.25,9.61l-1.08-.52L41.7,9.86c.37.18.74.36,1.15.54.71.32,1.48.65,2.3,1h13.5Q56.18,10.48,54.25,9.61Z"/><path class="cls-128" d="M699.16,7l5.57-.37a8.3,8.3,0,0,0,.07-1.06c0-.28,0-.59,0-.94h-5.4c0,.15,0,.29,0,.43A11.21,11.21,0,0,1,699.16,7Z"/><path class="cls-129" d="M699.16,7A17.61,17.61,0,0,1,698,10.65h0l5.85-.39a16.49,16.49,0,0,0,.84-3.6Z"/><path class="cls-130" d="M703.89,10.26l-5.85.39c-.1.25-.21.49-.32.73h5.75C703.62,11,703.76,10.62,703.89,10.26Z"/><path class="cls-111" d="M704.43,8.62a12.85,12.85,0,0,0,.43-3,.43.43,0,0,0,0,0c0-.27,0-.57,0-.89h-.06c0,.35,0,.66,0,.94a8.3,8.3,0,0,1-.07,1.06,16.49,16.49,0,0,1-.84,3.6c-.13.36-.27.73-.42,1.12h.06A19.38,19.38,0,0,0,704.43,8.62Z"/><path class="cls-111" d="M42.85,10.4c-.41-.18-.78-.36-1.15-.54-2.38-1.18-3.94-2.27-4.6-3.24a1.8,1.8,0,0,1-.37-1,1.44,1.44,0,0,1,.37-.94H37a1.44,1.44,0,0,0-.37.94s0,.07,0,.1c.07.86,1,1.85,2.7,2.93a31.05,31.05,0,0,0,3.43,1.8c.69.31,1.44.63,2.24,1h.1C44.33,11.05,43.56,10.72,42.85,10.4Z"/><path class="cls-131" d="M48.57,5.09a2.21,2.21,0,0,0,.71,1.39l11.4-1a1.69,1.69,0,0,1-.33-.82H48.65A1.26,1.26,0,0,0,48.57,5.09Z"/><path class="cls-132" d="M49.28,6.48a16.91,16.91,0,0,0,5,3.09l1.09.48,11-1-.69-.31c-2.64-1.2-4.33-2.32-5-3.3Z"/><path class="cls-133" d="M66.38,9.09l-11,1c1,.44,2.17.88,3.41,1.33H72.51C70.17,10.61,68.11,9.84,66.38,9.09Z"/><path class="cls-134" d="M693.76,5.94l5.53-.48c0-.15,0-.27,0-.37s0-.28,0-.43h-5.42A9.34,9.34,0,0,1,693.76,5.94Z"/><path class="cls-135" d="M693.76,5.94a16.88,16.88,0,0,1-1.31,4.22l5.92-.52a14.69,14.69,0,0,0,.92-4.18Z"/><path class="cls-136" d="M698,10.64c.14-.34.27-.68.39-1l-5.92.52c-.18.4-.38.8-.6,1.22h5.8Z"/><path class="cls-111" d="M698,10.65h0A17.61,17.61,0,0,0,699.16,7a11.21,11.21,0,0,0,.21-1.94c0-.14,0-.28,0-.43h-.06c0,.15,0,.29,0,.43s0,.22,0,.37a14.69,14.69,0,0,1-.92,4.18c-.12.32-.25.66-.39,1l-.33.74h.07C697.83,11.14,697.94,10.9,698,10.65Z"/><path class="cls-111" d="M55.38,10.05l-1.09-.48a16.91,16.91,0,0,1-5-3.09,2.21,2.21,0,0,1-.71-1.39,1.26,1.26,0,0,1,.08-.43h-.06a1.06,1.06,0,0,0-.08.43,1.49,1.49,0,0,0,.22.75c.53,1,2,2.07,4.44,3.25l1.08.52q1.92.87,4.4,1.77h.14C57.55,10.93,56.41,10.49,55.38,10.05Z"/><path class="cls-137" d="M60.67,5.33,67,4.66H60.43A1.6,1.6,0,0,0,60.67,5.33Z"/><path class="cls-108" d="M60.67,5.33c.6,1,2.32,2.16,5.07,3.41.49.23,1,.45,1.57.68L77.86,8.29c-3.08-1.33-5-2.57-5.52-3.63H67Z"/><path class="cls-138" d="M77.86,8.29,67.31,9.42c1.57.64,3.36,1.3,5.37,2h14A80.07,80.07,0,0,1,77.86,8.29Z"/><path class="cls-139" d="M688.3,5.16l4.69-.5h-4.63C688.34,4.81,688.32,5,688.3,5.16Z"/><path class="cls-140" d="M688.3,5.16a16.46,16.46,0,0,1-1.7,5l6-.65a14,14,0,0,0,1.14-4.84H693Z"/><path class="cls-141" d="M692.65,9.5l-6,.65c-.21.4-.44.81-.7,1.23h5.87C692.11,10.73,692.4,10.1,692.65,9.5Z"/><path class="cls-111" d="M692.45,10.16a16.88,16.88,0,0,0,1.31-4.22,9.34,9.34,0,0,0,.11-1.28h-.08a14,14,0,0,1-1.14,4.84c-.25.6-.54,1.23-.88,1.88h.08C692.07,11,692.27,10.56,692.45,10.16Z"/><path class="cls-111" d="M67.31,9.42c-.55-.23-1.08-.45-1.57-.68C63,7.49,61.27,6.33,60.67,5.33a1.6,1.6,0,0,1-.24-.67h-.08a1.69,1.69,0,0,0,.33.82c.68,1,2.37,2.1,5,3.3l.69.31c1.73.75,3.79,1.52,6.13,2.29h.17C70.67,10.72,68.88,10.06,67.31,9.42Z"/><path class="cls-115" d="M76,7.36,86.39,6a7.83,7.83,0,0,1-1.82-1.37H72.44C72.85,5.45,74.07,6.37,76,7.36Z"/><path class="cls-142" d="M97.76,10.41A54.77,54.77,0,0,1,86.39,6L76,7.36c.36.18.75.37,1.16.55a78.22,78.22,0,0,0,9.7,3.47H90.2Z"/><path class="cls-143" d="M97.76,10.41l-7.56,1h11l-.36-.1C99.78,11,98.75,10.7,97.76,10.41Z"/><path class="cls-144" d="M680.32,10.7l6.32-.82a15.32,15.32,0,0,0,1.63-5.22H682.8A16.1,16.1,0,0,1,680.32,10.7Z"/><path class="cls-145" d="M686.64,9.88l-6.32.82-.47.68h6C686.12,10.87,686.39,10.37,686.64,9.88Z"/><path class="cls-111" d="M686.6,10.15a16.46,16.46,0,0,0,1.7-5c0-.18,0-.35.06-.5h-.09a15.32,15.32,0,0,1-1.63,5.22c-.25.49-.52,1-.83,1.5h.09C686.16,11,686.39,10.55,686.6,10.15Z"/><path class="cls-111" d="M77.18,7.91c-.41-.18-.8-.37-1.16-.55-2-1-3.17-1.91-3.58-2.7h-.1c.53,1.06,2.44,2.3,5.52,3.63a80.07,80.07,0,0,0,8.81,3.09h.21A78.22,78.22,0,0,1,77.18,7.91Z"/><path class="cls-146" d="M86.24,4.66H84.69l.21.2Z"/><path class="cls-147" d="M88.62,7.08a68.75,68.75,0,0,0,8.64,3.11l9.42-1.4C102,7.33,98.69,5.9,97,4.66H86.24l-1.34.2A14.49,14.49,0,0,0,88.62,7.08Z"/><path class="cls-148" d="M111.21,10.1c-1.63-.44-3.14-.88-4.53-1.31l-9.42,1.4c1.16.35,2.38.69,3.65,1l.59.16h14.82C114.56,11,112.85,10.54,111.21,10.1Z"/><path class="cls-149" d="M677,5.28l4.19-.62h-4C677.15,4.85,677.1,5.06,677,5.28Z"/><path class="cls-150" d="M682.69,4.66h-1.46L677,5.28a17,17,0,0,1-3.4,6.1h6.1A16.28,16.28,0,0,0,682.69,4.66Z"/><path class="cls-111" d="M680.32,10.7a16.1,16.1,0,0,0,2.48-6h-.11a16.28,16.28,0,0,1-3,6.72h.11Z"/><path class="cls-111" d="M97.26,10.19a68.75,68.75,0,0,1-8.64-3.11A14.49,14.49,0,0,1,84.9,4.86l-.21-.2h-.12A7.83,7.83,0,0,0,86.39,6a54.77,54.77,0,0,0,11.37,4.38c1,.29,2,.58,3.11.87l.36.1h.27l-.59-.16C99.64,10.88,98.42,10.54,97.26,10.19Z"/><path class="cls-151" d="M106.18,8.55,115.25,7a34.28,34.28,0,0,1-5.47-2.34H97.21C98.82,5.83,101.92,7.18,106.18,8.55Z"/><path class="cls-152" d="M121.56,8.92c-2.38-.64-4.49-1.29-6.31-1.92l-9.07,1.55c1.54.49,3.24,1,5.08,1.49s3.53.91,5.38,1.34h15.57C128.45,10.63,124.86,9.81,121.56,8.92Z"/><path class="cls-153" d="M670.1,7.81l6.31-1.07a14.07,14.07,0,0,0,.67-2.08h-5.54A13.68,13.68,0,0,1,670.1,7.81Z"/><path class="cls-154" d="M676.41,6.74,670.1,7.81A18.09,18.09,0,0,1,667.57,11l-.36.35h6.3A18.08,18.08,0,0,0,676.41,6.74Z"/><path class="cls-111" d="M677,5.28c.06-.22.11-.43.16-.62h-.12a14.07,14.07,0,0,1-.67,2.08,18.08,18.08,0,0,1-2.9,4.64h.13A17,17,0,0,0,677,5.28Z"/><path class="cls-111" d="M111.26,10c-1.84-.5-3.54-1-5.08-1.49-4.26-1.37-7.36-2.72-9-3.89H97c1.65,1.24,5,2.67,9.64,4.13,1.39.43,2.9.87,4.53,1.31s3.35.87,5.11,1.28h.32C114.79,11,113,10.5,111.26,10Z"/><path class="cls-155" d="M114.53,6.65l8.93-1.72-.62-.27H110A32.21,32.21,0,0,0,114.53,6.65Z"/><path class="cls-156" d="M131.9,7.74a65,65,0,0,1-8.44-2.81l-8.93,1.72c2,.72,4.37,1.47,7.08,2.2,3.41.92,7.12,1.77,11,2.53H551.2l.45-.09C545.46,10.34,137,9.13,131.9,7.74Z"/><path class="cls-157" d="M551.2,11.38h1l-.54-.09Z"/><path class="cls-158" d="M667.46,11a15.6,15.6,0,0,0,3.95-6.33h-5.59a14.62,14.62,0,0,1-3.34,4.93,19,19,0,0,1-2.09,1.79h6.67Z"/><path class="cls-111" d="M667.57,11a18.09,18.09,0,0,0,2.53-3.22,13.68,13.68,0,0,0,1.44-3.15h-.13A15.6,15.6,0,0,1,667.46,11l-.4.39h.15Z"/><path class="cls-111" d="M121.61,8.85c-2.71-.73-5.09-1.48-7.08-2.2a32.21,32.21,0,0,1-4.53-2h-.22A34.28,34.28,0,0,0,115.25,7c1.82.63,3.93,1.28,6.31,1.92,3.3.89,6.89,1.71,10.65,2.46h.41C128.73,10.62,125,9.77,121.61,8.85Z"/><path class="cls-159" d="M565.15,10.43c-7.33-.92-416.95-2.26-422.9-3.88-2.34-.63-4.35-1.27-6-1.89H123.09a62,62,0,0,0,8.87,3c5.43,1.47,414.24,2.74,420.82,3.72h7.93Z"/><path class="cls-160" d="M570.72,11q-2.81-.26-5.57-.6l-4.44,1h13C572.73,11.24,571.72,11.13,570.72,11Z"/><path class="cls-160" d="M659.88,4.86l.94-.2H660A1.28,1.28,0,0,0,659.88,4.86Z"/><path class="cls-161" d="M662.36,9.55a14.57,14.57,0,0,0,3.32-4.89h-4.86l-.94.2a16.07,16.07,0,0,1-7,6.52h7.33A19.35,19.35,0,0,0,662.36,9.55Z"/><path class="cls-111" d="M662.48,9.59a14.62,14.62,0,0,0,3.34-4.93h-.14a14.57,14.57,0,0,1-3.32,4.89,19.35,19.35,0,0,1-2.15,1.83h.18A19,19,0,0,0,662.48,9.59Z"/><path class="cls-111" d="M132,7.66a62,62,0,0,1-8.87-3h-.25l.62.27a65,65,0,0,0,8.44,2.81c5.14,1.39,413.56,2.6,419.75,3.55l.54.09h.59C546.2,10.4,137.39,9.13,132,7.66Z"/><path class="cls-162" d="M581.71,9.77c-1.42-.21-2.84-.39-4.22-.52a135,135,0,0,1-22.35-3.88c-.87-.24-1.69-.48-2.45-.71H136.56c1.6.59,3.53,1.21,5.75,1.81,7.44,2,419.17,3.61,428.43,4.47,1.22.12,2.46.27,3.7.44h.5Z"/><path class="cls-163" d="M581.71,9.77l-6.77,1.61h15.85C587.78,10.79,584.71,10.21,581.71,9.77Z"/><path class="cls-163" d="M659.83,4.66H654a13.23,13.23,0,0,1-1.74,2.06,19.51,19.51,0,0,1-9.19,4.66h9.53A16,16,0,0,0,659.83,4.66Z"/><path class="cls-111" d="M659.88,4.86a1.28,1.28,0,0,1,.11-.2h-.16a16,16,0,0,1-7.19,6.72h.24A16.07,16.07,0,0,0,659.88,4.86Z"/><path class="cls-111" d="M570.74,10.94c-9.26-.86-421-2.45-428.43-4.47-2.22-.6-4.15-1.22-5.75-1.81h-.3c1.64.62,3.65,1.26,6,1.89,5.95,1.62,415.57,3,422.9,3.88q2.76.35,5.57.6c1,.1,2,.21,3,.35h.69C573.2,11.21,572,11.06,570.74,10.94Z"/><path class="cls-164" d="M604.15,10.68c-2.6-.38-5.24-.87-7.83-1.34-4-.74-8.16-1.5-12.06-1.87a117.14,117.14,0,0,1-17-2.81H553.05a127.23,127.23,0,0,0,24.46,4.5,138.4,138.4,0,0,1,13.81,2.22h10.13Z"/><path class="cls-165" d="M604.15,10.68l-2.7.7h9.71A67.06,67.06,0,0,1,604.15,10.68Z"/><path class="cls-165" d="M652.17,6.67a13.07,13.07,0,0,0,1.69-2h-6c-1.9,2.08-5.32,4.27-11.24,5a192.84,192.84,0,0,1-20.71,1.68h26.77A19.62,19.62,0,0,0,652.17,6.67Z"/><path class="cls-111" d="M652.3,6.72A13.23,13.23,0,0,0,654,4.66h-.18a13.07,13.07,0,0,1-1.69,2,19.62,19.62,0,0,1-9.52,4.71h.46A19.51,19.51,0,0,0,652.3,6.72Z"/><path class="cls-111" d="M577.51,9.16a127.23,127.23,0,0,1-24.46-4.5h-.36c.76.23,1.58.47,2.45.71a135,135,0,0,0,22.35,3.88c1.38.13,2.8.31,4.22.52,3,.44,6.07,1,9.08,1.61h.53A138.4,138.4,0,0,0,577.51,9.16Z"/><path class="cls-166" d="M567.91,4.66h-.24l.13,0Z"/><path class="cls-167" d="M584.29,7.37c3.91.36,8.06,1.13,12.08,1.86,5.55,1,11.29,2.08,16.42,2.08A186.71,186.71,0,0,0,636.55,9.6c5.82-.76,9.2-2.89,11.09-4.94h-6.52a17,17,0,0,1-7.72,2.75,152.19,152.19,0,0,1-19.27,1.17A88.34,88.34,0,0,1,600.44,7c-3.13-.52-6.36-1-9.41-1.34-2.7-.25-5.33-.61-7.77-1H567.91l-.11,0A116.17,116.17,0,0,0,584.29,7.37Z"/><path class="cls-111" d="M636.59,9.7c5.92-.77,9.34-3,11.24-5h-.19c-1.89,2.05-5.27,4.18-11.09,4.94a186.71,186.71,0,0,1-23.76,1.71c-5.13,0-10.87-1.06-16.42-2.08-4-.73-8.17-1.5-12.08-1.86A116.17,116.17,0,0,1,567.8,4.69l-.13,0h-.4a117.14,117.14,0,0,0,17,2.81c3.9.37,8,1.13,12.06,1.87,2.59.47,5.23,1,7.83,1.34a67.06,67.06,0,0,0,7,.7h4.72A192.84,192.84,0,0,0,636.59,9.7Z"/><path class="cls-158" d="M591.06,5.58c3.05.29,6.3.82,9.43,1.34,2.5.41,5,.83,7.52,1.13l7.45-2.3a86.81,86.81,0,0,1-11.15-1l-.39,0h-20C586.17,5,588.56,5.35,591.06,5.58Z"/><path class="cls-168" d="M630.2,5.13a119.39,119.39,0,0,1-14.74.62h0L608,8.05a52.62,52.62,0,0,0,6.12.42A151.43,151.43,0,0,0,633.36,7.3a16.85,16.85,0,0,0,7.52-2.64h-8.33A18.07,18.07,0,0,1,630.2,5.13Z"/><path class="cls-111" d="M591,5.69c3.05.29,6.28.82,9.41,1.34a88.34,88.34,0,0,0,13.69,1.55A152.19,152.19,0,0,0,633.4,7.41a17,17,0,0,0,7.72-2.75h-.24a16.85,16.85,0,0,1-7.52,2.64,151.43,151.43,0,0,1-19.23,1.17A52.62,52.62,0,0,1,608,8.05c-2.48-.3-5-.72-7.52-1.13-3.13-.52-6.38-1-9.43-1.34-2.5-.23-4.89-.55-7.12-.92h-.68C585.7,5.08,588.33,5.44,591,5.69Z"/><path class="cls-169" d="M615.46,5.63A118.69,118.69,0,0,0,630.16,5a18.69,18.69,0,0,0,1.91-.35H604.83A82.47,82.47,0,0,0,615.46,5.63Z"/><path class="cls-111" d="M615.46,5.75h0a119.39,119.39,0,0,0,14.74-.62,18.07,18.07,0,0,0,2.35-.47h-.48a18.69,18.69,0,0,1-1.91.35,118.69,118.69,0,0,1-14.7.62,82.47,82.47,0,0,1-10.63-1h-.91l.39,0A86.81,86.81,0,0,0,615.46,5.75Z"/><rect class="cls-170" y="4.66" width="725" height="1"/><rect class="cls-171" x="0.21" y="10.23" width="724.79" height="1.15"/></g></g></g></g></svg>