<svg xmlns="http://www.w3.org/2000/svg" viewBox="0 0 242.09 75.62"><defs><style>.cls-1{fill:#666462;}.cls-2{fill:#474e51;}.cls-2,.cls-3,.cls-5{fill-rule:evenodd;}.cls-3,.cls-8{fill:#889299;}.cls-4{fill:#b01f1f;}.cls-5{fill:#a6162c;}.cls-6{fill:#c1465d;}.cls-7{fill:#a11212;}</style></defs><g id="Layer_2" data-name="Layer 2"><g id="Layer_1-2" data-name="Layer 1"><rect class="cls-1" x="71.61" y="72.09" width="98.86" height="3.53"/><polygon class="cls-2" points="45.12 22.12 45.12 26.13 122.17 39.15 198.17 26.34 201.35 22.12 45.12 22.12"/><path class="cls-3" d="M115,24.68,48.37,23.57l.49,1.9,65.06,5Z"/><path class="cls-3" d="M126.16,25.07,192.8,24l-.48,1.9-65.07,4.95Z"/><path class="cls-2" d="M77.49,72.27v-2.8c.37-2.78,3.42-3.83,6.42-3.57,4-4.83,10.1-9.19,19.69-10v0c2.92-.34,4.45-1.81,4.91-4l5.74-28.51c.88-4.46,2.83-6.4,6-6.74a2.57,2.57,0,0,1,.62,0c3.2.34,5.2,2.28,6.07,6.74L132.7,51.9c.47,2.15,2,3.62,4.91,4v0c9.58.83,15.73,5.19,19.69,10,3-.26,6,.79,6.42,3.57v2.8H142.88c-6-3.62-14-4.55-22.25-4.53v0h-.06v0c-8.24,0-16.24.91-22.24,4.53Z"/><rect class="cls-4" x="40.5" y="11.11" width="5.68" height="8.7"/><path class="cls-5" d="M2.69,2.74,8.21,12.5a3.31,3.31,0,0,0,2.95,1.87H76.59a3.42,3.42,0,0,0,3.23-1.74l5.6-9.89Z"/><rect class="cls-6" width="88.17" height="4.03" rx="1.81"/><rect class="cls-4" x="195.52" y="11.47" width="5.68" height="8.7"/><path class="cls-5" d="M156.61,3.11l5.52,9.75a3.31,3.31,0,0,0,3,1.87h65.42A3.4,3.4,0,0,0,233.74,13l5.6-9.88Z"/><rect class="cls-6" x="153.92" y="0.36" width="88.17" height="4.03" rx="1.81"/><circle class="cls-6" cx="198.36" cy="25.32" r="6.55"/><path class="cls-5" d="M196.72,23.62a2.47,2.47,0,1,1,0,3.5A2.49,2.49,0,0,1,196.72,23.62Z"/><circle class="cls-6" cx="43.34" cy="24.96" r="6.55"/><path class="cls-5" d="M41.7,23.26a2.47,2.47,0,1,1,0,3.5A2.49,2.49,0,0,1,41.7,23.26Z"/><rect class="cls-7" x="40.53" y="14.38" width="5.61" height="2.05"/><rect class="cls-7" x="195.64" y="14.76" width="5.55" height="2.04"/><path class="cls-3" d="M118.62,27.78a3.16,3.16,0,1,1,0,4.47A3.17,3.17,0,0,1,118.62,27.78Z"/><path class="cls-8" d="M120.93,35.53A5.11,5.11,0,0,1,116,32.32a.77.77,0,0,1,.38-1,.78.78,0,0,1,1,.38A3.54,3.54,0,0,0,121,34a3.08,3.08,0,0,0,3.15-2.07.76.76,0,0,1,1-.48.77.77,0,0,1,.48,1A4.63,4.63,0,0,1,121,35.53Z"/><path class="cls-3" d="M117.18,41.13v16.2c0,2.81,1.58,5.1,3.53,5.1h0c2,0,3.54-2.29,3.54-5.1V41.13c0-2.82-1.58-5.1-3.54-5.1h0C118.76,36,117.18,38.31,117.18,41.13Z"/><path class="cls-8" d="M97.53,72.07a1,1,0,0,1-.78-.4A1,1,0,0,1,97,70.31c4.41-3.2,13-5,24.17-5,9.21,0,17.43,1.76,22.56,4.82A1,1,0,0,1,144,71.5a1,1,0,0,1-1.32.33c-4.84-2.89-12.7-4.55-21.57-4.55-10.61,0-19,1.68-23,4.6A.93.93,0,0,1,97.53,72.07Z"/><path class="cls-8" d="M116.48,21.77a.72.72,0,0,1-.32-.08.76.76,0,0,1-.38-1,5.07,5.07,0,0,1,4.94-3.21,4.65,4.65,0,0,1,4.6,3.12.78.78,0,0,1-1.47.5A3.09,3.09,0,0,0,120.69,19a3.53,3.53,0,0,0-3.5,2.3A.77.77,0,0,1,116.48,21.77Z"/></g></g></svg>